<svg xmlns="http://www.w3.org/2000/svg" width="21" height="20" viewBox="0 0 21 20">
    <path fill="none" stroke="#EDB15D" d="M10.46.51c-.005.001-.01.004-.014.007-.02.015-.032.038-.04.065L8.153 7.571l-7.052.086c-.02 0-.037.004-.05.015-.022.017-.036.042-.044.068-.01.03-.012.064-.002.096.007.024.023.045.045.062l5.638 4.4-2.092 7.023c-.01.032-.01.063-.002.091.009.027.026.05.047.066.015.012.033.021.052.021.017 0 .033-.009.048-.02l5.758-4.28 5.758 4.28c.015.012.031.021.048.021.02 0 .037-.01.052-.02.022-.017.038-.04.047-.066.009-.028.007-.06-.002-.092l-2.092-7.024 5.638-4.399c.022-.017.038-.039.045-.062.01-.032.007-.065-.002-.096-.008-.026-.022-.051-.044-.068-.013-.01-.03-.015-.05-.016l-7.046-.085L10.46.509z"/>
</svg>
