<svg xmlns="http://www.w3.org/2000/svg" width="32" height="32"><g fill="none" fill-rule="evenodd" stroke="#000" stroke-linecap="round" stroke-linejoin="round" stroke-width="1.5" opacity=".9"><path d="M16 8a6 6 0 016 6h0-12a6 6 0 016-6zm-4 0c0-2.21 1.79-4 4-4s4 1.79 4 4M2 14h28l-1.714 13.714c-.103.822-.217 1.112-.403 1.4a1.8 1.8 0 01-.747.66c-.31.15-.611.226-1.44.226H6.304c-.829 0-1.13-.077-1.44-.226-.31-.149-.56-.37-.747-.66-.186-.288-.3-.578-.403-1.4L2 14h0z"/><path d="M11.229 8H7.707c-.664 0-.904.042-1.16.13-.258.09-.48.227-.674.417C5.743 8.674 4.452 10.491 2 14h28c-2.452-3.509-3.743-5.326-3.873-5.453a1.783 1.783 0 00-.673-.416c-.257-.09-.497-.131-1.161-.131h-3.667"/></g></svg>