<svg xmlns="http://www.w3.org/2000/svg" width="16" height="16" viewBox="0 0 16 16">
    <g fill="none" fill-rule="evenodd" stroke="#EDB15D" stroke-linecap="round" stroke-linejoin="round">
        <path d="M7 2c1.657 0 3 1.343 3 3h0-6c0-1.657 1.343-3 3-3zM5 2c0-1.105.895-2 2-2s2 .895 2 2M0 5h14l-.857 6.857c-.052.411-.108.556-.202.7-.093.145-.218.256-.373.33-.155.075-.306.113-.72.113H2.152c-.414 0-.565-.038-.72-.113-.155-.074-.28-.185-.373-.33-.094-.144-.15-.289-.202-.7L0 5h0z" transform="translate(1 2)"/>
        <path d="M4.615 2H2.854c-.333 0-.452.02-.58.065-.13.045-.24.113-.338.208C1.871 2.337 1.226 3.246 0 5h14c-1.226-1.754-1.871-2.663-1.936-2.727-.098-.095-.208-.163-.337-.208-.129-.044-.248-.065-.58-.065H9.312" transform="translate(1 2)"/>
    </g>
</svg>
