<svg xmlns="http://www.w3.org/2000/svg" width="16" height="16"><g fill="none" fill-rule="evenodd" stroke="#EDB15D" stroke-linecap="round" stroke-linejoin="round"><path d="M8 4a3 3 0 013 3h0-6a3 3 0 013-3zM6 4a2 2 0 114 0M1 7h14l-.857 6.857c-.052.411-.108.556-.202.7a.895.895 0 01-.373.33c-.155.075-.306.113-.72.113H3.152c-.414 0-.565-.038-.72-.113a.895.895 0 01-.373-.33c-.094-.144-.15-.289-.202-.7L1 7h0z"/><path d="M5.615 4H3.854c-.333 0-.452.02-.58.065a.896.896 0 00-.338.208C2.871 4.337 2.226 5.246 1 7h14c-1.226-1.754-1.871-2.663-1.936-2.727a.9.9 0 00-.337-.208c-.129-.044-.248-.065-.58-.065h-1.835"/></g></svg>