<svg xmlns="http://www.w3.org/2000/svg" width="29" height="28"><path fill-rule="evenodd" d="M14.5 0c3.802 0 4.279.016 5.772.084 1.49.068 2.508.305 3.399.651.92.358 1.7.836 2.48 1.615a6.862 6.862 0 011.614 2.48c.346.89.583 1.908.65 3.398.069 1.493.085 1.97.085 5.772 0 3.802-.016 4.279-.084 5.772-.068 1.49-.305 2.508-.651 3.399-.358.92-.836 1.7-1.615 2.48a6.862 6.862 0 01-2.48 1.614c-.89.346-1.908.583-3.398.65-1.493.069-1.97.085-5.772.085-3.802 0-4.279-.016-5.772-.084-1.49-.068-2.508-.305-3.399-.651a6.878 6.878 0 01-2.48-1.615 6.862 6.862 0 01-1.614-2.48c-.346-.89-.583-1.908-.65-3.398C.515 18.28.5 17.802.5 14c0-3.802.016-4.279.084-5.772.068-1.49.305-2.508.651-3.399.358-.92.836-1.7 1.615-2.48A6.862 6.862 0 015.33.735C6.22.389 7.238.152 8.728.085 10.22.015 10.698 0 14.5 0zm0 2.523c-3.738 0-4.181.014-5.657.081-1.365.062-2.106.29-2.6.482a4.354 4.354 0 00-1.61 1.047c-.49.49-.793.957-1.047 1.61-.192.494-.42 1.235-.482 2.6-.067 1.476-.081 1.919-.081 5.657s.014 4.181.081 5.657c.062 1.365.29 2.106.482 2.6.254.653.558 1.12 1.047 1.61.49.49.957.793 1.61 1.047.494.192 1.235.42 2.6.482 1.476.067 1.919.081 5.657.081s4.181-.014 5.657-.081c1.365-.062 2.106-.29 2.6-.482a4.354 4.354 0 001.61-1.047c.49-.49.793-.957 1.047-1.61.192-.494.42-1.235.482-2.6.067-1.476.081-1.919.081-5.657s-.014-4.181-.081-5.657c-.062-1.365-.29-2.106-.482-2.6a4.354 4.354 0 00-1.047-1.61 4.342 4.342 0 00-1.61-1.047c-.494-.192-1.235-.42-2.6-.482-1.476-.067-1.919-.081-5.657-.081zM7.31 14a7.191 7.191 0 0114.38 0 7.191 7.191 0 01-14.38 0zm7.19 4.667a4.668 4.668 0 10-.001-9.335 4.668 4.668 0 00.001 9.335zm9.153-12.14a1.68 1.68 0 11-3.36 0 1.68 1.68 0 013.36 0z"/></svg>