<svg xmlns="http://www.w3.org/2000/svg" width="32" height="32"><path fill="none" stroke="#FFF" stroke-linecap="round" stroke-linejoin="round" stroke-width="1.5" d="M19.936 22.032a1.332 1.332 0 001.845-.345c.584-.85.848-.985 1.207-.968 1.148.135 5.671 3.438 6.124 4.47.114.304.11.603-.013.965-.474 1.405-1.26 2.392-2.273 2.854-.962.44-2.142.4-3.41-.115-4.738-1.924-8.876-4.609-12.302-7.981-3.38-3.414-6.07-7.533-7.998-12.247C2.6 7.4 2.56 6.225 3.001 5.266c.464-1.01 1.455-1.792 2.863-2.265.365-.122.664-.126.966-.014 1.04.453 4.354 4.96 4.488 6.091.019.371-.116.635-.97 1.216a1.319 1.319 0 00-.346 1.837c.413.603 9.33 9.488 9.934 9.9z"/></svg>