<svg xmlns="http://www.w3.org/2000/svg" width="40" height="40"><defs><filter id="a" width="181.2%" height="176.5%" x="-40.6%" y="-38.2%" filterUnits="objectBoundingBox"><feOffset dy="1" in="SourceAlpha" result="shadowOffsetOuter1"/><feGaussianBlur in="shadowOffsetOuter1" result="shadowBlurOuter1" stdDeviation="1"/><feColorMatrix in="shadowBlurOuter1" result="shadowMatrixOuter1" values="0 0 0 0 0 0 0 0 0 0 0 0 0 0 0 0 0 0 0.29865579 0"/><feMerge><feMergeNode in="shadowMatrixOuter1"/><feMergeNode in="SourceGraphic"/></feMerge></filter></defs><g fill="none" fill-rule="evenodd"><g><circle cx="20" cy="20" r="20" fill="#000"/><path fill="#F9D996" d="M14 19h13v2H14z"/><path fill="#F9D996" d="M21.5 13.5v13h-2v-13z"/></g><g filter="url(#a)" transform="translate(25 32)"><path fill="#000" d="M3.885 13.552c.15.136.254.233.575.538.314.298.466.439.605.557.058.049.107.179.127.373.016.16.01.337-.01.509-.006.06-.013.102-.016.122-.042.23.132.44.365.443.209.002.37.005.797.012l.214.004c1.16.02 1.753.014 2.178-.039.455-.057.923-.606 1.328-1.295.343.61.818 1.205 1.299 1.282.152.024.337.032.551.027a7.36 7.36 0 00.499-.03c.128-.01.23-.022.292-.03a.375.375 0 00.313-.471 3.515 3.515 0 01-.105-.609 1.579 1.579 0 01-.003-.192c.006-.098.007-.153.01-.28l.002-.088c.006-.135.024-.263.082-.542.026-.121.148-.353.34-.64a11.79 11.79 0 01.588-.787c.082-.102.146-.178.18-.219a6.182 6.182 0 00.73-1.525c.11-.39.2-1.11.254-1.816.03-.401.041-.724.041-1.231v-.384c0-.154-.005-.306-.02-.694-.032-.814-.478-1.34-1.135-1.442-.559-.086-1.239.378-1.239.378s-.151-.522-.254-.684c-.166-.26-.594-.59-.921-.654a3.142 3.142 0 00-1.102.007c-.32.057-.64.343-.825.652-.132.22-.008-.011-.14-.24-.183-.313-.61-.594-1.015-.677a2.3 2.3 0 00-1.098.062c-.463.139-.537.491-.556.39-.061-.338-.067-.316-.105-.557-.143-.895-.302-1.515-.544-2.055l-.126-.283a4.78 4.78 0 00-.2-.386c-.219-.374-.47-.654-.783-.813-.546-.276-1.364-.142-1.751.31-.385.45-.45 1.202-.352 2.133.037.361.166 1.02.284 1.508.042.17.078.323.145.608l.023.097c.052.216.097.394.151.588l.12.425.014.054a16.457 16.457 0 01.243 1.083c.089.47.089.372.003.272a6.05 6.05 0 00-.168-.19 2.812 2.812 0 00-.278-.268c-.635-.519-1.024-.748-1.557-.798C1.059 5.982.229 6.6.104 7.435c-.077.512-.052.748.184 1.2.13.244.35.54.762 1.047l.05.062c.505.622.56.691.68.865.324.47 1.114 1.822 1.257 2.004l.848.94z"/><path fill="#FFF" d="M1.683 9.272l-.05-.062c-.377-.466-.584-.743-.682-.926-.152-.291-.16-.37-.106-.737.065-.433.532-.78 1.019-.734.336.032.63.205 1.153.633.057.046.125.113.203.197.046.05.095.105.148.167.08.093.347.42.308.373.058.07.1.124.147.19.094.135.147.21.219.305-.034-.045.214.298.267.349.278.265.682.041.657-.313a1.421 1.421 0 00-.048-.235 28.13 28.13 0 00-.246-1.567c-.034-.18-.07-.351-.106-.512-.064-.286-.106-.46-.15-.624l-.015-.058-.12-.43a15.03 15.03 0 01-.145-.561l-.022-.095c-.067-.284-.104-.442-.146-.614-.11-.455-.235-1.087-.267-1.407-.076-.725-.024-1.335.175-1.567.156-.182.597-.254.843-.13.161.082.322.262.474.522.058.099.112.204.168.324l.121.273c.21.47.355 1.031.488 1.867.04.248.088.528.15.871l.038.204c.301 1.635.28 1.51.284 1.641.016.476.718.487.749.012.01-.15.006-.285-.011-.671l-.005-.11c-.015-.355-.015-.56.007-.676.038-.213.228-.45.404-.503.246-.073.516-.092.733-.047.207.042.448.202.518.32.083.145.155.364.21.636.044.22.074.455.096.706.007.078.01.139.018.239l.005.076.006.045c.003.019.003.019.017.068.007.137.007.137.56.189.166-.2.166-.2.162-.235.027-.119.043-.25.067-.498.015-.162.023-.24.032-.323.036-.34.083-.556.14-.651.07-.118.32-.283.432-.303.28-.05.588-.055.826-.009.108.021.37.224.433.321.127.202.252.852.322 1.496-.011.043-.011.043.16.288.59-.067.59-.067.574-.174a1.17 1.17 0 00.046-.15c.042-.16.07-.253.111-.356.03-.072.06-.134.09-.183.122-.19.434-.319.708-.276.294.045.482.266.5.729.014.38.019.526.02.67v.379c0 .489-.011.793-.04 1.174-.05.653-.136 1.343-.228 1.667-.095.33-.377.95-.6 1.273a13.24 13.24 0 00-.799 1.046c-.244.364-.4.661-.45.905-.067.316-.09.484-.098.666l-.003.101a5.074 5.074 0 01-.009.252c-.005.091-.004.187.004.29.01.145 0 .345 0 .345s-.127-.012-.268-.009a2.571 2.571 0 01-.415-.017c-.143-.023-.53-.507-.728-.883-.302-.577-1.036-.549-1.336-.04-.272.462-.66.917-.775.932-.375.047-.955.052-2.072.033l-.214-.004c-.428-.007-.412.065-.403-.012.025-.22.022-.18 0-.4-.037-.369-.151-.67-.389-.87a13.72 13.72 0 01-.565-.521 19.69 19.69 0 00-.573-.534l-.801-.89c-.088-.113-.86-1.434-1.213-1.946-.137-.198-.188-.263-.714-.911zm9.508.003v3.46c0 .5.75.5.75 0v-3.46c0-.5-.75-.5-.75 0zm-2.031 0l.016 3.473c.002.5.752.496.75-.004L9.91 9.271c-.003-.5-.752-.496-.75.004zm-1.21 3.453l-.02-3.426c-.003-.5-.753-.495-.75.005l.02 3.426c.004.5.754.495.75-.005z"/></g></g></svg>