<svg xmlns="http://www.w3.org/2000/svg" width="29" height="24"><path fill-rule="evenodd" d="M28.5 2.841a10.997 10.997 0 01-3.298.954A6.033 6.033 0 0027.728.444a11.142 11.142 0 01-3.65 1.468C23.031.735 21.537 0 19.884 0c-3.17 0-5.742 2.713-5.742 6.059 0 .474.049.936.147 1.38-4.774-.254-9.006-2.663-11.84-6.333a6.294 6.294 0 00-.778 3.05c0 2.1 1.014 3.955 2.555 5.042a5.526 5.526 0 01-2.603-.756v.075c0 2.936 1.98 5.385 4.61 5.94-.481.142-.99.213-1.514.213-.37 0-.73-.036-1.081-.107.731 2.406 2.851 4.159 5.366 4.205-1.966 1.626-4.444 2.595-7.134 2.595-.464 0-.922-.027-1.371-.083C3.042 22.996 6.063 24 9.306 24 19.873 24 25.65 14.77 25.65 6.762c0-.263-.005-.527-.015-.785A11.99 11.99 0 0028.5 2.841"/></svg>