<?xml version="1.0" standalone="no"?>
<!DOCTYPE svg PUBLIC "-//W3C//DTD SVG 1.1//EN" "http://www.w3.org/Graphics/SVG/1.1/DTD/svg11.dtd" >
<svg xmlns="http://www.w3.org/2000/svg" xmlns:xlink="http://www.w3.org/1999/xlink" version="1.1">
<metadata>
Created by FontForge 20170731 at Fri Nov 16 16:45:39 2018
 By Aleksey,,,
Copyright (c) 2012 by SoftMaker Software GmbH and its licensors. All rights reserved. |DCNT
</metadata>
<defs>
<font id="GascogneSerial-Regular" horiz-adv-x="493" >
  <font-face 
    font-family="Gascogne Serial"
    font-weight="400"
    font-stretch="normal"
    units-per-em="1000"
    panose-1="2 0 0 0 0 0 0 0 0 0"
    ascent="772"
    descent="-228"
    x-height="457"
    cap-height="721"
    bbox="-200 -233 1262 944"
    underline-thickness="50"
    underline-position="-200"
    unicode-range="U+0020-F8FF"
  />
<missing-glyph horiz-adv-x="1000" 
 />
    <glyph glyph-name=".notdef" horiz-adv-x="1000" 
 />
    <glyph glyph-name=".null" horiz-adv-x="0" 
 />
    <glyph glyph-name="nonmarkingreturn" horiz-adv-x="333" 
 />
    <glyph glyph-name="space" unicode=" " horiz-adv-x="290" 
 />
    <glyph glyph-name="exclam" unicode="!" horiz-adv-x="202" 
d="M46 46q-1 29 17.5 49t43.5 20q29 0 48.5 -19.5t19.5 -46.5q0 -26 -19 -44.5t-46 -18.5q-26 0 -44.5 17.5t-19.5 42.5zM91 219l-37 429l-2 16v3q0 12 19 22l73 39q6 3 13 6l3 1h3q15 0 15 -20q0 -9 -1 -12l-41 -486q-2 -16 -6 -22t-15 -6q-12 0 -17 6t-7 24z" />
    <glyph glyph-name="quotedbl" unicode="&#x22;" horiz-adv-x="342" 
d="M26 669q0 26 18.5 44t44.5 18q31 0 49.5 -23.5t18.5 -61.5q0 -46 -27 -86q-15 -24 -40.5 -43t-40.5 -19q-19 0 -19 18q0 4 12 14q42 26 42 59q0 9 -4 13.5t-18 12.5q-36 21 -36 54zM187 669q0 26 18.5 44t44.5 18q31 0 50 -23.5t19 -61.5q0 -47 -27 -86
q-16 -24 -41.5 -43t-40.5 -19q-18 0 -18 18q0 5 12 14q41 27 41 59q0 9 -3.5 13.5t-17.5 12.5q-16 9 -26.5 24.5t-10.5 29.5z" />
    <glyph glyph-name="numbersign" unicode="#" horiz-adv-x="632" 
d="M162 224h-115l11 50h115l36 172h-115l10 50h116l44 210h50l-45 -210h105l44 210h49l-44 -210h115l-10 -50h-115l-37 -172h115l-10 -50h-115l-45 -210h-49l44 210h-104l-45 -210h-49zM259 446l-37 -172h105l36 172h-104z" />
    <glyph glyph-name="dollar" unicode="$" horiz-adv-x="564" 
d="M262 30v308l-60 30q-49 24 -81 45q-80 55 -80 146q0 86 73 135q28 20 55 27.5t71 7.5h24v48q0 11 8 19t19 8t18 -7.5t7 -18.5v-50h4q29 0 34 -2q37 -2 75 -20q18 -4 35 -15q24 -13 34 -63l6 -30q1 -3 1 -12q0 -15 -12 -15q-11 0 -24 18q-30 41 -72.5 69t-74.5 28h-6v-245
q108 -49 145 -76q78 -55 78 -152q0 -99 -73 -163q-30 -26 -60.5 -39t-93.5 -25v-44q0 -14 -7.5 -22.5t-18.5 -8.5t-19 8t-8 20v46q-74 9 -129 29q-26 9 -37 9q-15 0 -22 -12l-5 -10q-4 -4 -11 -4q-9 0 -12.5 5.5t-8.5 26.5l-36 159q-4 17 -4 23q0 18 16 18q11 0 17 -15
q22 -49 37 -70q24 -37 59 -64q30 -24 58.5 -34t80.5 -16zM312 316v-284q68 10 101 43q40 36 40 93t-59 101q-32 24 -82 47zM262 466v220q-35 -2 -52 -7.5t-35 -21.5q-36 -30 -36 -73q0 -70 123 -118z" />
    <glyph glyph-name="percent" unicode="%" horiz-adv-x="690" 
d="M31 552q0 79 43 128.5t111 49.5t110.5 -49.5t42.5 -128.5q0 -78 -42.5 -128t-110.5 -50q-67 0 -110.5 50t-43.5 128zM181 0h-52l385 721h52zM351 163q0 79 43 128.5t111 49.5t110.5 -49.5t42.5 -128.5t-42.5 -128t-110.5 -49t-111 49t-43 128zM185 693q-36 0 -57.5 -38
t-21.5 -103q0 -64 21.5 -102.5t57.5 -38.5q35 0 57 38.5t22 102.5q0 65 -21.5 103t-57.5 38zM505 304q-36 0 -57.5 -38t-21.5 -103q0 -64 21.5 -102t57.5 -38q35 0 57 38.5t22 101.5q0 65 -21.5 103t-57.5 38z" />
    <glyph glyph-name="ampersand" unicode="&#x26;" horiz-adv-x="756" 
d="M176 449q-38 51 -51 86q-11 33 -11 56q0 60 46.5 102t114.5 42q64 0 110 -41.5t46 -99.5q0 -60 -46 -98q-18 -14 -87 -50l212 -303q36 30 53 51.5t37 56.5q41 77 41 154q0 46 -14 65.5t-50 24.5q-20 2 -24.5 6t-4.5 17t7.5 18t28.5 5h111q36 0 36 -22q0 -13 -11 -18
l-14 -6q-13 -5 -18.5 -17.5t-6.5 -40.5q-4 -79 -18 -136q-12 -39 -33 -79q-27 -51 -89 -124q24 -49 75 -49q33 0 55 16q13 6 18 11q8 2 9 2h3q5 0 13 -8q5 -8 5 -14q0 -14 -26 -34q-49 -36 -106 -36q-35 0 -68 14q-22 8 -31.5 15t-23.5 24q-12 -10 -30 -23q-55 -30 -145 -30
q-116 0 -190 67.5t-74 173.5q0 147 151 222zM237 537q20 -31 33 -48q58 21 76 41q16 16 25 35q8 22 8 38q0 38 -25 62.5t-63 24.5q-36 0 -61 -23.5t-25 -57.5q0 -22 32 -72zM428 83l-226 329q-83 -60 -83 -154q0 -84 59.5 -143.5t145.5 -59.5q49 0 79 13q10 4 25 15z" />
    <glyph glyph-name="quotesingle" unicode="'" horiz-adv-x="181" 
d="M26 670q0 26 18 44t44 18q31 0 50.5 -23t19.5 -59q0 -45 -28 -89q-15 -24 -40.5 -43t-40.5 -19q-19 0 -19 18q0 3 12 14q42 25 42 59q0 9 -4 13.5t-18 12.5q-36 21 -36 54z" />
    <glyph glyph-name="parenleft" unicode="(" horiz-adv-x="299" 
d="M31 358q0 225 131 365q29 30 59 49.5t47 19.5q22 0 22 -17v-3q-3 -6 -7 -11q-1 -1 -9 -7.5t-15 -12.5q-63 -57 -99.5 -160t-36.5 -223q0 -117 35 -217q39 -113 100 -167l25 -20q8 -6 8 -13q0 -18 -22 -18q-15 0 -47 20.5t-60 48.5q-62 63 -96.5 159.5t-34.5 206.5z" />
    <glyph glyph-name="parenright" unicode=")" horiz-adv-x="299" 
d="M10 -59v3q3 8 30 31q60 50 98 156.5t38 226.5q0 118 -34 217q-38 114 -101 167l-24 19q-7 7 -7 14q0 17 20 17q16 0 47.5 -20.5t59.5 -48.5q63 -63 97 -158.5t34 -206.5q0 -224 -131 -366q-29 -30 -59 -49.5t-47 -19.5q-21 0 -21 18z" />
    <glyph glyph-name="asterisk" unicode="*" horiz-adv-x="410" 
d="M84 485l103 59l-119 6q-17 1 -28 16.5t-11 36.5q0 16 16 27.5t37 11.5q11 0 20 -6l93 -74l-34 114q0 23 13.5 38.5t33.5 15.5q18 0 31 -16.5t13 -39.5l-39 -112l98 65q28 0 47.5 -7.5t19.5 -18.5q0 -25 -12 -43t-29 -17l-116 3l87 -79q11 -9 11 -27q0 -22 -10.5 -36
t-27.5 -14q-20 0 -34 8.5t-17 20.5l-26 115l-53 -108q-12 -21 -44 -21q-39 0 -39 45q0 28 16 37z" />
    <glyph glyph-name="plus" unicode="+" 
d="M200 322h-179v93h179v181h94v-181h178v-93h-178v-179h-94v179z" />
    <glyph glyph-name="comma" unicode="," horiz-adv-x="181" 
d="M26 58q0 26 18 44t44 18q31 0 50.5 -23t19.5 -59q0 -49 -28 -89q-16 -24 -41 -42.5t-40 -18.5q-19 0 -19 17q0 5 12 14q42 26 42 59q0 10 -4 14.5t-18 12.5q-16 8 -26 23.5t-10 29.5z" />
    <glyph glyph-name="hyphen" unicode="-" horiz-adv-x="272" 
d="M249 203h-224v87h224v-87z" />
    <glyph glyph-name="period" unicode="." horiz-adv-x="177" 
d="M25 49q0 27 17.5 46.5t43.5 19.5q28 0 48 -19.5t20 -46.5q0 -26 -19.5 -44.5t-45.5 -18.5q-27 0 -45.5 18.5t-18.5 44.5z" />
    <glyph glyph-name="slash" unicode="/" horiz-adv-x="463" 
d="M444 728l-394 -764q-8 -17 -20 -17q-8 0 -14 5t-6 11t5 19l396 768q10 19 21 19q21 0 21 -18q0 -9 -9 -23z" />
    <glyph glyph-name="zero" unicode="0" 
d="M25 349q0 161 43 250q26 52 74.5 83.5t103.5 31.5q66 0 122 -45q100 -81 100 -318q0 -161 -43 -250q-26 -53 -74.5 -84t-104.5 -31q-68 0 -121 44q-100 81 -100 319zM155 568q-20 -94 -20 -219q0 -205 44 -284q24 -42 67 -42q68 0 92 109q21 102 21 217q0 208 -44 285
q-25 43 -69 43q-67 0 -91 -109z" />
    <glyph glyph-name="one" unicode="1" 
d="M200 130v21v403q0 59 -26 64l-29 6q-7 2 -11 5q-6 6 -6 10q0 10 5.5 15t20.5 9q21 5 49 18l45 21q9 4 24 4q10 0 17 -3q1 -1 8 -7q6 -3 6 -7v-559q0 -82 46 -85l13 -1q19 -2 19 -22q0 -22 -30 -22h-206q-29 0 -29 22q0 17 18 22l5 1l13 3q48 12 48 82z" />
    <glyph glyph-name="two" unicode="2" 
d="M146 95l118 1q60 0 84 10q38 13 71 53l20 25q6 7 11 7q4 0 9 -3q8 -5 8 -12q0 -1 -2 -11q-24 -59 -43 -86q-30 -44 -63.5 -61.5t-87.5 -17.5h-210q-25 0 -25 14q0 15 22 34q18 18 63 81l70 99q115 162 115 269q0 57 -29.5 89t-80.5 32q-72 0 -135 -84q-9 -9 -13 -9
q-9 0 -15.5 5.5t-6.5 13.5q0 16 19 48.5t45 60.5q56 61 139 61q75 0 122.5 -49t47.5 -124q0 -99 -89 -232q-15 -23 -66 -93q-61 -79 -98 -121z" />
    <glyph glyph-name="three" unicode="3" 
d="M278 396h27q58 0 91.5 -35t33.5 -95q0 -103 -86 -181q-70 -65 -175 -90q-46 -10 -65 -10q-21 0 -21 17q0 14 22 20q98 24 161.5 89t63.5 141q0 89 -86 94l-22 1q-12 0 -12 11q0 12 17 27q83 81 83 149q0 43 -26.5 69t-70.5 26q-29 0 -54 -13q-21 -10 -53 -43
q-18 -18 -28 -18q-15 0 -15 18q0 13 18 38q71 103 176 103q62 0 103.5 -35.5t41.5 -88.5q0 -61 -52 -123q-39 -42 -72 -71z" />
    <glyph glyph-name="four" unicode="4" 
d="M263 183h-222h-15q-20 0 -20 17v5q2 7 6 13l10 17l280 449q19 30 39 30q14 0 18 -7.5t4 -35.5v-399q51 6 75 30l15 15q11 8 16 8q7 0 12 -4.5t5 -9.5t-3 -14l-40 -93q-10 -18 -11 -19q-2 -2 -23 -2h-46v-61q0 -29 7 -50q5 -12 13 -16.5t30 -10.5l5 -1q20 -5 20 -23
q0 -21 -30 -21h-198q-32 0 -32 22q0 19 20 22l5 1l14 4q27 5 36.5 19.5t9.5 52.5v62zM265 274v289l-180 -289h180z" />
    <glyph glyph-name="five" unicode="5" 
d="M197 598l-50 -113q56 0 86.5 -8t63.5 -31q72 -51 72 -150q0 -120 -93 -208q-39 -38 -97 -70q-61 -32 -87 -32q-21 0 -21 15q0 12 23 23q67 29 122 91q59 64 59 140q0 61 -37.5 95.5t-104.5 34.5q-17 0 -24 -1q-5 -1 -14 -1q-16 0 -16 12q0 8 5 20l97 241l9 23q5 9 10 11
q7 4 37 4h97q26 0 44 3q19 4 41 22q9 6 13 6q7 0 10 -3q8 -5 8 -11q0 -4 -5 -14l-28 -66q-10 -23 -15 -27q-8 -6 -40 -6h-165z" />
    <glyph glyph-name="six" unicode="6" 
d="M137 402q38 35 69.5 49.5t70.5 14.5q85 0 139.5 -65.5t54.5 -165.5q0 -111 -60.5 -180t-158.5 -69q-105 0 -169 80t-64 210q0 166 101 287q64 76 181 133q34 18 56 18q9 0 15 -6t6 -14t-7 -12.5t-38 -20.5q-39 -17 -80.5 -58t-69.5 -86q-26 -47 -46 -115zM124 245
q0 -20 1 -31q7 -91 41 -141.5t88 -50.5t84.5 47t30.5 130q0 103 -33.5 161t-93.5 58q-54 0 -86 -46.5t-32 -126.5z" />
    <glyph glyph-name="seven" unicode="7" 
d="M137 0h-15h-63q-13 0 -16.5 1.5t-3.5 6.5q0 4 1 5l2 3q1 2 3.5 6t4.5 8l333 576h-161q-43 0 -77 -9q-25 -10 -42 -38q-2 -3 -4 -5.5t-3 -4.5t-2 -3q-8 -10 -14 -10q-17 0 -17 16v4q0 3 4 18l22 92q4 15 4 17q2 9 5 12q9 4 41 4h283h19q14 0 14 -14q0 -3 -6 -17l-290 -643
q-8 -17 -11.5 -21t-10.5 -4z" />
    <glyph glyph-name="eight" unicode="8" 
d="M159 368q-57 39 -80.5 78t-23.5 90q0 76 56.5 127t141.5 51q84 0 137.5 -47t53.5 -119q0 -60 -40 -103q-19 -23 -72 -55q71 -38 104 -85.5t33 -113.5q0 -90 -64 -148t-164 -58q-95 0 -156 54.5t-61 139.5q0 77 54 131q38 33 81 58zM188 466q36 -26 103 -54q45 38 59 66
q20 37 20 74q0 59 -34.5 94.5t-91.5 35.5q-48 0 -81.5 -30.5t-33.5 -75.5q0 -72 59 -110zM314 283q-34 22 -118 63q-52 -31 -72 -60q-32 -40 -32 -102q0 -69 45.5 -117t113.5 -48q61 0 101 38t40 95q0 77 -78 131z" />
    <glyph glyph-name="nine" unicode="9" 
d="M356 293q-38 -35 -69.5 -49.5t-70.5 -14.5q-85 0 -139.5 65t-54.5 168q0 112 61 182t158 70q105 0 169.5 -80.5t64.5 -210.5q0 -167 -102 -287q-63 -75 -181 -133q-34 -18 -56 -18q-9 0 -15 6t-6 14t7.5 13.5t37.5 20.5q40 19 81 58.5t69 85.5q31 50 46 110zM124 505
q0 -25 1 -37q14 -191 127 -191q54 0 85.5 47t31.5 128q0 102 -36 163.5t-94 61.5q-52 0 -83.5 -47t-31.5 -125z" />
    <glyph glyph-name="colon" unicode=":" horiz-adv-x="199" 
d="M46 49q0 27 18 46.5t44 19.5q28 0 47.5 -19.5t19.5 -46.5q0 -26 -19 -44.5t-46 -18.5q-26 0 -45 18.5t-19 44.5zM46 324q0 27 18 46.5t44 19.5q28 0 47.5 -19.5t19.5 -47.5q0 -26 -19 -44t-46 -18q-26 0 -45 18.5t-19 44.5z" />
    <glyph glyph-name="semicolon" unicode=";" horiz-adv-x="200" 
d="M46 59q0 26 18.5 44t43.5 18q31 0 50 -22.5t19 -59.5q0 -51 -27 -89q-16 -24 -40.5 -42.5t-40.5 -18.5q-18 0 -18 17q0 6 12 14q42 26 42 59q0 16 -23 26q-36 22 -36 54zM46 324q0 28 18 47t44 19q28 0 47.5 -19.5t19.5 -47.5q0 -26 -19 -44t-45 -18t-45.5 18.5
t-19.5 44.5z" />
    <glyph glyph-name="less" unicode="&#x3c;" horiz-adv-x="265" 
d="M181 22l-142 208l142 208q13 21 29 21q17 0 17 -17q0 -13 -6 -25l-88 -187l88 -188q6 -14 6 -24q0 -17 -18 -17q-14 0 -28 21z" />
    <glyph glyph-name="equal" unicode="=" 
d="M474 259h-453v86h453v-86zM474 403h-453v85h453v-85z" />
    <glyph glyph-name="greater" unicode="&#x3e;" horiz-adv-x="265" 
d="M84 438l142 -208l-142 -208q-14 -21 -28 -21q-17 0 -17 17q0 12 5 24l88 188l-88 187q-5 10 -5 24q0 18 17 18q13 0 28 -21z" />
    <glyph glyph-name="question" unicode="?" horiz-adv-x="415" 
d="M116 50q0 27 18 46t44 19q28 0 47 -19.5t19 -45.5q0 -27 -18.5 -45.5t-44.5 -18.5q-27 0 -46 18.5t-19 45.5zM75 584l-20 -24q-9 -9 -17 -9q-21 0 -21 19q0 18 24 55q33 53 79.5 81.5t98.5 28.5q74 0 120 -49.5t46 -129.5q0 -54 -24 -113q-39 -93 -95 -168l-47 -60
q-20 -27 -37 -27q-8 0 -14.5 5.5t-6.5 12.5q0 14 18 33q41 53 77 133q39 89 39 146q0 56 -28.5 88.5t-79.5 32.5q-66 0 -112 -55z" />
    <glyph glyph-name="at" unicode="@" horiz-adv-x="841" 
d="M454 230q-5 -17 -20 -36q-55 -64 -131 -30q-84 39 -77 178q3 30 4 35q17 98 67 155q53 58 110.5 58t84.5 -53q2 -1 3 -5t2 -5l9 57l49 -1l-38 -215l-14 -87q-6 -37 2 -62q5 -18 21.5 -26.5t34.5 -1.5q25 9 57 46q39 46 52 134q14 99 -21.5 176t-108.5 113t-165 23
q-119 -18 -194.5 -121.5t-61.5 -241.5q7 -45 10 -56q19 -77 66.5 -132.5t108.5 -81t133 -19t138 47.5q23 13 49 36q32 27 54 57l20 -36q-11 -15 -25 -29q-115 -121 -266 -121q-155 0 -258 114.5t-91 284.5q7 114 71 201q97 130 246 147q167 18 270 -92t75 -280
q-15 -93 -62 -150t-102 -65q-45 -6 -75.5 19.5t-26.5 64.5zM284 291q1 -37 13 -62q14 -30 46.5 -35.5t56.5 18.5q25 25 47 86q5 14 18 75l2 10l7 42q6 36 1 59q-6 36 -33.5 52t-58.5 4q-26 -10 -44 -34.5t-36 -76.5q-10 -30 -13 -49q-8 -38 -6 -89z" />
    <glyph glyph-name="A" unicode="A" horiz-adv-x="664" 
d="M489 127l-46 111h-280l-45 -111q-14 -34 -14 -53q0 -26 27 -29l14 -3l7 -2q17 -5 17 -22q0 -21 -30 -21h-127q-9 0 -14 5t-5.5 10t-0.5 15q0 3 0.5 5t1.5 3t3 2l3 1.5t5 1.5t6 1l6 1q15 2 27.5 20.5t30.5 64.5l231 572q8 20 13 25t16 5q12 0 17 -4.5t13 -24.5l233 -573
q15 -36 27 -54q11 -15 19 -21q10 -6 17 -7q1 -1 10 -3l5 -2q18 -4 18 -22q0 -21 -29 -21h-188q-29 0 -29 21q0 18 19 23h4q18 4 25 10.5t7 19.5q0 22 -14 56zM300 587l-123 -309h250z" />
    <glyph glyph-name="B" unicode="B" horiz-adv-x="724" 
d="M516 385q199 -44 199 -193q0 -92 -72.5 -142t-204.5 -50h-400q-29 0 -29 31q0 11 19 13l13 1q25 2 35 21.5t10 63.5v461q0 44 -10.5 63t-36.5 22l-9 1q-7 1 -12.5 8t-5.5 16q0 20 29 20h362q117 0 181 -44.5t64 -125.5q0 -75 -62 -126q-25 -20 -70 -40zM198 602v-199
q58 -6 105 -6q120 0 174.5 34t54.5 108q0 146 -202 146q-64 0 -87 -3.5t-33 -16.5q-8 -10 -10 -20.5t-2 -42.5zM312 361q-53 0 -114 -6v-218q0 -42 7.5 -58.5t32.5 -25.5q39 -13 114 -13q247 0 247 157q0 61 -41 101t-119 54q-42 9 -127 9z" />
    <glyph glyph-name="C" unicode="C" horiz-adv-x="731" 
d="M682 606l4 -36v-8q0 -18 -14 -18q-10 0 -22 21q-13 23 -58 64q-74 65 -175 65q-124 0 -201.5 -93.5t-77.5 -242.5q0 -146 76 -237.5t197 -91.5q80 0 153.5 40.5t105.5 100.5q10 20 21 20q4 0 8 -4t4 -9q0 -1 -0.5 -5.5t-0.5 -9.5l-16 -110q-2 -17 -5 -21.5t-11 -4.5
q-4 0 -13 6q-12 12 -19 12q-10 0 -32 -10l-45 -19q-80 -30 -158 -30q-172 0 -275.5 100t-103.5 265q0 167 110 276t279 109q60 0 124.5 -14.5t106.5 -38.5q17 -10 25.5 -26.5t12.5 -49.5z" />
    <glyph glyph-name="D" unicode="D" horiz-adv-x="834" 
d="M86 130v26v435q0 44 -11.5 62.5t-38.5 22.5l-8 1q-19 2 -19 22q0 22 29 22h354q193 0 305 -98.5t112 -268.5q0 -161 -102 -257.5t-273 -96.5h-395q-29 0 -29 22q0 20 19 22l8 1q28 4 38.5 22t10.5 63zM292 685q-67 0 -83.5 -14t-16.5 -72v-460q0 -61 12 -75
q17 -17 41 -21q31 -5 105 -5q61 0 91.5 4t64.5 17q62 23 105 69q82 87 82 224q0 114 -56.5 195.5t-159.5 116.5q-63 21 -185 21z" />
    <glyph glyph-name="E" unicode="E" horiz-adv-x="678" 
d="M363 356h-172v-213q0 -60 12 -81q10 -15 40.5 -19.5t114.5 -4.5q126 0 196 27q63 25 112 85q11 14 18 14q13 0 13 -13v-1q0 -1 -0.5 -2.5t-1 -4t-0.5 -4.5q-18 -51 -45 -89q-22 -30 -44.5 -40t-72.5 -10h-495q-29 0 -29 21q0 8 5.5 15t13.5 8h8q50 7 50 86v461
q0 45 -10.5 63t-39.5 22l-8 1q-18 2 -18 22q0 22 29 22h524h27q17 0 26 -31l18 -58q3 -12 3 -18q0 -13 -14 -13q-6 0 -17 11q-36 39 -92 56.5t-151 15.5l-62 -1q-80 0 -96 -16q-14 -15 -14 -71v-202h173q61 0 82.5 10.5t31.5 44.5q5 21 7.5 25t10.5 4q24 0 24 -22v-5
q0 -21 -2 -46.5t-2 -30.5q0 -35 5 -79v-7q0 -22 -23 -22q-9 0 -13 5.5t-8 21.5q-7 37 -30.5 50t-83.5 13z" />
    <glyph glyph-name="F" unicode="F" horiz-adv-x="606" 
d="M243 48l14 -4l6 -1q18 -3 18 -22q0 -21 -29 -21h-214q-29 0 -29 21q0 18 19 23h6q31 6 42.5 23.5t11.5 61.5v462q0 44 -11 62t-41 23l-7 1q-19 3 -19 22q0 22 29 22h544q23 0 26 -1q5 0 13 -3q7 -5 14 -28l14 -52l4 -16q1 -1 1 -5q0 -15 -12 -15q-10 0 -18 14
q-30 40 -81 53t-178 15l-70 1q-74 0 -89 -13.5t-15 -80.5v-198h169q61 0 87 14t33 49q4 17 8 22t14 5q19 0 19 -20v-5q0 -26 -1 -44.5t-2 -26t-2 -13t-1 -8.5q0 -22 7 -66q1 -3 1 -15q0 -18 -20 -18q-16 0 -23 25q-12 39 -36 52t-84 13h-169v-227q0 -40 11.5 -58t39.5 -23z
" />
    <glyph glyph-name="G" unicode="G" horiz-adv-x="792" 
d="M717 191v-9v-38q0 -2 0.5 -15.5t0.5 -25.5q0 -11 2 -25v-12q0 -15 -39 -31q-124 -50 -243 -50q-188 0 -298 99.5t-110 269.5q0 172 113 277t299 105q46 0 97 -8q105 -21 170 -54q19 -9 27 -24t10 -46l3 -40v-7q0 -19 -13 -19q-10 0 -22 25q-9 17 -32 41t-46 39
q-82 53 -188 53q-137 0 -219.5 -92t-82.5 -244q0 -148 82 -241t214 -93q74 0 127 29q49 28 49 94v35q0 29 -5 51q-6 26 -35 31l-4 1q-19 4 -19 23q0 21 29 21h163q17 0 23 -4.5t6 -15.5q0 -19 -18 -24h-4q-22 -4 -29.5 -19.5t-7.5 -53.5v-3z" />
    <glyph glyph-name="H" unicode="H" horiz-adv-x="818" 
d="M190 591v-203h437v203q0 43 -10.5 62.5t-33.5 22.5l-8 1q-18 2 -18 22q0 21 29 21h192q17 0 23.5 -4.5t6.5 -16.5q0 -18 -19 -22l-4 -1q-32 -9 -42.5 -25t-10.5 -60v-462q0 -45 10 -64t36 -21l12 -1q8 -1 14 -7.5t6 -14.5q0 -21 -29 -21h-195q-29 0 -29 22q0 10 5 14.5
t19 8.5l13 4q32 10 32 80v221h-435v-221q0 -73 35 -81l11 -4l13 -4q11 -7 11 -19q0 -21 -30 -21h-192q-17 0 -23 4.5t-6 18.5q0 7 5 13.5t13 6.5l11 1q27 2 37 21t10 64v462q0 45 -10.5 62t-41.5 23l-5 1q-19 5 -19 22q0 21 29 21h192q30 0 30 -21q0 -17 -20 -22l-7 -1
q-24 -4 -34 -22.5t-10 -62.5z" />
    <glyph glyph-name="I" unicode="I" horiz-adv-x="281" 
d="M44 674l-13 3h-3q-19 4 -19 24t29 20h204q17 0 23 -5t6 -17q0 -17 -18 -22l-7 -1q-30 -5 -41 -22.5t-11 -62.5v-461q0 -41 9 -59t32 -23l13 -4l9 -2q15 -3 15 -20q0 -22 -29 -22h-203q-29 0 -29 21q0 18 18 23l6 1q20 4 31 10q22 17 22 75v461q0 73 -44 83z" />
    <glyph glyph-name="J" unicode="J" horiz-adv-x="292" 
d="M203 591v-399q0 -88 -6.5 -136.5t-24.5 -94.5q-32 -78 -101.5 -128.5t-145.5 -50.5q-51 0 -88 22.5t-37 54.5q0 19 12.5 32.5t31.5 13.5q24 0 42 -26q19 -26 20 -27q20 -24 52 -24q57 0 94 64q26 43 36.5 108t10.5 184v407q0 44 -11.5 63t-38.5 22l-9 1q-19 2 -19 22
q0 22 29 22h204q29 0 29 -22q0 -20 -19 -22l-10 -1q-27 -3 -39 -22.5t-12 -62.5z" />
    <glyph glyph-name="K" unicode="K" horiz-adv-x="778" 
d="M194 591v-301l323 301l25 25q22 22 22 38t-26 20l-14 2l-13 2q-15 3 -15 20q0 14 6 18.5t23 4.5h205q30 0 30 -23q0 -11 -6 -15t-25 -8l-24 -5q-32 -7 -65 -25q-22 -13 -66 -54l-170 -157l52 -63l88 -107q90 -108 113 -134q9 -11 22 -24q48 -52 98 -57q16 -2 19 -4l4 -1
q19 -6 19 -23q0 -21 -29 -21h-123h-24l-14 5q-18 10 -83 90l-88 106l-89 111l-41 50l-134 -125v-107q0 -36 6 -54q5 -15 14 -21t31 -10l6 -1q18 -5 18 -23q0 -21 -29 -21h-200q-29 0 -29 22q0 20 18 22l11 1q26 2 37.5 21.5t11.5 63.5v461q0 81 -50 85l-11 1q-18 2 -18 22
q0 22 29 22h202q29 0 29 -22q0 -17 -19 -22l-5 -1q-22 -4 -32 -10q-20 -15 -20 -75z" />
    <glyph glyph-name="L" unicode="L" horiz-adv-x="624" 
d="M504 0h-466q-29 0 -29 22q0 20 19 22l10 1q28 3 39 21.5t11 63.5l-2 461q0 42 -11.5 61t-39.5 24l-6 1q-19 5 -19 22q0 22 29 22h203q29 0 29 -22q0 -17 -19 -22l-6 -1q-32 -5 -43.5 -23t-11.5 -62l1 -434q0 -46 3.5 -64.5t14.5 -30.5q20 -23 100 -23q88 0 144 13
q102 23 169 99q10 14 20 14q14 0 14 -14q0 -9 -4 -17q-20 -50 -54 -96q-17 -22 -37 -30t-58 -8z" />
    <glyph glyph-name="M" unicode="M" horiz-adv-x="987" 
d="M184 681l322 -574l296 567q15 28 25 38q9 9 32 9h90q29 0 29 -22q0 -17 -19 -22l-3 -1q-24 -5 -33 -11q-22 -13 -22 -74v-462q0 -46 9.5 -63t41.5 -22l6 -1q18 -3 18 -22q0 -21 -29 -21h-195q-29 0 -29 21q0 11 5 15.5t19 7.5l11 4q20 5 29 24t9 58v449l-284 -540
q-14 -26 -21 -32.5t-22 -6.5q-16 0 -22 5.5t-25 37.5l-293 525l-4 -438q0 -35 9 -54q6 -13 15.5 -18.5t37.5 -12.5l4 -1q20 -5 20 -23q0 -21 -29 -21h-144q-29 0 -29 21q0 18 19 23l6 1q31 5 43 23t12 62v461q0 44 -11.5 62.5t-39.5 22.5l-8 1q-7 1 -12.5 8t-5.5 16
q0 20 29 20h85q29 0 36 -7q5 -4 22 -33z" />
    <glyph glyph-name="N" unicode="N" horiz-adv-x="815" 
d="M90 130v494l-21 21q-28 28 -44 34q-12 5 -14 7.5t-2 11.5q0 14 7 18.5t27 4.5h59q21 0 24 -1q2 0 16 -2q9 -4 32 -27l515 -539v439q0 40 -12 59.5t-41 23.5l-15 2l-5 1q-19 5 -19 22q0 22 29 22h151q29 0 29 -22q0 -17 -19 -22l-5 -1q-16 -3 -32 -11q-22 -13 -22 -74
v-566q0 -36 -14 -36q-11 0 -31 22l-555 577v-458q0 -41 10.5 -58.5t38.5 -23.5l14 -3l6 -1q18 -5 18 -22q0 -22 -29 -22h-147q-29 0 -29 22q0 17 18 22l6 1q19 4 32 10q24 15 24 75z" />
    <glyph glyph-name="O" unicode="O" horiz-adv-x="813" 
d="M29 365q0 162 107 266t273 104q164 0 269.5 -106.5t105.5 -271.5t-104 -268t-269 -103q-168 0 -275 106t-107 273zM145 383q0 -17 1 -24q6 -154 77.5 -243t188.5 -89q121 0 188.5 82t67.5 230q0 164 -74 259t-200 95q-117 0 -183 -83t-66 -227z" />
    <glyph glyph-name="P" unicode="P" horiz-adv-x="667" 
d="M243 48l15 -3l5 -1q18 -5 18 -22q0 -22 -29 -22h-214q-29 0 -29 22q0 20 19 22l8 1q29 4 39 21.5t10 63.5v461q0 46 -10 63.5t-39 21.5l-7 1q-19 5 -19 24q0 20 29 20h315q144 0 223.5 -57t79.5 -160q0 -105 -80 -159t-235 -54q-72 0 -151 13v-174q0 -41 11.5 -58.5
t40.5 -23.5zM202 662q-11 -13 -11 -58v-181q0 -39 7 -54t28 -23q31 -12 93 -12q103 0 161.5 45.5t58.5 125.5q0 92 -83 143q-34 20 -69 27t-97 7q-72 0 -88 -20z" />
    <glyph glyph-name="Q" unicode="Q" horiz-adv-x="813" 
d="M446 -14q67 -16 95 -32t83 -71q40 -40 60 -49q20 -11 50 -11q21 0 23 -1q18 -2 18 -22q0 -28 -58 -28q-76 0 -139 30q-50 23 -128 101q-41 41 -82 62q-27 14 -75 34q-65 27 -116 59q-69 45 -108.5 126.5t-39.5 178.5q0 165 105 269t270 104q167 0 273 -106.5t106 -273.5
q0 -177 -126 -285q-44 -38 -87.5 -55.5t-123.5 -29.5zM144 379q0 -4 0.5 -12.5t0.5 -12.5q8 -153 79.5 -241.5t186.5 -88.5q121 0 189.5 83t68.5 227q0 165 -74.5 262t-199.5 97q-116 0 -183.5 -84.5t-67.5 -229.5z" />
    <glyph glyph-name="R" unicode="R" horiz-adv-x="675" 
d="M385 345q63 -25 103 -62q32 -32 86 -106q46 -64 70 -85q38 -37 75 -43q20 -3 26 -8t6 -17q0 -24 -35 -24h-39q-30 0 -49 9q-53 21 -118 95l-48 54l-53 60l-52 59q-59 68 -129 68q-4 0 -34 -2v-213q0 -39 7 -54q5 -14 15 -20t35 -11l5 -1q19 -5 19 -22q0 -22 -30 -22h-207
q-29 0 -29 21q0 22 19 23l11 1q29 5 39.5 23.5t10.5 61.5v461q0 45 -10.5 62.5t-40.5 22.5l-7 1q-18 2 -18 24q0 20 29 20h301q109 0 172 -36q40 -23 62.5 -64t22.5 -90q0 -104 -89 -156q-44 -24 -126 -30zM195 613v-167q0 -33 8 -46q19 -22 117 -22q76 0 123.5 42t47.5 110
q0 75 -53 115t-153 40q-28 0 -55 -5q-21 -5 -28 -18.5t-7 -48.5z" />
    <glyph glyph-name="S" unicode="S" horiz-adv-x="564" 
d="M34 29l-36 159q-4 17 -4 23q0 18 16 18q11 0 17 -15q78 -186 254 -186q74 0 122 39.5t48 100.5q0 41 -26 73q-16 21 -40 36q-21 15 -55 31q-3 2 -64 29q-103 47 -145 76q-80 55 -80 146q0 80 62.5 128t164.5 48q49 0 106.5 -13t89.5 -31q26 -14 35 -64q5 -27 5 -29
q2 -10 2 -11q0 -16 -13 -16q-11 0 -24 18q-36 51 -88 78.5t-109 27.5q-58 0 -97 -31t-39 -77q0 -22 15 -49q14 -20 34.5 -33.5t66.5 -34.5q107 -48 127 -58q87 -42 123.5 -87.5t36.5 -111.5q0 -99 -74 -163t-188 -64q-40 0 -67.5 5t-79.5 23q-4 1 -11 3t-11 4q-8 3 -14 3
q-10 0 -22 -14q-8 -13 -18 -13q-8 0 -11.5 5.5t-8.5 26.5z" />
    <glyph glyph-name="T" unicode="T" horiz-adv-x="667" 
d="M281 130v22v465q0 40 -13 53q-14 14 -60 14q-72 0 -116 -18t-73 -60l-10 -15q-7 -7 -13 -7q-15 0 -15 11q0 6 1 8q1 3 5 19l14 62q5 25 14 31q8 6 39 6h550h26l15 -3q7 -3 9 -11l7 -19l20 -67q5 -17 5 -23q0 -14 -15 -14q-5 0 -9.5 4.5t-16.5 21.5q-28 39 -76 58
q-38 16 -108 16q-46 0 -60.5 -13t-14.5 -53v-488q0 -42 9.5 -59t35.5 -23l13 -3l5 -1q19 -5 19 -22q0 -22 -29 -22h-214q-29 0 -29 22q0 18 18 22l4 1l14 3q27 6 38 23.5t11 58.5z" />
    <glyph glyph-name="U" unicode="U" horiz-adv-x="785" 
d="M758 677l-4 -1l-12 -2q-45 -7 -45 -83v-315q0 -68 -9 -107t-33 -75q-72 -108 -258 -108q-130 0 -219 50q-45 26 -67 66q-14 27 -19.5 56.5t-5.5 87.5v345q0 44 -11 62t-40 23l-7 1q-19 5 -19 24q0 20 29 20h203q28 0 28 -22q0 -20 -18 -22l-10 -1q-27 -3 -38 -21.5
t-11 -63.5v-345q0 -63 17 -104q23 -53 80 -83.5t135 -30.5q235 0 235 247v316q0 44 -11.5 62t-42.5 23l-6 1q-18 5 -18 24q0 20 29 20h137q29 0 29 -22q0 -17 -18 -22z" />
    <glyph glyph-name="V" unicode="V" horiz-adv-x="679" 
d="M537 674l-14 2l-5 1q-19 5 -19 22q0 22 30 22h140q28 0 28 -22q0 -17 -18 -22l-4 -1q-31 -9 -47 -25t-33 -60l-227 -577q-8 -19 -14 -25t-18 -6q-13 0 -19 5.5t-14 25.5l-231 577q-18 45 -32 62.5t-36 22.5l-4 1q-18 5 -18 22q0 22 29 22h186q29 0 29 -22q0 -17 -18 -22
l-6 -1q-18 -3 -24.5 -10t-6.5 -21q0 -18 14 -54l185 -466l185 466q13 30 13 49q0 27 -31 34z" />
    <glyph glyph-name="W" unicode="W" horiz-adv-x="951" 
d="M609 26l-135 372l-135 -375q-8 -24 -14 -30.5t-18 -6.5q-11 0 -17 8t-15 31l-208 566q-16 44 -29.5 62.5t-33.5 22.5l-4 1q-18 5 -18 22q0 22 29 22h168q30 0 30 -22q0 -17 -20 -22l-4 -1q-23 -3 -23 -26q0 -20 14 -59l165 -450l113 313l-50 137q-18 46 -23 54
q-16 27 -40 31l-5 1q-18 5 -18 22q0 22 29 22h174q29 0 29 -22q0 -20 -18 -22l-11 -1q-20 -2 -20 -24q0 -19 16 -61l161 -446l160 446q12 32 12 51q0 17 -7 22.5t-29 11.5l-5 1q-19 5 -19 22q0 22 29 22h123q29 0 29 -22q0 -17 -20 -22l-4 -1q-24 -6 -38 -23.5t-29 -61.5
l-201 -562q-11 -29 -16.5 -35.5t-19.5 -6.5q-19 0 -34 39z" />
    <glyph glyph-name="X" unicode="X" horiz-adv-x="750" 
d="M123 130l206 232l-186 229q-36 42 -49 53q-26 23 -64 32l-5 1q-19 3 -19 22q0 22 30 22h221q29 0 29 -22q0 -17 -18 -22l-5 -1q-27 -6 -27 -19q0 -16 39 -66l125 -153l138 153l21 25q22 25 22 40q0 9 -6 12.5t-27 7.5l-5 1q-19 5 -19 22q0 22 30 22h149q29 0 29 -22
q0 -17 -20 -22l-4 -1q-24 -6 -32 -11q-35 -17 -61 -49l-21 -25l-168 -188l213 -273q25 -33 49 -54q25 -21 71 -32l12 -3q11 -2 11 -20q0 -21 -30 -21h-232q-29 0 -29 21q0 18 18 23l5 1q30 5 30 20q0 14 -20 40l-18 25l-151 196l-172 -196l-21 -25q-19 -22 -19 -38
q0 -15 23 -19q14 -3 16 -3l4 -1q19 -4 19 -23q0 -21 -29 -21h-164q-29 0 -29 21q0 19 19 23l4 1l12 3q36 5 105 82z" />
    <glyph glyph-name="Y" unicode="Y" horiz-adv-x="668" 
d="M292 130v227l-188 234q-37 45 -58.5 62t-51.5 23l-5 1q-19 3 -19 22q0 22 29 22h220q30 0 30 -22q0 -17 -20 -22l-4 -1q-16 -4 -21.5 -7.5t-5.5 -11.5q0 -21 37 -66l151 -190l142 190q31 40 31 60q0 12 -6 16t-31 9l-5 1q-19 5 -19 22q0 22 30 22h140q29 0 29 -22
q0 -17 -18 -22l-5 -1q-42 -10 -80 -60l-18 -25l-179 -243v-218q0 -40 11.5 -58.5t39.5 -23.5l15 -3l4 -1q18 -4 18 -22q0 -22 -29 -22h-215q-29 0 -29 22q0 17 18 22l5 1q23 4 34 10q23 17 23 75z" />
    <glyph glyph-name="Z" unicode="Z" horiz-adv-x="615" 
d="M30 44l421 581q-102 6 -189 6q-89 0 -132 -4q-46 -4 -47 -43q-1 -25 -18 -25t-17 20v3q0 15 0.5 34.5t0.5 24.5v29q0 38 7 45q6 6 41 6h425q21 0 29 -3t8 -12q0 -7 -13 -25l-368 -511q-20 -29 -20 -44q0 -18 63 -20l78 -1l12 -1q78 -7 153 17q55 19 83 57l16 21
q9 11 16 11q19 0 19 -16q0 -11 -47 -101q-34 -60 -61 -77q-25 -16 -84 -16h-354q-23 0 -30 2.5t-7 12.5q0 9 15 29z" />
    <glyph glyph-name="bracketleft" unicode="[" horiz-adv-x="238" 
d="M152 -70l-20 -1q-4 0 -9 -0.5t-9 -0.5q-27 0 -35 10t-8 45v755q0 35 8 44.5t36 9.5h17l20 -1h5h8h8l18 3q7 2 19 2q21 0 21 -19q0 -16 -28 -16h-2h-3q-24 0 -31 -7.5t-7 -32.5v-721q0 -24 7 -32t31 -8h3h2q28 0 28 -16q0 -19 -21 -19q-10 0 -19 3l-18 1q-17 2 -21 1z" />
    <glyph glyph-name="backslash" unicode="\" horiz-adv-x="321" 
d="M173 0l-126 720h76l127 -720h-77z" />
    <glyph glyph-name="bracketright" unicode="]" horiz-adv-x="238" 
d="M106 -71l-22 1q-2 1 -20 -1l-18 -1q-14 -3 -18 -3q-22 0 -22 19q0 16 29 16h2h3q23 0 30.5 8t7.5 32v721q0 25 -7.5 32.5t-30.5 7.5h-3h-2q-29 0 -29 16q0 19 22 19q1 0 3.5 -0.5t7 -1t7.5 -0.5l18 -3h20l22 1h18q27 0 34.5 -9.5t7.5 -44.5v-755q0 -36 -7.5 -45.5
t-35.5 -9.5q-4 0 -9.5 0.5t-7.5 0.5z" />
    <glyph glyph-name="asciicircum" unicode="^" horiz-adv-x="334" 
d="M292 511l-126 61l-124 -61q-13 -5 -20 -5q-9 0 -15.5 7.5t-6.5 18.5q0 13 18 25l114 82q23 17 36 17q8 0 34 -17l114 -82q18 -12 18 -25q0 -11 -6.5 -18.5t-15.5 -7.5q-3 0 -20 5z" />
    <glyph glyph-name="underscore" unicode="_" horiz-adv-x="491" 
d="M407 -30h-360v30h360v-30z" />
    <glyph glyph-name="grave" unicode="`" horiz-adv-x="242" 
d="M158 514l-119 60q-22 12 -29.5 20t-7.5 22q0 16 10 26.5t26 10.5q17 0 41 -18l105 -76q21 -15 21 -26q0 -10 -7 -18t-17 -8t-23 7z" />
    <glyph glyph-name="a" unicode="a" horiz-adv-x="506" 
d="M289 275l45 13v50q0 94 -98 94q-44 0 -78 -18t-34 -40q0 -10 4 -17q5 -19 5 -23q0 -17 -11.5 -27.5t-28.5 -10.5q-19 0 -30.5 13t-11.5 33q0 52 65.5 91t153.5 39q73 0 116 -32q22 -17 31 -40t9 -64v-244q0 -29 2 -34q3 -14 17 -14q9 0 16 6l11 7q5 4 10 4q17 0 17 -18
q0 -11 -14 -25q-37 -32 -82 -32q-57 0 -73 55q-29 -27 -71 -41q-48 -15 -89 -15q-69 0 -107.5 31t-38.5 87q0 55 41.5 87.5t152.5 64.5zM334 163v88q-6 -2 -16.5 -5t-14.5 -5q-62 -20 -112 -40q-23 -11 -41 -26q-29 -24 -29 -66q0 -38 24 -59.5t65 -21.5q65 0 102 47
q22 32 22 88z" />
    <glyph glyph-name="b" unicode="b" horiz-adv-x="584" 
d="M158 59l-15 -18l-27 -33q-16 -19 -30 -19q-22 0 -22 23q0 5 2 19q8 46 8 123v427q0 33 -5.5 47t-19.5 18l-20 5q-17 5 -17 16q0 9 5.5 13t21.5 10q33 9 78 39q13 9 22 9q5 0 11 -3q14 -6 14 -19v-330q39 44 85 65q47 21 93 21q93 0 153 -66.5t60 -169.5q0 -110 -65 -180
t-167 -70q-52 0 -94 19q-24 10 -38.5 20.5t-32.5 33.5zM176 344q-11 -23 -11 -63v-119q0 -42 8 -57q7 -17 23 -30q52 -45 119 -45q68 0 109.5 49.5t41.5 129.5q0 85 -49 139.5t-126 54.5q-38 0 -69.5 -16.5t-45.5 -42.5z" />
    <glyph glyph-name="c" unicode="c" horiz-adv-x="469" 
d="M344 365l-3 17q-12 53 -74 53q-61 0 -99.5 -53t-38.5 -136q0 -86 40 -138t107 -52q76 0 132 67q14 18 18.5 22t11.5 4q4 0 12 -5q5 -5 5 -12q0 -12 -16.5 -37t-38.5 -45q-67 -64 -156 -64q-94 0 -154.5 63.5t-60.5 164.5q0 111 68 184.5t169 73.5q63 0 112 -31.5
t49 -72.5q0 -18 -11.5 -30t-29.5 -12q-35 0 -42 39z" />
    <glyph glyph-name="d" unicode="d" horiz-adv-x="582" 
d="M415 401v180q0 34 -5 47.5t-20 17.5l-19 5q-17 5 -17 16q0 9 5.5 13.5t21.5 9.5q33 9 77 39q14 9 23 9q2 0 11 -3q15 -5 15 -19v-555q0 -43 5 -57q9 -21 39 -26q11 -2 14.5 -5t3.5 -11q0 -16 -21 -21q-37 -7 -85 -40q-17 -12 -27 -12q-20 0 -21 37l-1 37q-8 -6 -18 -14.5
t-13 -10.5q-73 -52 -148 -52q-89 0 -147 65t-58 166q0 108 64 181.5t158 73.5q35 0 74 -14q49 -19 89 -57zM414 141q1 5 1 24v121q0 31 -3 44.5t-13 28.5q-9 13 -29 29q-47 35 -102 35q-68 0 -107.5 -46.5t-39.5 -126.5q0 -88 46.5 -142.5t121.5 -54.5q72 0 109 49
q15 21 16 39z" />
    <glyph glyph-name="e" unicode="e" horiz-adv-x="471" 
d="M400 292l-274 -68q6 -45 14.5 -69.5t25.5 -46.5q41 -56 113 -56q41 0 72.5 17.5t66.5 59.5q9 9 14 9q7 0 12 -4.5t5 -11.5q0 -14 -20 -43q-66 -93 -180 -93q-97 0 -158.5 66t-61.5 170q0 107 67 178.5t167 71.5q70 0 125 -44t55 -99q0 -17 -8 -24t-35 -13zM160 377
q-28 -43 -34 -121l189 58q20 6 28 13t8 19q0 33 -29.5 59t-66.5 26q-59 0 -95 -54z" />
    <glyph glyph-name="f" unicode="f" horiz-adv-x="278" 
d="M254 418h-75v-299q0 -49 9.5 -63.5t41.5 -18.5l9 -1q15 -2 15 -18q0 -18 -25 -18h-187q-25 0 -25 18q0 16 14 18l15 1q25 1 34 17.5t9 63.5v300h-38q-26 0 -26 20q0 19 27 19h37v34q0 81 37 145q26 45 64 72t76 27q33 0 56 -20t23 -49q0 -25 -21 -43q-11 -11 -25 -11
q-10 0 -13 5.5t-3 21.5q-2 53 -34 53q-34 0 -52.5 -49t-18.5 -140q0 -21 1 -46h76q16 0 21.5 -3.5t5.5 -14.5q0 -21 -28 -21z" />
    <glyph glyph-name="g" unicode="g" horiz-adv-x="494" 
d="M77 -9q-49 30 -49 79q0 29 14.5 52t50.5 50q-51 55 -51 123q0 76 53.5 126.5t134.5 50.5q72 0 124 -41q59 44 98 44q27 0 45 -15.5t18 -38.5q0 -17 -10.5 -27.5t-27.5 -10.5q-19 0 -39 19q-17 17 -34 17q-11 0 -31 -10q40 -50 40 -112q0 -77 -52.5 -128t-133.5 -51
q-63 0 -113 33q-42 -31 -42 -66q0 -26 18.5 -41t52.5 -15q32 0 85 12l76 17q37 8 66 8q57 0 89 -31t32 -86q0 -71 -84 -118.5t-210 -47.5q-187 0 -187 103q0 32 13 52t54 53zM128 303v-13q0 -65 28 -103t74 -38q45 0 71.5 35.5t26.5 95.5q0 73 -27.5 116.5t-75.5 43.5
q-45 0 -71 -37t-26 -100zM185 -32q-31 0 -75 11q-40 -34 -40 -75q0 -42 37 -64.5t105 -22.5q82 0 139.5 30.5t57.5 74.5q0 28 -18.5 44t-51.5 16q-24 0 -45 -4l-67 -8q-10 -2 -42 -2z" />
    <glyph glyph-name="h" unicode="h" horiz-adv-x="588" 
d="M172 292v-173q0 -51 5.5 -65.5t26.5 -16.5l14 -1q16 -1 16 -18q0 -18 -26 -18h-168q-26 0 -26 18q0 16 15 18l10 1q26 2 33.5 17.5t7.5 63.5v463q0 33 -5 46.5t-20 18.5l-18 5q-18 5 -18 16q0 9 5.5 13t20.5 10q34 9 78 39q13 9 23 9q2 0 11 -3q15 -5 15 -19v-366
q31 39 68 72q64 50 128 50q37 0 70.5 -16.5t50.5 -44.5q22 -35 22 -120v-173l-1 -23q-4 -53 39 -58l12 -1q15 -2 15 -18q0 -18 -25 -18h-163q-25 0 -25 18q0 16 14 18l10 1q2 0 8 3q12 7 16 13q7 13 7 66v156q0 58 -13 83q-23 42 -83 42q-52 0 -95 -40q-27 -25 -55 -68z" />
    <glyph glyph-name="i" unicode="i" horiz-adv-x="255" 
d="M215 0h-174q-26 0 -26 18q0 16 15 17l9 2q25 3 33 15q1 2 2 4.5t2.5 7l2.5 7.5q4 20 4 47v196q0 32 -5.5 45.5t-20.5 18.5l-18 5q-18 5 -18 16q0 9 5.5 13.5t21.5 9.5q37 11 77 39q13 9 23 9q11 0 18.5 -6t7.5 -15v-331q0 -38 2 -47q3 -17 11.5 -24.5t28.5 -9.5l10 -2
q14 -3 14 -17q0 -18 -25 -18zM59 606q0 26 18 45t44 19t45 -19t19 -46q0 -25 -18.5 -43t-44.5 -18t-44.5 18t-18.5 44z" />
    <glyph glyph-name="j" unicode="j" horiz-adv-x="235" 
d="M81 -18l1 48v284q0 32 -5 45.5t-20 18.5l-18 5q-18 5 -18 16q0 9 5.5 13t21.5 10q37 11 77 39q13 9 23 9q25 0 25 -21v-391q0 -67 -10 -109.5t-35 -81.5q-52 -85 -129 -85q-31 0 -54 18.5t-23 43.5q0 14 7.5 23t20.5 9q20 0 33 -31q7 -24 29 -24q23 0 39 25q30 44 30 136
zM58 605q0 27 18 46t44 19t44 -19t18 -46q0 -25 -18.5 -42.5t-44.5 -17.5t-43.5 17.5t-17.5 42.5z" />
    <glyph glyph-name="k" unicode="k" horiz-adv-x="538" 
d="M173 716v-522l145 139l25 24l22 27q11 11 11 22q0 17 -22 17h-11q-17 2 -17 17q0 17 22 17h150q15 0 19.5 -3t4.5 -14q0 -16 -16 -17h-11q-15 0 -43 -15l-25 -19q-44 -37 -52 -45l-66 -66l36 -44l52 -68l38 -47q33 -39 42 -48q28 -29 61 -34l12 -2q14 -3 14 -16
q0 -11 -5.5 -15t-19.5 -4h-100h-16l-9 3q-10 10 -23 26l-149 187l-70 -67v-31q0 -49 7.5 -64.5t34.5 -17.5l10 -1q14 -2 14 -17q0 -11 -5 -14.5t-20 -3.5h-173q-15 0 -20.5 3.5t-5.5 14.5q0 16 15 17l13 1q24 2 31.5 17.5t7.5 64.5v463q0 33 -5 46.5t-20 18.5l-18 5
q-19 4 -19 15q0 9 5.5 13.5t21.5 10.5q29 8 78 39q13 9 23 9q2 0 11 -3q15 -5 15 -19z" />
    <glyph glyph-name="l" unicode="l" horiz-adv-x="253" 
d="M214 0h-174q-26 0 -26 18q0 16 15 18l14 1q23 2 30.5 17.5t7.5 64.5v462q0 33 -5.5 46.5t-20.5 18.5l-18 5q-18 5 -18 15q0 9 5.5 13.5t20.5 10.5q34 9 78 39q13 9 23 9q2 0 11 -3q16 -4 16 -19v-598q0 -45 8 -62t30 -19l14 -1q14 -2 14 -18q0 -18 -25 -18z" />
    <glyph glyph-name="m" unicode="m" horiz-adv-x="874" 
d="M173 298v-180q0 -48 6 -64t25 -17l13 -1q14 -2 14 -18q0 -18 -25 -18h-165q-25 0 -25 18q0 16 15 18l14 1q22 2 29.5 18.5t7.5 63.5v195q0 32 -5 45.5t-20 18.5l-18 5q-18 5 -18 16q0 9 5.5 13.5t21.5 9.5q37 11 77 39q13 9 23 9t17 -6t7 -15v-93q38 55 84.5 85.5
t91.5 30.5q62 0 98 -42q23 -25 33 -81q35 50 63 75q56 48 122 48q68 0 106 -48q29 -40 29 -117v-188q0 -48 6.5 -64.5t26.5 -17.5l13 -1q16 -1 16 -18q0 -18 -25 -18h-161q-26 0 -26 18q0 17 15 17l17 2q13 0 21 15q5 18 5 66v171q0 60 -21 87t-67 27q-78 0 -137 -109v-176
q0 -48 6.5 -64t26.5 -18l9 -1q14 -2 14 -17q0 -11 -5 -14.5t-19 -3.5h-149q-14 0 -19 3.5t-5 14.5q0 15 14 17l9 1q17 2 22.5 18t5.5 64v159q0 67 -18 92q-21 33 -69 33q-76 0 -132 -104z" />
    <glyph glyph-name="n" unicode="n" horiz-adv-x="591" 
d="M175 289v-170q0 -49 5.5 -64.5t23.5 -17.5l12 -1q14 -2 14 -18q0 -18 -25 -18h-164q-25 0 -25 18q0 16 15 18l11 1q25 4 33 16q8 18 8 65v196q0 32 -5.5 46t-19.5 18l-18 5q-18 5 -18 16q0 9 5.5 13.5t21.5 9.5q36 10 77 39q14 9 23 9q10 0 17.5 -6.5t7.5 -14.5v-101
q7 8 18.5 21.5t15.5 18t12 12.5t14 13.5t14 11.5q59 47 124 47q70 0 113 -53q16 -20 21 -43t5 -71l1 -186v-24q0 -30 9 -43t30 -15l12 -1q15 -2 15 -18q0 -18 -24 -18h-167q-25 0 -25 18q0 13 14 18l10 1q21 1 27 15q8 18 8 66v171q0 52 -17 77q-23 35 -75 35q-30 0 -55 -13
q-20 -11 -43 -29q-22 -22 -56 -70z" />
    <glyph glyph-name="o" unicode="o" horiz-adv-x="547" 
d="M30 214q-1 5 -1 16q0 106 68 174t173 68q110 0 179 -69t69 -180q0 -106 -67 -171.5t-175 -65.5q-105 0 -172.5 63t-73.5 165zM129 256q0 -22 3 -44q10 -89 49.5 -138.5t100.5 -49.5q62 0 97.5 47t35.5 128q0 105 -42 168.5t-111 63.5q-61 0 -97 -47t-36 -128z" />
    <glyph glyph-name="p" unicode="p" horiz-adv-x="585" 
d="M169 59v-144q0 -48 8.5 -63.5t38.5 -17.5l10 -3q15 -1 15 -16q0 -18 -26 -18h-179q-25 0 -25 18q0 11 6 14l19 2l8 3q22 4 28 34l3 24l1 23l1 20v379q0 32 -5.5 46t-19.5 18l-20 5q-6 2 -11.5 7t-5.5 9q0 9 5.5 13t20.5 10q37 10 78 39q13 9 24 9q10 0 17.5 -7.5
t7.5 -16.5v-60q31 29 35 32q62 54 141 54q91 0 151 -67.5t60 -168.5q0 -107 -64.5 -178.5t-160.5 -71.5q-47 0 -95 23q-37 18 -66 50zM189 358q-18 -29 -20 -33v-152q0 -62 40.5 -100t107.5 -38q66 0 107.5 48t41.5 126q0 82 -50.5 140.5t-121.5 58.5q-68 0 -105 -50z" />
    <glyph glyph-name="q" unicode="q" horiz-adv-x="582" 
d="M428 400l22 26l22 30q11 14 23 14q22 0 22 -28q0 -6 -2 -36q-3 -26 -3 -64v-427q0 -16 2 -23q0 -10 2 -24q4 -33 34 -34l12 -2q15 -3 15 -17q0 -18 -25 -18h-177q-26 0 -26 18q0 15 15 16l14 1q25 2 34 19.5t9 63.5v157l-39 -36q-58 -50 -142 -50q-91 0 -151 66t-60 167
q0 108 67.5 180.5t166.5 72.5q40 0 79 -14q45 -17 86 -58zM410 117q11 22 11 64v121q0 57 -39.5 91.5t-105.5 34.5q-70 0 -114 -49t-44 -128q0 -84 50 -140t124 -56q39 0 71 16.5t47 45.5z" />
    <glyph glyph-name="r" unicode="r" horiz-adv-x="388" 
d="M176 449v-85q72 108 144 108q31 0 55.5 -21t24.5 -49q0 -20 -14 -33t-35 -13q-18 0 -34 20q-3 7 -9 13q-14 17 -31 17q-21 0 -49 -28q-27 -29 -41 -58q-8 -17 -9.5 -28t-1.5 -49v-125q0 -45 9 -62t36 -19l8 -1q15 -2 15 -18q0 -18 -26 -18h-177q-26 0 -26 18q0 16 15 17
l8 2l23 3q24 3 24 78v196q0 33 -5 46.5t-19 17.5l-19 5q-18 5 -18 16q0 9 5.5 13t21.5 10q37 10 78 39q13 9 22 9q10 0 17.5 -6.5t7.5 -14.5z" />
    <glyph glyph-name="s" unicode="s" horiz-adv-x="396" 
d="M182 305l39 -17q69 -31 88 -44q63 -41 63 -109q0 -65 -51 -107t-129 -42q-53 0 -98 15.5t-58 38.5q-10 17 -20 56q-7 27 -7 40q0 16 16 16q10 0 17 -16q30 -58 67.5 -83.5t90.5 -25.5q46 0 75.5 21.5t29.5 56.5q0 19 -16 39q-15 13 -27 20t-41 20q-1 0 -14.5 5.5
t-25.5 10.5q-67 29 -96 49q-50 35 -50 96q0 57 42.5 92t113.5 35q41 0 81.5 -13t58.5 -33q4 -4 12 -20q0 -1 1 -4t2.5 -10t3.5 -13q7 -23 7 -28q0 -16 -15 -16q-5 0 -14 11q-55 85 -139 85q-36 0 -57 -15.5t-21 -42.5q0 -23 14 -36.5t57 -31.5z" />
    <glyph glyph-name="t" unicode="t" horiz-adv-x="348" 
d="M76 164v255h-33q-25 0 -25 16q0 10 16 19q23 13 49.5 45.5t44.5 70.5q11 20 23 20q10 0 12.5 -5t2.5 -21v-107h139q16 0 21.5 -3.5t5.5 -15.5q0 -19 -27 -19h-139v-251q0 -54 11 -84q7 -17 25 -28t41 -11q41 0 87 41q19 18 28 18q6 0 12 -6t6 -13q0 -13 -22 -35
q-64 -64 -139 -64q-41 0 -66 13q-30 13 -50 43q-23 34 -23 122z" />
    <glyph glyph-name="u" unicode="u" horiz-adv-x="582" 
d="M415 30v77q-34 -44 -61 -65q-67 -56 -135 -56q-77 0 -117 56q-16 25 -22 50.5t-6 73.5v148q0 32 -5.5 46t-19.5 18l-19 5q-18 6 -18 16q0 9 5.5 13.5t21.5 9.5q36 10 78 39q13 9 22 9q10 0 17 -6t7 -15v-271q0 -123 96 -123q31 0 56 13q27 13 47 31q29 24 53 65v150
q0 32 -5 45.5t-20 18.5l-18 5q-18 5 -18 16q0 9 5.5 13.5t21.5 9.5q37 11 77 39q14 9 23 9q11 0 18.5 -6.5t7.5 -14.5v-303q0 -42 9 -58t35 -21q12 -2 15 -4.5t3 -10.5q0 -15 -25 -22q-34 -10 -80 -38q-15 -9 -26 -9q-14 0 -20 8q-3 7 -3 39z" />
    <glyph glyph-name="v" unicode="v" horiz-adv-x="492" 
d="M175 339l96 -233l106 233q21 45 21 60q0 11 -7.5 16t-27.5 7l-9 1q-15 1 -15 17q0 11 5 14t20 3h121q15 0 20 -3t5 -14q0 -14 -14 -17l-10 -1q-24 -4 -34 -17q-15 -15 -39 -66l-144 -321q-8 -18 -14 -24t-15 -6q-16 0 -30 33l-133 318q-1 2 -9.5 21.5t-12.5 26.5
q-17 31 -50 35l-9 1q-14 2 -14 17q0 10 5 13.5t19 3.5h173q15 0 20 -3t5 -14q0 -12 -15 -17l-8 -2q-16 -4 -20.5 -8t-4.5 -15q0 -15 19 -59z" />
    <glyph glyph-name="w" unicode="w" horiz-adv-x="707" 
d="M435 22l-83 199l-83 -197q-8 -20 -15.5 -27.5t-19.5 -7.5q-23 0 -38 36l-133 314q-18 43 -21 48q-16 33 -30 35l-9 1q-15 1 -15 17q0 11 5 14t20 3h145q16 0 21 -3t5 -14q0 -16 -15 -17l-9 -1q-18 -2 -18 -18q0 -18 19 -63l103 -249l71 174l-30 75q-30 77 -56 82l-9 1
q-15 2 -15 16q0 11 5 14t20 3h166q15 0 20 -3t5 -14q0 -15 -14 -17l-10 -1q-31 -3 -31 -23q0 -15 18 -58l98 -243l102 243q18 41 18 57q0 11 -8 16.5t-28 7.5l-10 1q-14 2 -14 17q0 17 25 17h107q15 0 20 -3t5 -14q0 -15 -14 -17l-10 -1q-14 -2 -26 -19t-31 -62l-133 -317
q-8 -20 -15.5 -27t-20.5 -7q-14 0 -20 5.5t-14 26.5z" />
    <glyph glyph-name="x" unicode="x" horiz-adv-x="504" 
d="M290 116l-61 80l-73 -87q-36 -42 -36 -56q0 -8 5.5 -10.5t29.5 -6.5l7 -1q15 -1 15 -17q0 -18 -25 -18h-134q-22 0 -22 17t17 19l10 1q11 0 30 16q6 3 21 18q8 12 22 24l21 23l89 107l-90 114l-17 21q-51 61 -59 62l-10 1q-16 0 -16 17t24 17h190q23 0 23 -16
q0 -17 -15 -18l-9 -1q-17 -2 -23 -6t-6 -12q0 -13 31 -58l50 -67l59 67q41 48 41 60t-27 16l-7 1q-15 1 -15 16q0 11 4.5 14.5t17.5 3.5h122h7q15 0 15 -17q0 -15 -17 -17l-9 -1q-13 -2 -32 -18q-4 -3 -20 -19l-2 -3q-2 -2 -7.5 -8.5t-11.5 -12.5l-19 -20l-75 -89l102 -135
l18 -22q4 -6 10.5 -13.5t8.5 -10.5q4 -3 19 -18q14 -14 28 -16l9 -1q18 -2 18 -18q0 -18 -24 -18h-194q-26 0 -26 17t18 19l9 1q29 3 29 17q0 4 -8 18l-15 23z" />
    <glyph glyph-name="y" unicode="y" horiz-adv-x="491" 
d="M218 -104l34 103l-175 340q-2 3 -12.5 22.5t-13.5 25.5q-20 32 -46 35l-9 1q-14 2 -14 17q0 10 5 13.5t19 3.5h182q25 0 25 -17q0 -15 -14 -17l-10 -1q-30 -4 -30 -22q0 -15 22 -61l113 -227l84 227q17 42 17 59q0 20 -31 24l-8 1q-15 1 -15 16q0 11 5 14.5t20 3.5h118
q25 0 25 -17q0 -15 -14 -17l-10 -1q-26 -3 -37 -17q-16 -13 -35 -66l-167 -460q-34 -97 -124 -97q-41 0 -72 22t-31 52q0 16 11 26.5t27 10.5q23 0 35 -19l6 -17q15 -33 45 -33q23 0 43.5 19.5t31.5 52.5z" />
    <glyph glyph-name="z" unicode="z" horiz-adv-x="464" 
d="M414 414l-300 -333q49 -3 111 -3q78 0 107 6q44 8 66 34l15 18q7 9 16 9q19 0 19 -19t-21 -59q-20 -36 -56 -53q-25 -14 -92 -14h-229q-20 0 -28.5 4.5t-8.5 16.5q0 10 21 32l262 289q15 16 15 26t-42 11l-60 2h-9q-48 0 -68 -4q-17 -2 -24.5 -10.5t-11.5 -28.5
q-5 -23 -20 -23q-21 0 -21 22v85v19q0 8 6 11q5 5 32 5h305h19q13 -1 13 -16q0 -9 -16 -27z" />
    <glyph glyph-name="braceleft" unicode="{" horiz-adv-x="342" 
d="M47 360q28 2 45.5 21.5t17.5 50.5v330q0 71 81 71h78v-45h-12q-35 0 -46.5 -11.5t-11.5 -46.5v-290q0 -31 -20 -54t-51 -26q31 -3 51 -26t20 -54v-290q0 -35 11.5 -46.5t46.5 -11.5h12v-45h-78q-81 0 -81 71v330q0 31 -17.5 50.5t-45.5 21.5z" />
    <glyph glyph-name="bar" unicode="|" horiz-adv-x="184" 
d="M123 0h-76v720h76v-720z" />
    <glyph glyph-name="braceright" unicode="}" horiz-adv-x="342" 
d="M125 -113h-78v45h12q35 0 46.5 11.5t11.5 46.5v290q0 31 20 54t51 26q-31 3 -51 26t-20 54v290q0 35 -11.5 46.5t-46.5 11.5h-12v45h78q81 0 81 -71v-330q0 -31 17.5 -50.5t45.5 -21.5q-28 -2 -45.5 -21.5t-17.5 -50.5v-330q0 -71 -81 -71z" />
    <glyph glyph-name="asciitilde" unicode="~" horiz-adv-x="375" 
d="M3 796q-1 2 -1 8q0 19 22 34q37 28 84 28q20 0 61 -13q57 -19 98 -19q29 0 61 18q16 9 19 9q8 0 19 -13q7 -10 7 -21q0 -20 -15 -30q-16 -14 -40.5 -24t-43.5 -10q-26 0 -80 15l-38 10q-22 6 -50 6q-23 0 -47 -12q-8 -6 -19 -10q-2 -2 -12 -2q-22 0 -25 26z" />
    <glyph glyph-name="nbspace" unicode="&#xa0;" horiz-adv-x="290" 
 />
    <glyph glyph-name="exclamdown" unicode="&#xa1;" horiz-adv-x="231" 
d="M64 672q0 26 19 44.5t46 18.5q26 0 44.5 -17.5t18.5 -42.5q0 -29 -18 -49t-43 -20q-28 0 -47.5 19.5t-19.5 46.5zM148 502l36 -428l2 -17q1 -1 1 -3q0 -12 -21 -23l-72 -37l-16 -8q-1 -1 -2 -1q-17 0 -17 20q0 3 1 7t1 6l41 486q3 27 22 27q14 0 18 -5.5t6 -23.5z" />
    <glyph glyph-name="cent" unicode="&#xa2;" horiz-adv-x="464" 
d="M231 469v30q0 24 21 24q11 0 14.5 -5t3.5 -20v-28q46 -4 70.5 -12.5t47.5 -28.5q34 -28 34 -61q0 -18 -12 -30t-29 -12q-36 0 -43 39l-3 17q-7 45 -65 49v-374q28 1 49 7q44 11 83 59q15 18 19.5 22t10.5 4q7 0 12 -5q6 -4 6 -12q0 -12 -18 -37q-18 -26 -37 -45
q-30 -28 -55 -40t-73 -22v-32q0 -9 -5 -17q-8 -9 -17 -9q-19 0 -19 26v31q-53 6 -78.5 16.5t-55.5 37.5q-68 64 -68 173q0 120 75 192q30 29 55.5 41t76.5 22zM227 69v357q-28 -12 -41 -22.5t-27 -32.5q-37 -55 -37 -123q0 -74 39 -131q13 -19 26 -28.5t40 -19.5z" />
    <glyph glyph-name="sterling" unicode="&#xa3;" horiz-adv-x="520" 
d="M191 135l12 -5q12 44 12 69q0 18 -3 36q-6 41 -40 106h-98q-9 0 -15 6t-6 16q0 11 7 17.5t17 6.5h71q-3 7 -9 18.5t-8 15.5q-32 62 -32 127q0 82 54 138t132 56q62 0 106 -35q18 -12 39 -40q32 -40 32 -66q0 -8 -5.5 -14t-13.5 -6q-9 0 -18 11q-56 63 -107 63
q-47 0 -77.5 -36.5t-30.5 -93.5q0 -7 2 -29q8 -48 31 -108h182q10 0 17 -7t7 -17t-7 -16.5t-17 -6.5h-163q23 -80 23 -124q0 -49 -28 -107q41 -20 79 -20q30 0 60 13q23 9 42 25q0 -1 5.5 4.5l21.5 21.5q9 9 18 9q8 0 14 -7t6 -17q0 -25 -23 -60q-57 -88 -161 -88
q-21 0 -51 7q-35 9 -66 32q-27 -23 -47 -32t-46 -9q-41 0 -66.5 24.5t-25.5 63.5q0 36 24.5 61t61.5 25q33 0 61 -14zM108 43q19 0 50 22q-45 36 -61 36q-11 0 -18 -8t-7 -19q0 -31 36 -31z" />
    <glyph glyph-name="currency" unicode="&#xa4;" horiz-adv-x="495" 
d="M47 213l62 61q-29 39 -29 87t28 87l-60 58q13 20 31 35l62 -62q39 29 87.5 29.5t87.5 -28.5l61 62q17 -12 27 -26q2 -2 4 -6q2 -2 3 -4l-62 -58q29 -39 28.5 -87.5t-29.5 -87.5l62 -62l-7 -8l-8 -7q-12 -12 -19 -17l-60 62q-39 -29 -87.5 -29.5t-86.5 29.5l-63 -61
q-17 12 -32 33zM129 360q0 -42 29 -70.5t71 -28.5q41 0 70 29t29 70t-29 70t-70 29q-42 0 -71 -28.5t-29 -70.5z" />
    <glyph glyph-name="yen" unicode="&#xa5;" horiz-adv-x="805" 
d="M67 440h229l-124 151l-20 24q-8 13 -28 29q-26 26 -61 32l-6 1q-18 3 -18 22q0 22 29 22h220q29 0 29 -22q0 -17 -19 -22l-5 -1q-27 -6 -27 -19q0 -21 37 -66l152 -190l142 190q31 40 31 60q0 11 -6 15t-32 10l-4 1q-20 5 -20 22q0 22 30 22h141q29 0 29 -22
q0 -18 -19 -22l-4 -1q-12 -1 -29 -11q-14 -6 -26 -20q-14 -14 -44 -54l-111 -154h205v-60h-250l-22 -29l-1 -17h271v-59h-270v-142q0 -39 11.5 -57.5t39.5 -24.5l14 -3l4 -1q20 -5 20 -22q0 -22 -30 -22h-216q-29 0 -29 22q0 17 19 22l5 1q24 5 33 10q24 15 24 75v145h-294
v61h294v21l-17 21h-277v62z" />
    <glyph glyph-name="section" unicode="&#xa7;" horiz-adv-x="543" 
d="M129 450q-53 57 -53 101q0 77 58.5 129.5t144.5 52.5q103 0 174 -53q39 -28 39 -41q0 -10 -20 -22l-18 -11q-8 -3 -20 -19q-9 -12 -20 -12q-16 0 -17 21q-2 27 -9.5 41t-25.5 29q-30 24 -72 24q-49 0 -82 -27t-33 -69q0 -37 29 -62t130 -76q80 -39 115 -69
q60 -52 60 -126q0 -39 -23 -77q-20 -35 -74 -75q35 -35 46.5 -57t11.5 -55q0 -78 -64.5 -129t-163.5 -51q-90 0 -160 51q-11 8 -26 25q-11 18 -11 22q0 3 8 9q5 5 10 7q12 6 20 17l18 21q12 13 23 13q10 0 14 -4.5t6 -17.5q5 -44 38.5 -71t81.5 -27q45 0 77.5 27.5
t32.5 66.5q0 36 -32.5 63.5t-142.5 83.5q-66 34 -109 68q-55 47 -55 123q0 46 24 87q22 34 70 69zM186 240l65 -35l51 -27l33 -18l31 -18q10 -6 18 -6t21 10q32 23 32 58q0 37 -26.5 67.5t-88.5 63.5l-68 37l-44 26q-42 24 -53 24q-5 0 -21 -12q-29 -29 -29 -67
q0 -61 79 -103z" />
    <glyph glyph-name="dieresis" unicode="&#xa8;" horiz-adv-x="256" 
d="M-16 562q0 24 16 40t39 16t39.5 -16t16.5 -40q0 -23 -16.5 -39t-39.5 -16t-39 16t-16 39zM160 562q0 24 16.5 40t39.5 16t39.5 -16t16.5 -40q0 -23 -16.5 -39t-39.5 -16t-39.5 16t-16.5 39z" />
    <glyph glyph-name="copyright" unicode="&#xa9;" horiz-adv-x="932" 
d="M58 361q0 155 109 264q111 109 264 109t264 -109q109 -109 109 -264t-109 -264q-110 -110 -264 -110t-264 110q-109 109 -109 264zM108 361q0 -134 96 -233q94 -94 227 -94t228 94q96 96 95.5 232t-95.5 233q-94 95 -228 95t-227 -95q-96 -99 -96 -232zM605 544l-30 -44
q-36 33 -88 44q-90 18 -158 -39.5t-66 -151.5q0 -19 3 -37q12 -62 59.5 -103t106 -45t117.5 28q13 9 24 18l31 -43q-65 -54 -155 -57q-85 -2 -151 46t-86.5 123t7.5 164q30 81 105 124t165 27q65 -11 116 -54z" />
    <glyph glyph-name="ordfeminine" unicode="&#xaa;" horiz-adv-x="482" 
d="M57 279v61h342v-61h-342zM329 659l3 -7v68h66l1 -331h-67v73l-3 -8q-18 -47 -71 -65t-112 5q-79 31 -96 124q-18 96 43.5 162t143.5 48q57 -13 87 -61zM115 556q0 -12 3 -23q11 -50 46 -74q62 -43 122 1q34 24 45 72q5 24 0 48q-12 60 -62 83q-45 20 -87 1
q-53 -24 -65 -87q-2 -14 -2 -21z" />
    <glyph glyph-name="guillemotleft" unicode="&#xab;" horiz-adv-x="424" 
d="M181 22l-142 208l142 208q13 21 29 21q17 0 17 -17q0 -13 -6 -25l-88 -187l88 -188q6 -14 6 -24q0 -17 -18 -17q-14 0 -28 21zM339 22l-142 208l142 208q13 21 29 21q17 0 17 -17q0 -13 -6 -25l-88 -187l88 -188q6 -10 6 -24q0 -17 -17 -17q-15 0 -29 21z" />
    <glyph glyph-name="logicalnot" unicode="&#xac;" horiz-adv-x="627" 
d="M470 360h-423v76h486v-220h-63v144z" />
    <glyph glyph-name="registered" unicode="&#xae;" horiz-adv-x="932" 
d="M58 361q0 155 109 264q111 109 264 109t264 -109q109 -109 109 -264t-109 -264q-110 -110 -264 -110t-264 110q-109 109 -109 264zM108 361q0 -134 96 -233q94 -94 227 -94t228 94q96 96 95.5 232t-95.5 233q-94 95 -228 95t-227 -95q-96 -99 -96 -232zM374 131h-60v469
h110q70 0 105 -28q33 -27 42 -72q11 -62 -17.5 -103.5t-86.5 -49.5q-3 0 -8 -0.5t-8 -0.5l147 -215h-71l-153 231v-231zM374 550v-168h39q98 0 100 83q1 40 -23 62.5t-71 22.5h-45z" />
    <glyph glyph-name="macron" unicode="&#xaf;" horiz-adv-x="330" 
d="M321 516h-311v71h311v-71z" />
    <glyph glyph-name="plusminus" unicode="&#xb1;" horiz-adv-x="594" 
d="M44 87h462v-68h-462v68zM241 453h68v-122h197v-68h-197v-122h-68v122h-197v68h197v122z" />
    <glyph glyph-name="acute" unicode="&#xb4;" horiz-adv-x="226" 
d="M205 572l-124 -61q-11 -6 -22 -6q-9 0 -15.5 7.5t-6.5 17.5q0 15 18 27l113 80q20 14 33 14q17 0 28 -10.5t11 -27.5q0 -24 -35 -41z" />
    <glyph glyph-name="mu" unicode="&#xb5;" horiz-adv-x="623" 
d="M74 449h92v-296q0 -70 14 -95q14 -24 50 -24q57 -2 95 80q38 84 38 205v130h92v-328q0 -45 9 -66q9 -19 29 -21q20 0 32 21q11 20 11 61v14h21q0 -6 1 -9v-13q0 -56 -24 -87q-22 -30 -66 -30q-47 -1 -76 43q-25 41 -26 129q-22 -88 -61 -130q-37 -40 -97 -42
q-44 0 -73 26q-28 25 -40 77q0 -3 -0.5 -12t-0.5 -16q-1 -60 32 -141q32 -79 32 -92q0 -20 -11 -31t-31 -11q-22 -1 -33 17q-9 15 -10 53q0 3 0.5 10t1 20.5t0.5 27.5q2 64 2 89q0 57 -1 101q-2 88 -2 95v245z" />
    <glyph glyph-name="paragraph" unicode="&#xb6;" horiz-adv-x="644" 
d="M240 720h309v-52h-309q-58 0 -100 -43t-40 -102q0 -59 41.5 -100t98.5 -41h69v242h55v-624h-55v330h-69q-80 0 -136.5 57t-56.5 138t56.5 138t136.5 57zM485 0h-55v624h55v-624z" />
    <glyph glyph-name="periodcentered" unicode="&#xb7;" horiz-adv-x="206" 
d="M39 230q0 27 18 46.5t44 19.5q27 0 47 -19.5t20 -47.5q0 -26 -19 -44.5t-45 -18.5q-27 0 -46 19t-19 45z" />
    <glyph glyph-name="cedilla" unicode="&#xb8;" horiz-adv-x="149" 
d="M-19 -203l5 24q7 -2 23 -2q30 0 49 14t19 35q0 17 -9 27t-34 21l51 93h30l-25 -61q43 -24 43 -67q0 -38 -31.5 -63.5t-78.5 -25.5q-14 0 -42 5z" />
    <glyph glyph-name="ordmasculine" unicode="&#xba;" horiz-adv-x="482" 
d="M394 279h-341v61h341v-61zM47 557q0 20 4 36q18 84 90.5 123t151.5 5q58 -25 86.5 -79.5t16.5 -120.5q-11 -54 -47.5 -91t-89.5 -48q-36 -8 -71 0q-54 11 -90.5 48t-47.5 91q-3 18 -3 36zM114 557q0 -14 1 -21q11 -61 63 -85q49 -24 96 2t57 82q6 36 -6 67.5t-39 50.5
q-52 37 -108 11q-52 -24 -63 -85q-1 -7 -1 -22z" />
    <glyph glyph-name="guillemotright" unicode="&#xbb;" horiz-adv-x="424" 
d="M84 438l142 -208l-142 -208q-14 -21 -28 -21q-17 0 -17 17q0 12 5 24l88 188l-88 187q-5 10 -5 24q0 18 17 18q13 0 28 -21zM242 438l143 -208l-143 -208q-14 -21 -28 -21q-17 0 -17 17q0 12 5 24l89 188l-89 187q-5 10 -5 25q0 17 17 17q14 0 28 -21z" />
    <glyph glyph-name="questiondown" unicode="&#xbf;" horiz-adv-x="451" 
d="M185 671q0 26 19 45t45 19q27 0 46 -18.5t19 -45.5t-18.5 -46.5t-44.5 -19.5q-27 0 -46.5 19.5t-19.5 46.5zM355 137l19 24q9 9 18 9q8 0 14.5 -5.5t6.5 -13.5q0 -17 -25 -55q-32 -52 -80.5 -81t-102.5 -29q-70 0 -115 51.5t-45 132.5q0 50 23 108q38 91 95 167l47 61
q22 27 38 27q8 0 14 -5.5t6 -13.5q0 -11 -17 -32q-32 -38 -78 -133q-38 -82 -38 -150q0 -52 29.5 -84.5t77.5 -32.5q30 0 61.5 15.5t51.5 39.5z" />
    <glyph glyph-name="Agrave" unicode="&#xc0;" horiz-adv-x="664" 
d="M489 127l-46 111h-280l-45 -111q-14 -34 -14 -53q0 -26 27 -29l14 -3l7 -2q17 -5 17 -22q0 -21 -30 -21h-127q-9 0 -14 5t-5.5 10t-0.5 15q0 3 0.5 5t1.5 3t3 2l3 1.5t5 1.5t6 1l6 1q15 2 27.5 20.5t30.5 64.5l231 572q8 20 13 25t16 5q12 0 17 -4.5t13 -24.5l233 -573
q15 -36 27 -54q11 -15 19 -21q10 -6 17 -7q1 -1 10 -3l5 -2q18 -4 18 -22q0 -21 -29 -21h-188q-29 0 -29 21q0 18 19 23h4q18 4 25 10.5t7 19.5q0 22 -14 56zM300 587l-123 -309h250zM320 800l-119 60q-22 12 -29.5 20t-7.5 22q0 16 10 26.5t26 10.5q17 0 41 -18l105 -76
q21 -15 21 -26q0 -10 -7 -18t-17 -8t-23 7z" />
    <glyph glyph-name="Aacute" unicode="&#xc1;" horiz-adv-x="664" 
d="M489 127l-46 111h-280l-45 -111q-14 -34 -14 -53q0 -26 27 -29l14 -3l7 -2q17 -5 17 -22q0 -21 -30 -21h-127q-9 0 -14 5t-5.5 10t-0.5 15q0 3 0.5 5t1.5 3t3 2l3 1.5t5 1.5t6 1l6 1q15 2 27.5 20.5t30.5 64.5l231 572q8 20 13 25t16 5q12 0 17 -4.5t13 -24.5l233 -573
q15 -36 27 -54q11 -15 19 -21q10 -6 17 -7q1 -1 10 -3l5 -2q18 -4 18 -22q0 -21 -29 -21h-188q-29 0 -29 21q0 18 19 23h4q18 4 25 10.5t7 19.5q0 22 -14 56zM300 587l-123 -309h250zM476 858l-124 -61q-11 -6 -22 -6q-9 0 -15.5 7.5t-6.5 17.5q0 15 18 27l113 80
q20 14 33 14q17 0 28 -10.5t11 -27.5q0 -24 -35 -41z" />
    <glyph glyph-name="Acircumflex" unicode="&#xc2;" horiz-adv-x="664" 
d="M489 127l-46 111h-280l-45 -111q-14 -34 -14 -53q0 -26 27 -29l14 -3l7 -2q17 -5 17 -22q0 -21 -30 -21h-127q-9 0 -14 5t-5.5 10t-0.5 15q0 3 0.5 5t1.5 3t3 2l3 1.5t5 1.5t6 1l6 1q15 2 27.5 20.5t30.5 64.5l231 572q8 20 13 25t16 5q12 0 17 -4.5t13 -24.5l233 -573
q15 -36 27 -54q11 -15 19 -21q10 -6 17 -7q1 -1 10 -3l5 -2q18 -4 18 -22q0 -21 -29 -21h-188q-29 0 -29 21q0 18 19 23h4q18 4 25 10.5t7 19.5q0 22 -14 56zM300 587l-123 -309h250zM463 797l-126 61l-124 -61q-13 -5 -20 -5q-9 0 -15.5 7.5t-6.5 18.5q0 13 18 25l114 82
q23 17 36 17q8 0 34 -17l114 -82q18 -12 18 -25q0 -11 -6.5 -18.5t-15.5 -7.5q-3 0 -20 5z" />
    <glyph glyph-name="Atilde" unicode="&#xc3;" horiz-adv-x="664" 
d="M489 127l-46 111h-280l-45 -111q-14 -34 -14 -53q0 -26 27 -29l14 -3l7 -2q17 -5 17 -22q0 -21 -30 -21h-127q-9 0 -14 5t-5.5 10t-0.5 15q0 3 0.5 5t1.5 3t3 2l3 1.5t5 1.5t6 1l6 1q15 2 27.5 20.5t30.5 64.5l231 572q8 20 13 25t16 5q12 0 17 -4.5t13 -24.5l233 -573
q15 -36 27 -54q11 -15 19 -21q10 -6 17 -7q1 -1 10 -3l5 -2q18 -4 18 -22q0 -21 -29 -21h-188q-29 0 -29 21q0 18 19 23h4q18 4 25 10.5t7 19.5q0 22 -14 56zM300 587l-123 -309h250zM186 823q-1 3 -1 9q0 19 19 33q32 29 68 29q23 0 57 -13q62 -21 82 -21q27 0 56 20
q13 6 18 6q9 0 15.5 -9.5t6.5 -21.5q0 -18 -13 -31q-30 -32 -74 -32q-15 0 -68 15q-49 16 -71 16q-26 0 -47 -13q-14 -9 -16 -9q-4 -4 -10 -4q-20 0 -22 26z" />
    <glyph glyph-name="Adieresis" unicode="&#xc4;" horiz-adv-x="664" 
d="M158 785q0 27 19 45.5t45 18.5q28 0 47 -18.5t19 -44.5t-18.5 -44.5t-44.5 -18.5q-28 0 -47.5 18t-19.5 44zM365 786q0 26 19.5 44.5t46.5 18.5q28 0 47 -18.5t19 -45.5q0 -26 -19.5 -44t-48.5 -18q-26 0 -45 18.5t-19 44.5zM479 130l-46 111h-280l-45 -111
q-14 -34 -14 -53q0 -26 27 -29l14 -3l7 -2q17 -5 17 -22q0 -21 -30 -21h-127q-9 0 -14 5t-5.5 10t-0.5 15q0 3 0.5 5t1.5 3t3 2l3 1.5t5 1.5t6 1l6 1q15 2 27.5 20.5t30.5 64.5l231 572q8 20 13 25t16 5q12 0 17 -4.5t13 -24.5l233 -573q15 -36 27 -54q11 -15 19 -21
q10 -6 17 -7q1 -1 10 -3l5 -2q18 -5 18 -22q0 -21 -29 -21h-188q-29 0 -29 21q0 18 19 23h4q18 4 25 10.5t7 19.5q0 22 -14 56zM290 590l-123 -309h250z" />
    <glyph glyph-name="Aring" unicode="&#xc5;" horiz-adv-x="664" 
d="M246 837q0 33 24 57t58 24t57 -23.5t23 -56.5q0 -35 -23.5 -59t-57.5 -24q-33 0 -57 23.5t-24 58.5zM292 837q0 -16 10.5 -27t24.5 -11q16 0 26.5 11t10.5 27q0 14 -10.5 24.5t-26.5 10.5q-14 0 -24.5 -10.5t-10.5 -24.5zM479 130l-46 111h-280l-45 -111q-14 -34 -14 -53
q0 -26 27 -29l14 -3l7 -2q17 -5 17 -22q0 -21 -30 -21h-127q-9 0 -14 5t-5.5 10t-0.5 15q0 3 0.5 5t1.5 3t3 2l3 1.5t5 1.5t6 1l6 1q15 2 27.5 20.5t30.5 64.5l231 572q8 20 13 25t16 5q12 0 17 -4.5t13 -24.5l233 -573q15 -36 27 -54q11 -15 19 -21q10 -6 17 -7q1 -1 10 -3
l5 -2q18 -5 18 -22q0 -21 -29 -21h-188q-29 0 -29 21q0 18 19 23h4q18 4 25 10.5t7 19.5q0 22 -14 56zM290 590l-123 -309h250z" />
    <glyph glyph-name="AE" unicode="&#xc6;" horiz-adv-x="999" 
d="M419 240h-271l-47 -121q-9 -21 -9 -38q0 -18 7 -24.5t35 -13.5q20 -5 20 -20q0 -23 -32 -23h-113q-28 0 -28 22q0 10 6 16q3 3 8 4q4 1 9 2q18 5 29.5 20.5t28.5 56.5l229 582q12 28 30 28q11 0 17 -10h474q18 0 27 -4q8 -5 13 -16l23 -76q1 -3 1 -9q0 -5 -4 -10t-9 -5
q-9 0 -20 14q-30 37 -95 54q-55 14 -159 14q-95 0 -148 -4q-57 -5 -57 -48q0 -12 8 -33l80 -204h210q38 0 57 13t26 43q4 17 8.5 23t14.5 6q22 0 22 -21v-3l-8 -81q-1 -15 -0.5 -22.5t3.5 -28t4 -32.5q0 -1 0.5 -5t0.5 -6q0 -15 -20 -15q-10 0 -13.5 2.5t-6.5 12.5
q-12 31 -21 44q-22 32 -106 32h-153l99 -248q16 -43 39 -55.5t83 -12.5t106 11q95 22 141 79q20 24 24.5 28.5t11.5 4.5q14 0 14 -15q0 -12 -33 -71q-24 -44 -47.5 -60.5t-63.5 -16.5h-415q-26 0 -26 22q0 15 13 18l14 3q27 6 27 32q0 15 -8 37zM403 280l-120 306l-121 -306
h241z" />
    <glyph glyph-name="Ccedilla" unicode="&#xc7;" horiz-adv-x="731" 
d="M329 -69l33 55q-88 12 -132 29t-87 56q-119 105 -119 279q0 167 110 276t279 109q59 0 124.5 -14.5t106.5 -38.5q33 -19 38 -76l3 -36q1 -1 1 -8q0 -18 -14 -18q-10 0 -22 21q-21 30 -58 64q-74 65 -175 65q-124 0 -201.5 -93.5t-77.5 -242.5q0 -146 76 -237.5t197 -91.5
q102 0 179 54q23 16 48.5 43.5t31.5 43.5q10 19 19 19q14 0 14 -12q0 -1 -2 -15l-15 -110q-2 -17 -5 -21.5t-11 -4.5q-6 0 -13 6q-12 12 -19 12q-10 0 -33 -10q-79 -34 -125 -43q-22 -5 -82 -7l-12 -22q43 -22 43 -67q0 -38 -31 -62.5t-79 -24.5q-16 0 -43 3l6 25
q11 -1 22 -1q30 0 49.5 13.5t19.5 33.5q0 18 -9 28t-35 21z" />
    <glyph glyph-name="Egrave" unicode="&#xc8;" horiz-adv-x="678" 
d="M363 356h-172v-213q0 -60 12 -81q10 -15 40.5 -19.5t114.5 -4.5q126 0 196 27q63 25 112 85q11 14 18 14q13 0 13 -13v-1q0 -1 -0.5 -2.5t-1 -4t-0.5 -4.5q-18 -51 -45 -89q-22 -30 -44.5 -40t-72.5 -10h-495q-29 0 -29 21q0 8 5.5 15t13.5 8h8q50 7 50 86v461
q0 45 -10.5 63t-39.5 22l-8 1q-18 2 -18 22q0 22 29 22h524h27q17 0 26 -31l18 -58q3 -12 3 -18q0 -13 -14 -13q-6 0 -17 11q-36 39 -92 56.5t-151 15.5l-62 -1q-80 0 -96 -16q-14 -15 -14 -71v-202h173q61 0 82.5 10.5t31.5 44.5q5 21 7.5 25t10.5 4q24 0 24 -22v-5
q0 -21 -2 -46.5t-2 -30.5q0 -35 5 -79v-7q0 -22 -23 -22q-9 0 -13 5.5t-8 21.5q-7 37 -30.5 50t-83.5 13zM356 800l-119 60q-22 12 -29.5 20t-7.5 22q0 16 10 26.5t26 10.5q17 0 41 -18l105 -76q21 -15 21 -26q0 -10 -7 -18t-17 -8t-23 7z" />
    <glyph glyph-name="Eacute" unicode="&#xc9;" horiz-adv-x="678" 
d="M363 356h-172v-213q0 -60 12 -81q10 -15 40.5 -19.5t114.5 -4.5q126 0 196 27q63 25 112 85q11 14 18 14q13 0 13 -13v-1q0 -1 -0.5 -2.5t-1 -4t-0.5 -4.5q-18 -51 -45 -89q-22 -30 -44.5 -40t-72.5 -10h-495q-29 0 -29 21q0 8 5.5 15t13.5 8h8q50 7 50 86v461
q0 45 -10.5 63t-39.5 22l-8 1q-18 2 -18 22q0 22 29 22h524h27q17 0 26 -31l18 -58q3 -12 3 -18q0 -13 -14 -13q-6 0 -17 11q-36 39 -92 56.5t-151 15.5l-62 -1q-80 0 -96 -16q-14 -15 -14 -71v-202h173q61 0 82.5 10.5t31.5 44.5q5 21 7.5 25t10.5 4q24 0 24 -22v-5
q0 -21 -2 -46.5t-2 -30.5q0 -35 5 -79v-7q0 -22 -23 -22q-9 0 -13 5.5t-8 21.5q-7 37 -30.5 50t-83.5 13zM457 858l-124 -61q-11 -6 -22 -6q-9 0 -15.5 7.5t-6.5 17.5q0 15 18 27l113 80q20 14 33 14q17 0 28 -10.5t11 -27.5q0 -24 -35 -41z" />
    <glyph glyph-name="Ecircumflex" unicode="&#xca;" horiz-adv-x="678" 
d="M363 356h-172v-213q0 -60 12 -81q10 -15 40.5 -19.5t114.5 -4.5q126 0 196 27q63 25 112 85q11 14 18 14q13 0 13 -13v-1q0 -1 -0.5 -2.5t-1 -4t-0.5 -4.5q-18 -51 -45 -89q-22 -30 -44.5 -40t-72.5 -10h-495q-29 0 -29 21q0 8 5.5 15t13.5 8h8q50 7 50 86v461
q0 45 -10.5 63t-39.5 22l-8 1q-18 2 -18 22q0 22 29 22h524h27q17 0 26 -31l18 -58q3 -12 3 -18q0 -13 -14 -13q-6 0 -17 11q-36 39 -92 56.5t-151 15.5l-62 -1q-80 0 -96 -16q-14 -15 -14 -71v-202h173q61 0 82.5 10.5t31.5 44.5q5 21 7.5 25t10.5 4q24 0 24 -22v-5
q0 -21 -2 -46.5t-2 -30.5q0 -35 5 -79v-7q0 -22 -23 -22q-9 0 -13 5.5t-8 21.5q-7 37 -30.5 50t-83.5 13zM474 797l-126 61l-124 -61q-13 -5 -20 -5q-9 0 -15.5 7.5t-6.5 18.5q0 13 18 25l114 82q23 17 36 17q8 0 34 -17l114 -82q18 -12 18 -25q0 -11 -6.5 -18.5t-15.5 -7.5
q-3 0 -20 5z" />
    <glyph glyph-name="Edieresis" unicode="&#xcb;" horiz-adv-x="678" 
d="M205 848q0 24 16 40t39 16t39.5 -16t16.5 -40q0 -23 -16.5 -39t-39.5 -16t-39 16t-16 39zM381 848q0 24 16.5 40t39.5 16t39.5 -16t16.5 -40q0 -23 -16.5 -39t-39.5 -16t-39.5 16t-16.5 39zM363 356h-172v-213q0 -60 12 -81q10 -15 40.5 -19.5t114.5 -4.5q126 0 196 27
q63 25 112 85q11 14 18 14q13 0 13 -13v-1q0 -1 -0.5 -2.5t-1 -4t-0.5 -4.5q-18 -51 -45 -89q-22 -30 -44.5 -40t-72.5 -10h-495q-29 0 -29 21q0 8 5.5 15t13.5 8h8q50 7 50 86v461q0 45 -10.5 63t-39.5 22l-8 1q-18 2 -18 22q0 22 29 22h524h27q17 0 26 -31l18 -58
q3 -12 3 -18q0 -13 -14 -13q-6 0 -17 11q-36 39 -92 56.5t-151 15.5l-62 -1q-80 0 -96 -16q-14 -15 -14 -71v-202h173q61 0 82.5 10.5t31.5 44.5q5 21 7.5 25t10.5 4q24 0 24 -22v-5q0 -21 -2 -46.5t-2 -30.5q0 -35 5 -79v-7q0 -22 -23 -22q-9 0 -13 5.5t-8 21.5
q-7 37 -30.5 50t-83.5 13z" />
    <glyph glyph-name="Igrave" unicode="&#xcc;" horiz-adv-x="281" 
d="M44 674l-13 3h-3q-19 4 -19 24t29 20h204q17 0 23 -5t6 -17q0 -17 -18 -22l-7 -1q-30 -5 -41 -22.5t-11 -62.5v-461q0 -41 9 -59t32 -23l13 -4l9 -2q15 -3 15 -20q0 -22 -29 -22h-203q-29 0 -29 21q0 18 18 23l6 1q20 4 31 10q22 17 22 75v461q0 73 -44 83zM124 800
l-119 60q-22 12 -29.5 20t-7.5 22q0 16 10 26.5t26 10.5q17 0 41 -18l105 -76q21 -15 21 -26q0 -10 -7 -18t-17 -8t-23 7z" />
    <glyph glyph-name="Iacute" unicode="&#xcd;" horiz-adv-x="281" 
d="M44 674l-13 3h-3q-19 4 -19 24t29 20h204q17 0 23 -5t6 -17q0 -17 -18 -22l-7 -1q-30 -5 -41 -22.5t-11 -62.5v-461q0 -41 9 -59t32 -23l13 -4l9 -2q15 -3 15 -20q0 -22 -29 -22h-203q-29 0 -29 21q0 18 18 23l6 1q20 4 31 10q22 17 22 75v461q0 73 -44 83zM282 858
l-124 -61q-11 -6 -22 -6q-9 0 -15.5 7.5t-6.5 17.5q0 15 18 27l113 80q20 14 33 14q17 0 28 -10.5t11 -27.5q0 -24 -35 -41z" />
    <glyph glyph-name="Icircumflex" unicode="&#xce;" horiz-adv-x="281" 
d="M44 674l-13 3h-3q-19 4 -19 24t29 20h204q17 0 23 -5t6 -17q0 -17 -18 -22l-7 -1q-30 -5 -41 -22.5t-11 -62.5v-461q0 -41 9 -59t32 -23l13 -4l9 -2q15 -3 15 -20q0 -22 -29 -22h-203q-29 0 -29 21q0 18 18 23l6 1q20 4 31 10q22 17 22 75v461q0 73 -44 83zM268 797
l-126 61l-124 -61q-13 -5 -20 -5q-9 0 -15.5 7.5t-6.5 18.5q0 13 18 25l114 82q23 17 36 17q8 0 34 -17l114 -82q18 -12 18 -25q0 -11 -6.5 -18.5t-15.5 -7.5q-3 0 -20 5z" />
    <glyph glyph-name="Idieresis" unicode="&#xcf;" horiz-adv-x="281" 
d="M44 674l-13 3h-3q-19 4 -19 24t29 20h204q17 0 23 -5t6 -17q0 -17 -18 -22l-7 -1q-30 -5 -41 -22.5t-11 -62.5v-461q0 -41 9 -59t32 -23l13 -4l9 -2q15 -3 15 -20q0 -22 -29 -22h-203q-29 0 -29 21q0 18 18 23l6 1q20 4 31 10q22 17 22 75v461q0 73 -44 83zM-1 848
q0 24 16 40t39 16t39.5 -16t16.5 -40q0 -23 -16.5 -39t-39.5 -16t-39 16t-16 39zM175 848q0 24 16.5 40t39.5 16t39.5 -16t16.5 -40q0 -23 -16.5 -39t-39.5 -16t-39.5 16t-16.5 39z" />
    <glyph glyph-name="Ntilde" unicode="&#xd1;" horiz-adv-x="815" 
d="M90 130v494l-21 21q-28 28 -44 34q-12 5 -14 7.5t-2 11.5q0 14 7 18.5t27 4.5h59q21 0 24 -1q2 0 16 -2q9 -4 32 -27l515 -539v439q0 40 -12 59.5t-41 23.5l-15 2l-5 1q-19 5 -19 22q0 22 29 22h151q29 0 29 -22q0 -17 -19 -22l-5 -1q-16 -3 -32 -11q-22 -13 -22 -74
v-566q0 -36 -14 -36q-11 0 -31 22l-555 577v-458q0 -41 10.5 -58.5t38.5 -23.5l14 -3l6 -1q18 -5 18 -22q0 -22 -29 -22h-147q-29 0 -29 22q0 17 18 22l6 1q19 4 32 10q24 15 24 75zM267 823q-1 3 -1 9q0 19 19 33q32 29 68 29q23 0 57 -13q62 -21 82 -21q27 0 56 20
q14 6 18 6q9 0 15.5 -9.5t6.5 -21.5q0 -18 -13 -31q-30 -32 -74 -32q-15 0 -68 15q-49 16 -71 16q-26 0 -47 -13q-13 -9 -16 -9q-4 -4 -10 -4q-20 0 -22 26z" />
    <glyph glyph-name="Ograve" unicode="&#xd2;" horiz-adv-x="813" 
d="M29 365q0 162 107 266t273 104q164 0 269.5 -106.5t105.5 -271.5t-104 -268t-269 -103q-168 0 -275 106t-107 273zM145 383q0 -17 1 -24q6 -154 77.5 -243t188.5 -89q121 0 188.5 82t67.5 230q0 164 -74 259t-200 95q-117 0 -183 -83t-66 -227zM423 800l-119 60
q-22 12 -29.5 20t-7.5 22q0 16 10 26.5t26 10.5q17 0 41 -18l105 -76q21 -15 21 -26q0 -10 -7 -18t-17 -8t-23 7z" />
    <glyph glyph-name="Oacute" unicode="&#xd3;" horiz-adv-x="813" 
d="M29 365q0 162 107 266t273 104q164 0 269.5 -106.5t105.5 -271.5t-104 -268t-269 -103q-168 0 -275 106t-107 273zM145 383q0 -17 1 -24q6 -154 77.5 -243t188.5 -89q121 0 188.5 82t67.5 230q0 164 -74 259t-200 95q-117 0 -183 -83t-66 -227zM538 858l-124 -61
q-10 -6 -22 -6q-9 0 -15.5 7.5t-6.5 17.5q0 15 18 27l113 80q20 14 33 14q17 0 28 -10.5t11 -27.5q0 -24 -35 -41z" />
    <glyph glyph-name="Ocircumflex" unicode="&#xd4;" horiz-adv-x="813" 
d="M29 365q0 162 107 266t273 104q164 0 269.5 -106.5t105.5 -271.5t-104 -268t-269 -103q-168 0 -275 106t-107 273zM145 383q0 -17 1 -24q6 -154 77.5 -243t188.5 -89q121 0 188.5 82t67.5 230q0 164 -74 259t-200 95q-117 0 -183 -83t-66 -227zM546 797l-126 61l-124 -61
q-13 -5 -20 -5q-9 0 -15.5 7.5t-6.5 18.5q0 13 18 25l114 82q23 17 36 17q8 0 34 -17l114 -82q18 -12 18 -25q0 -11 -6.5 -18.5t-15.5 -7.5q-3 0 -20 5z" />
    <glyph glyph-name="Otilde" unicode="&#xd5;" horiz-adv-x="813" 
d="M29 365q0 162 107 266t273 104q164 0 269.5 -106.5t105.5 -271.5t-104 -268t-269 -103q-168 0 -275 106t-107 273zM145 383q0 -17 1 -24q6 -154 77.5 -243t188.5 -89q121 0 188.5 82t67.5 230q0 164 -74 259t-200 95q-117 0 -183 -83t-66 -227zM266 823q-1 3 -1 9
q0 19 19 33q32 29 68 29q23 0 57 -13q62 -21 82 -21q27 0 56 20q13 6 18 6q9 0 15.5 -9.5t6.5 -21.5q0 -18 -13 -31q-30 -32 -74 -32q-15 0 -68 15q-49 16 -71 16q-26 0 -47 -13q-14 -9 -16 -9q-4 -4 -10 -4q-20 0 -22 26z" />
    <glyph glyph-name="Odieresis" unicode="&#xd6;" horiz-adv-x="813" 
d="M143 785q-1 27 19 45.5t47 18.5q28 0 47 -18.5t19 -44.5t-18.5 -44.5t-45.5 -18.5t-47.5 18t-20.5 44zM551 786q0 26 19 44.5t47 18.5q27 0 46.5 -18.5t19.5 -45.5q0 -26 -20.5 -44t-47.5 -18t-45.5 18.5t-18.5 44.5zM29 365q0 162 107 266t273 104q164 0 269.5 -106.5
t105.5 -271.5t-104 -268t-269 -103q-168 0 -275 106t-107 273zM145 383q0 -17 1 -24q6 -154 77.5 -243t188.5 -89q121 0 188.5 82t67.5 230q0 164 -74 259t-200 95q-117 0 -183 -83t-66 -227z" />
    <glyph glyph-name="multiply" unicode="&#xd7;" 
d="M179 369l-126 126l66 66l126 -126l128 127l67 -67l-128 -126l127 -127l-66 -66l-125 126l-128 -127l-67 67z" />
    <glyph glyph-name="Oslash" unicode="&#xd8;" horiz-adv-x="812" 
d="M651 650l63 64l38 -33l-62 -67q55 -80 73.5 -129.5t18.5 -123.5q0 -163 -105.5 -270.5t-264.5 -107.5q-71 0 -120.5 16t-127.5 67l-59 -65l-41 38l62 66q-58 78 -77.5 129.5t-19.5 130.5q0 164 105.5 267t271.5 103q72 0 119.5 -16.5t125.5 -68.5zM622 547l-401 -425
q19 -45 70.5 -71t120.5 -26q118 0 186 83.5t68 230.5q0 78 -23 150q-5 17 -21 58zM191 170l405 425q-45 51 -90.5 72.5t-108.5 21.5q-121 0 -185.5 -80.5t-64.5 -232.5q0 -66 8.5 -106.5t35.5 -99.5z" />
    <glyph glyph-name="Ugrave" unicode="&#xd9;" horiz-adv-x="785" 
d="M758 677l-4 -1l-12 -2q-45 -7 -45 -83v-315q0 -68 -9 -107t-33 -75q-72 -108 -258 -108q-130 0 -219 50q-45 26 -67 66q-14 27 -19.5 56.5t-5.5 87.5v345q0 44 -11 62t-40 23l-7 1q-19 5 -19 24q0 20 29 20h203q28 0 28 -22q0 -20 -18 -22l-10 -1q-27 -3 -38 -21.5
t-11 -63.5v-345q0 -63 17 -104q23 -53 80 -83.5t135 -30.5q235 0 235 247v316q0 44 -11.5 62t-42.5 23l-6 1q-18 5 -18 24q0 20 29 20h137q29 0 29 -22q0 -17 -18 -22zM409 800l-119 60q-22 12 -29.5 20t-7.5 22q0 16 10 26.5t26 10.5q17 0 41 -18l105 -76q21 -15 21 -26
q0 -10 -7 -18t-17 -8t-23 7z" />
    <glyph glyph-name="Uacute" unicode="&#xda;" horiz-adv-x="785" 
d="M758 677l-4 -1l-12 -2q-45 -7 -45 -83v-315q0 -68 -9 -107t-33 -75q-72 -108 -258 -108q-130 0 -219 50q-45 26 -67 66q-14 27 -19.5 56.5t-5.5 87.5v345q0 44 -11 62t-40 23l-7 1q-19 5 -19 24q0 20 29 20h203q28 0 28 -22q0 -20 -18 -22l-10 -1q-27 -3 -38 -21.5
t-11 -63.5v-345q0 -63 17 -104q23 -53 80 -83.5t135 -30.5q235 0 235 247v316q0 44 -11.5 62t-42.5 23l-6 1q-18 5 -18 24q0 20 29 20h137q29 0 29 -22q0 -17 -18 -22zM534 858l-124 -61q-11 -6 -22 -6q-9 0 -15.5 7.5t-6.5 17.5q0 15 18 27l113 80q20 14 33 14
q17 0 28 -10.5t11 -27.5q0 -24 -35 -41z" />
    <glyph glyph-name="Ucircumflex" unicode="&#xdb;" horiz-adv-x="785" 
d="M758 677l-4 -1l-12 -2q-45 -7 -45 -83v-315q0 -68 -9 -107t-33 -75q-72 -108 -258 -108q-130 0 -219 50q-45 26 -67 66q-14 27 -19.5 56.5t-5.5 87.5v345q0 44 -11 62t-40 23l-7 1q-19 5 -19 24q0 20 29 20h203q28 0 28 -22q0 -20 -18 -22l-10 -1q-27 -3 -38 -21.5
t-11 -63.5v-345q0 -63 17 -104q23 -53 80 -83.5t135 -30.5q235 0 235 247v316q0 44 -11.5 62t-42.5 23l-6 1q-18 5 -18 24q0 20 29 20h137q29 0 29 -22q0 -17 -18 -22zM541 797l-126 61l-124 -61q-13 -5 -20 -5q-9 0 -15.5 7.5t-6.5 18.5q0 13 18 25l114 82q23 17 36 17
q8 0 34 -17l114 -82q18 -12 18 -25q0 -11 -6.5 -18.5t-15.5 -7.5q-3 0 -20 5z" />
    <glyph glyph-name="Udieresis" unicode="&#xdc;" horiz-adv-x="785" 
d="M249 785q-1 27 18.5 45.5t46.5 18.5q28 0 47.5 -18.5t19.5 -44.5t-19 -44.5t-46 -18.5t-47 18t-20 44zM475 786q0 26 19 44.5t47 18.5q27 0 46.5 -18.5t19.5 -45.5q0 -26 -20 -44t-48 -18q-27 0 -45.5 18.5t-18.5 44.5zM758 677l-4 -1l-12 -2q-45 -7 -45 -83v-315
q0 -68 -9 -107t-33 -75q-72 -108 -258 -108q-130 0 -219 50q-45 26 -67 66q-14 27 -19.5 56.5t-5.5 87.5v345q0 44 -11 62t-40 23l-7 1q-19 5 -19 24q0 20 29 20h203q28 0 28 -22q0 -20 -18 -22l-10 -1q-27 -3 -38 -21.5t-11 -63.5v-345q0 -63 17 -104q23 -53 80 -83.5
t135 -30.5q235 0 235 247v316q0 44 -11.5 62t-42.5 23l-6 1q-18 5 -18 24q0 20 29 20h137q29 0 29 -22q0 -17 -18 -22z" />
    <glyph glyph-name="germandbls" unicode="&#xdf;" horiz-adv-x="574" 
d="M173 497v-497h-132q-30 0 -30 21q0 13 13 14l17 4q23 5 31.5 21.5t8.5 56.5v325q0 113 34 185q25 50 70.5 79t99.5 29q86 0 139.5 -64t53.5 -166q0 -42 -13 -95q-51 21 -81 21q-35 0 -56.5 -16t-21.5 -42q0 -20 16 -35.5t55 -32.5l77 -34q57 -25 83.5 -57t26.5 -77
q0 -69 -48.5 -110.5t-129.5 -41.5q-83 0 -138 36q-10 6 -14 10.5t-9 18.5q-6 15 -13 42q-8 22 -8 30q-3 11 -3 16q0 7 5 12t10 5q8 0 12.5 -4.5t10.5 -18.5q54 -105 152 -105q47 0 76 22.5t29 58.5q0 27 -17 42t-75 39q-106 44 -143 81q-33 31 -33 79q0 49 38 84t92 35
q3 0 11.5 -0.5t14.5 -0.5q11 48 11 72q0 69 -31 111.5t-82 42.5q-109 0 -109 -196z" />
    <glyph glyph-name="agrave" unicode="&#xe0;" horiz-adv-x="506" 
d="M289 275l45 13v50q0 94 -98 94q-44 0 -78 -18t-34 -40q0 -10 4 -17q5 -19 5 -23q0 -17 -11.5 -27.5t-28.5 -10.5q-19 0 -30.5 13t-11.5 33q0 52 65.5 91t153.5 39q73 0 116 -32q22 -17 31 -40t9 -64v-244q0 -29 2 -34q3 -14 17 -14q9 0 16 6l11 7q5 4 10 4q17 0 17 -18
q0 -11 -14 -25q-37 -32 -82 -32q-57 0 -73 55q-29 -27 -71 -41q-48 -15 -89 -15q-69 0 -107.5 31t-38.5 87q0 55 41.5 87.5t152.5 64.5zM334 163v88q-6 -2 -16.5 -5t-14.5 -5q-62 -20 -112 -40q-23 -11 -41 -26q-29 -24 -29 -66q0 -38 24 -59.5t65 -21.5q65 0 102 47
q22 32 22 88zM270 514l-119 60q-22 12 -29.5 20t-7.5 22q0 16 10 26.5t26 10.5q17 0 41 -18l105 -76q21 -15 21 -26q0 -10 -7 -18t-17 -8t-23 7z" />
    <glyph glyph-name="aacute" unicode="&#xe1;" horiz-adv-x="506" 
d="M289 275l45 13v50q0 94 -98 94q-44 0 -78 -18t-34 -40q0 -10 4 -17q5 -19 5 -23q0 -17 -11.5 -27.5t-28.5 -10.5q-19 0 -30.5 13t-11.5 33q0 52 65.5 91t153.5 39q73 0 116 -32q22 -17 31 -40t9 -64v-244q0 -29 2 -34q3 -14 17 -14q9 0 16 6l11 7q5 4 10 4q17 0 17 -18
q0 -11 -14 -25q-37 -32 -82 -32q-57 0 -73 55q-29 -27 -71 -41q-48 -15 -89 -15q-69 0 -107.5 31t-38.5 87q0 55 41.5 87.5t152.5 64.5zM334 163v88q-6 -2 -16.5 -5t-14.5 -5q-62 -20 -112 -40q-23 -11 -41 -26q-29 -24 -29 -66q0 -38 24 -59.5t65 -21.5q65 0 102 47
q22 32 22 88zM405 572l-124 -61q-11 -6 -22 -6q-9 0 -15.5 7.5t-6.5 17.5q0 15 18 27l113 80q20 14 33 14q17 0 28 -10.5t11 -27.5q0 -24 -35 -41z" />
    <glyph glyph-name="acircumflex" unicode="&#xe2;" horiz-adv-x="506" 
d="M289 275l45 13v50q0 94 -98 94q-44 0 -78 -18t-34 -40q0 -10 4 -17q5 -19 5 -23q0 -17 -11.5 -27.5t-28.5 -10.5q-19 0 -30.5 13t-11.5 33q0 52 65.5 91t153.5 39q73 0 116 -32q22 -17 31 -40t9 -64v-244q0 -29 2 -34q3 -14 17 -14q9 0 16 6l11 7q5 4 10 4q17 0 17 -18
q0 -11 -14 -25q-37 -32 -82 -32q-57 0 -73 55q-29 -27 -71 -41q-48 -15 -89 -15q-69 0 -107.5 31t-38.5 87q0 55 41.5 87.5t152.5 64.5zM334 163v88q-6 -2 -16.5 -5t-14.5 -5q-62 -20 -112 -40q-23 -11 -41 -26q-29 -24 -29 -66q0 -38 24 -59.5t65 -21.5q65 0 102 47
q22 32 22 88zM388 511l-126 61l-124 -61q-13 -5 -20 -5q-9 0 -15.5 7.5t-6.5 18.5q0 13 18 25l114 82q23 17 36 17q8 0 34 -17l114 -82q18 -12 18 -25q0 -11 -6.5 -18.5t-15.5 -7.5q-3 0 -20 5z" />
    <glyph glyph-name="atilde" unicode="&#xe3;" horiz-adv-x="506" 
d="M289 275l45 13v50q0 94 -98 94q-44 0 -78 -18t-34 -40q0 -10 4 -17q5 -19 5 -23q0 -17 -11.5 -27.5t-28.5 -10.5q-19 0 -30.5 13t-11.5 33q0 52 65.5 91t153.5 39q73 0 116 -32q22 -17 31 -40t9 -64v-244q0 -29 2 -34q3 -14 17 -14q9 0 16 6l11 7q5 4 10 4q17 0 17 -18
q0 -11 -14 -25q-37 -32 -82 -32q-57 0 -73 55q-29 -27 -71 -41q-48 -15 -89 -15q-69 0 -107.5 31t-38.5 87q0 55 41.5 87.5t152.5 64.5zM334 163v88q-6 -2 -16.5 -5t-14.5 -5q-62 -20 -112 -40q-23 -11 -41 -26q-29 -24 -29 -66q0 -38 24 -59.5t65 -21.5q65 0 102 47
q22 32 22 88zM105 537q-1 3 -1 9q0 19 19 33q32 29 68 29q23 0 57 -13q62 -21 82 -21q27 0 56 20q14 6 18 6q9 0 15.5 -9.5t6.5 -21.5q0 -18 -13 -31q-30 -32 -74 -32q-15 0 -68 15q-49 16 -71 16q-26 0 -47 -13q-13 -9 -16 -9q-4 -4 -10 -4q-20 0 -22 26z" />
    <glyph glyph-name="adieresis" unicode="&#xe4;" horiz-adv-x="506" 
d="M289 275l45 13v50q0 94 -98 94q-44 0 -78 -18t-34 -40q0 -10 4 -17q5 -19 5 -23q0 -17 -11.5 -27.5t-28.5 -10.5q-19 0 -30.5 13t-11.5 33q0 52 65.5 91t153.5 39q73 0 116 -32q22 -17 31 -40t9 -64v-244q0 -29 2 -34q3 -14 17 -14q9 0 16 6l11 7q5 4 10 4q17 0 17 -18
q0 -11 -14 -25q-37 -32 -82 -32q-57 0 -73 55q-29 -27 -71 -41q-48 -15 -89 -15q-69 0 -107.5 31t-38.5 87q0 55 41.5 87.5t152.5 64.5zM334 163v88q-6 -2 -16.5 -5t-14.5 -5q-62 -20 -112 -40q-23 -11 -41 -26q-29 -24 -29 -66q0 -38 24 -59.5t65 -21.5q65 0 102 47
q22 32 22 88zM119 573q0 24 16 40t39 16t39.5 -16t16.5 -40q0 -23 -16.5 -39t-39.5 -16t-39 16t-16 39zM295 573q0 24 16.5 40t39.5 16t39.5 -16t16.5 -40q0 -23 -16.5 -39t-39.5 -16t-39.5 16t-16.5 39z" />
    <glyph glyph-name="aring" unicode="&#xe5;" horiz-adv-x="506" 
d="M289 275l45 13v47q0 95 -102 95q-50 0 -88 -28q-20 -15 -20 -30q0 -10 4 -17q5 -19 5 -24q0 -16 -11.5 -26.5t-28.5 -10.5q-19 0 -30.5 12.5t-11.5 32.5q0 53 65 91.5t155 38.5q72 0 115 -32q22 -17 31 -40t9 -64v-241q0 -29 2 -34q3 -14 17 -14q9 0 16 6l11 7q5 4 10 4
q17 0 17 -18q0 -11 -14 -25q-37 -32 -82 -32q-57 0 -73 55q-18 -18 -31 -25.5t-40 -15.5q-42 -15 -91 -15q-64 0 -104 31.5t-40 82.5q0 66 52 100q40 26 142 56zM334 163v88l-31 -10q-93 -30 -112 -40q-71 -36 -71 -94q0 -34 26 -56.5t66 -22.5q57 0 89.5 36t32.5 99z
M185 594q0 32 23.5 55t55.5 23t55 -22.5t23 -54.5q0 -34 -23 -57.5t-55 -23.5t-55.5 23t-23.5 57zM264 630q-16 0 -26.5 -10.5t-10.5 -25.5q0 -16 10.5 -27t26.5 -11q14 0 25 11t11 27q0 15 -11 25.5t-25 10.5z" />
    <glyph glyph-name="ae" unicode="&#xe6;" horiz-adv-x="770" 
d="M371 75q-34 -34 -68 -54q-65 -36 -137 -36q-66 0 -105.5 31t-39.5 83t34.5 86t108.5 55l167 48v53q0 45 -26.5 69.5t-74.5 24.5q-44 0 -81 -24q-27 -17 -27 -37q0 -1 2 -9l6 -15q2 -6 2 -14q0 -16 -11.5 -27.5t-29.5 -11.5q-19 0 -31 13t-12 32q0 51 67 91.5t151 40.5
q39 0 76 -13q24 -9 36 -21t25 -39q19 19 33 30q51 43 126 43q82 0 136 -56q44 -48 44 -85q0 -17 -8 -25.5t-29 -13.5l-278 -65q2 -39 8 -60.5t20 -45.5q43 -71 123 -71q31 0 63 13t50 33l27 31q7 7 16 7q13 0 13 -15q0 -17 -16 -39q-65 -96 -184 -96q-39 0 -75 12
q-33 13 -53.5 27.5t-47.5 49.5zM331 172v79l-73 -24q-53 -18 -92 -42q-27 -18 -38 -35t-11 -43q0 -35 24 -56.5t63 -21.5q38 0 69.5 17.5t45.5 47.5q12 22 12 78zM462 379q-30 -40 -35 -120l188 57q35 12 35 29q0 35 -27 60.5t-65 25.5q-58 0 -96 -52z" />
    <glyph glyph-name="ccedilla" unicode="&#xe7;" horiz-adv-x="469" 
d="M250 -15l-9 -20q43 -22 43 -66q0 -38 -31 -63t-79 -25q-16 0 -42 3l5 25q11 -1 22 -1q30 0 49.5 13.5t19.5 34.5q0 17 -9 27t-35 21l30 52q-46 10 -70 21t-47 34q-68 62 -68 173t68 184.5t169 73.5q63 0 112 -31.5t49 -72.5q0 -18 -11.5 -30t-29.5 -12q-35 0 -42 39
l-3 17q-12 53 -75 53q-60 0 -98.5 -53t-38.5 -136q0 -86 40 -138t106 -52q77 0 133 67q14 18 18.5 22t11.5 4q4 0 12 -5q5 -5 5 -12q0 -12 -16.5 -37t-38.5 -45q-62 -61 -150 -65z" />
    <glyph glyph-name="egrave" unicode="&#xe8;" horiz-adv-x="471" 
d="M400 292l-274 -68q6 -45 14.5 -69.5t25.5 -46.5q41 -56 113 -56q41 0 72.5 17.5t66.5 59.5q9 9 14 9q7 0 12 -4.5t5 -11.5q0 -14 -20 -43q-66 -93 -180 -93q-97 0 -158.5 66t-61.5 170q0 107 67 178.5t167 71.5q70 0 125 -44t55 -99q0 -17 -8 -24t-35 -13zM160 377
q-28 -43 -34 -121l189 58q20 6 28 13t8 19q0 33 -29.5 59t-66.5 26q-59 0 -95 -54zM252 514l-119 60q-22 12 -29.5 20t-7.5 22q0 16 10 26.5t26 10.5q17 0 41 -18l105 -76q21 -15 21 -26q0 -10 -7 -18t-17 -8t-23 7z" />
    <glyph glyph-name="eacute" unicode="&#xe9;" horiz-adv-x="471" 
d="M400 292l-274 -68q6 -45 14.5 -69.5t25.5 -46.5q41 -56 113 -56q41 0 72.5 17.5t66.5 59.5q9 9 14 9q7 0 12 -4.5t5 -11.5q0 -14 -20 -43q-66 -93 -180 -93q-97 0 -158.5 66t-61.5 170q0 107 67 178.5t167 71.5q70 0 125 -44t55 -99q0 -17 -8 -24t-35 -13zM160 377
q-28 -43 -34 -121l189 58q20 6 28 13t8 19q0 33 -29.5 59t-66.5 26q-59 0 -95 -54zM357 572l-124 -61q-11 -6 -22 -6q-9 0 -15.5 7.5t-6.5 17.5q0 15 18 27l113 80q20 14 33 14q17 0 28 -10.5t11 -27.5q0 -24 -35 -41z" />
    <glyph glyph-name="ecircumflex" unicode="&#xea;" horiz-adv-x="471" 
d="M400 292l-274 -68q6 -45 14.5 -69.5t25.5 -46.5q41 -56 113 -56q41 0 72.5 17.5t66.5 59.5q9 9 14 9q7 0 12 -4.5t5 -11.5q0 -14 -20 -43q-66 -93 -180 -93q-97 0 -158.5 66t-61.5 170q0 107 67 178.5t167 71.5q70 0 125 -44t55 -99q0 -17 -8 -24t-35 -13zM160 377
q-28 -43 -34 -121l189 58q20 6 28 13t8 19q0 33 -29.5 59t-66.5 26q-59 0 -95 -54zM379 511l-126 61l-124 -61q-13 -5 -20 -5q-9 0 -15.5 7.5t-6.5 18.5q0 13 18 25l114 82q23 17 36 17q8 0 34 -17l114 -82q18 -12 18 -25q0 -11 -6.5 -18.5t-15.5 -7.5q-3 0 -20 5z" />
    <glyph glyph-name="edieresis" unicode="&#xeb;" horiz-adv-x="471" 
d="M400 292l-274 -68q6 -45 14.5 -69.5t25.5 -46.5q41 -56 113 -56q41 0 72.5 17.5t66.5 59.5q9 9 14 9q7 0 12 -4.5t5 -11.5q0 -14 -20 -43q-66 -93 -180 -93q-97 0 -158.5 66t-61.5 170q0 107 67 178.5t167 71.5q70 0 125 -44t55 -99q0 -17 -8 -24t-35 -13zM160 377
q-28 -43 -34 -121l189 58q20 6 28 13t8 19q0 33 -29.5 59t-66.5 26q-59 0 -95 -54zM111 562q0 24 16 40t39 16t39.5 -16t16.5 -40q0 -23 -16.5 -39t-39.5 -16t-39 16t-16 39zM287 562q0 24 16.5 40t39.5 16t39.5 -16t16.5 -40q0 -23 -16.5 -39t-39.5 -16t-39.5 16t-16.5 39z
" />
    <glyph glyph-name="igrave" unicode="&#xec;" horiz-adv-x="255" 
d="M215 0h-174q-26 0 -26 18q0 16 15 17l9 2q25 3 33 15q1 2 2 4.5t2.5 7l2.5 7.5q4 20 4 47v196q0 32 -5.5 45.5t-20.5 18.5l-18 5q-18 5 -18 16q0 9 5.5 13.5t21.5 9.5q37 11 77 39q13 9 23 9q11 0 18.5 -6t7.5 -15v-331q0 -38 2 -47q3 -17 11.5 -24.5t28.5 -9.5l10 -2
q14 -3 14 -17q0 -18 -25 -18zM106 514l-119 60q-22 12 -29.5 20t-7.5 22q0 16 10 26.5t26 10.5q17 0 41 -18l105 -76q21 -15 21 -26q0 -10 -7 -18t-17 -8t-23 7z" />
    <glyph glyph-name="iacute" unicode="&#xed;" horiz-adv-x="255" 
d="M215 0h-174q-26 0 -26 18q0 16 15 17l9 2q25 3 33 15q1 2 2 4.5t2.5 7l2.5 7.5q4 20 4 47v196q0 32 -5.5 45.5t-20.5 18.5l-18 5q-18 5 -18 16q0 9 5.5 13.5t21.5 9.5q37 11 77 39q13 9 23 9q11 0 18.5 -6t7.5 -15v-331q0 -38 2 -47q3 -17 11.5 -24.5t28.5 -9.5l10 -2
q14 -3 14 -17q0 -18 -25 -18zM259 572l-124 -61q-11 -6 -22 -6q-9 0 -15.5 7.5t-6.5 17.5q0 15 18 27l113 80q20 14 33 14q17 0 28 -10.5t11 -27.5q0 -24 -35 -41z" />
    <glyph glyph-name="icircumflex" unicode="&#xee;" horiz-adv-x="255" 
d="M215 0h-174q-26 0 -26 18q0 16 15 17l9 2q25 3 33 15q1 2 2 4.5t2.5 7l2.5 7.5q4 20 4 47v196q0 32 -5.5 45.5t-20.5 18.5l-18 5q-18 5 -18 16q0 9 5.5 13.5t21.5 9.5q37 11 77 39q13 9 23 9q11 0 18.5 -6t7.5 -15v-331q0 -38 2 -47q3 -17 11.5 -24.5t28.5 -9.5l10 -2
q14 -3 14 -17q0 -18 -25 -18zM252 511l-126 61l-124 -61q-13 -5 -20 -5q-9 0 -15.5 7.5t-6.5 18.5q0 13 18 25l114 82q23 17 36 17q8 0 34 -17l114 -82q18 -12 18 -25q0 -11 -6.5 -18.5t-15.5 -7.5q-3 0 -20 5z" />
    <glyph glyph-name="idieresis" unicode="&#xef;" horiz-adv-x="255" 
d="M215 0h-174q-26 0 -26 18q0 16 15 17l9 2q25 3 33 15q1 2 2 4.5t2.5 7l2.5 7.5q4 20 4 47v196q0 32 -5.5 45.5t-20.5 18.5l-18 5q-18 5 -18 16q0 9 5.5 13.5t21.5 9.5q37 11 77 39q13 9 23 9q11 0 18.5 -6t7.5 -15v-331q0 -38 2 -47q3 -17 11.5 -24.5t28.5 -9.5l10 -2
q14 -3 14 -17q0 -18 -25 -18zM-18 562q0 24 16 40t39 16t39.5 -16t16.5 -40q0 -23 -16.5 -39t-39.5 -16t-39 16t-16 39zM158 562q0 24 16.5 40t39.5 16t39.5 -16t16.5 -40q0 -23 -16.5 -39t-39.5 -16t-39.5 16t-16.5 39z" />
    <glyph glyph-name="ntilde" unicode="&#xf1;" horiz-adv-x="591" 
d="M175 289v-170q0 -49 5.5 -64.5t23.5 -17.5l12 -1q14 -2 14 -18q0 -18 -25 -18h-164q-25 0 -25 18q0 16 15 18l11 1q25 4 33 16q8 18 8 65v196q0 32 -5.5 46t-19.5 18l-18 5q-18 5 -18 16q0 9 5.5 13.5t21.5 9.5q36 10 77 39q14 9 23 9q10 0 17.5 -6.5t7.5 -14.5v-101
q7 8 18.5 21.5t15.5 18t12 12.5t14 13.5t14 11.5q59 47 124 47q70 0 113 -53q16 -20 21 -43t5 -71l1 -186v-24q0 -30 9 -43t30 -15l12 -1q15 -2 15 -18q0 -18 -24 -18h-167q-25 0 -25 18q0 13 14 18l10 1q21 1 27 15q8 18 8 66v171q0 52 -17 77q-23 35 -75 35q-30 0 -55 -13
q-20 -11 -43 -29q-22 -22 -56 -70zM155 537q-1 3 -1 9q0 19 19 33q32 29 68 29q23 0 57 -13q62 -21 82 -21q27 0 56 20q14 6 18 6q9 0 15.5 -9.5t6.5 -21.5q0 -18 -13 -31q-30 -32 -74 -32q-15 0 -68 15q-49 16 -71 16q-26 0 -47 -13q-14 -9 -16 -9q-4 -4 -10 -4
q-20 0 -22 26z" />
    <glyph glyph-name="ograve" unicode="&#xf2;" horiz-adv-x="547" 
d="M30 214q-1 5 -1 16q0 106 68 174t173 68q110 0 179 -69t69 -180q0 -106 -67 -171.5t-175 -65.5q-105 0 -172.5 63t-73.5 165zM129 256q0 -22 3 -44q10 -89 49.5 -138.5t100.5 -49.5q62 0 97.5 47t35.5 128q0 105 -42 168.5t-111 63.5q-61 0 -97 -47t-36 -128zM270 514
l-119 60q-22 12 -29.5 20t-7.5 22q0 16 10 26.5t26 10.5q17 0 41 -18l105 -76q21 -15 21 -26q0 -10 -7 -18t-17 -8t-23 7z" />
    <glyph glyph-name="oacute" unicode="&#xf3;" horiz-adv-x="547" 
d="M30 214q-1 5 -1 16q0 106 68 174t173 68q110 0 179 -69t69 -180q0 -106 -67 -171.5t-175 -65.5q-105 0 -172.5 63t-73.5 165zM129 256q0 -22 3 -44q10 -89 49.5 -138.5t100.5 -49.5q62 0 97.5 47t35.5 128q0 105 -42 168.5t-111 63.5q-61 0 -97 -47t-36 -128zM405 572
l-124 -61q-11 -6 -22 -6q-9 0 -15.5 7.5t-6.5 17.5q0 15 18 27l113 80q20 14 33 14q17 0 28 -10.5t11 -27.5q0 -24 -35 -41z" />
    <glyph glyph-name="ocircumflex" unicode="&#xf4;" horiz-adv-x="547" 
d="M30 214q-1 5 -1 16q0 106 68 174t173 68q110 0 179 -69t69 -180q0 -106 -67 -171.5t-175 -65.5q-105 0 -172.5 63t-73.5 165zM129 256q0 -22 3 -44q10 -89 49.5 -138.5t100.5 -49.5q62 0 97.5 47t35.5 128q0 105 -42 168.5t-111 63.5q-61 0 -97 -47t-36 -128zM396 511
l-126 61l-124 -61q-13 -5 -20 -5q-9 0 -15.5 7.5t-6.5 18.5q0 13 18 25l114 82q23 17 36 17q8 0 34 -17l114 -82q18 -12 18 -25q0 -11 -6.5 -18.5t-15.5 -7.5q-3 0 -20 5z" />
    <glyph glyph-name="otilde" unicode="&#xf5;" horiz-adv-x="547" 
d="M30 214q-1 5 -1 16q0 106 68 174t173 68q110 0 179 -69t69 -180q0 -106 -67 -171.5t-175 -65.5q-105 0 -172.5 63t-73.5 165zM129 256q0 -22 3 -44q10 -89 49.5 -138.5t100.5 -49.5q62 0 97.5 47t35.5 128q0 105 -42 168.5t-111 63.5q-61 0 -97 -47t-36 -128zM124 537
q-1 3 -1 9q0 19 19 33q32 29 68 29q23 0 57 -13q62 -21 82 -21q27 0 56 20q13 6 18 6q9 0 15.5 -9.5t6.5 -21.5q0 -18 -13 -31q-30 -32 -74 -32q-15 0 -68 15q-49 16 -71 16q-26 0 -47 -13q-14 -9 -16 -9q-4 -4 -10 -4q-20 0 -22 26z" />
    <glyph glyph-name="odieresis" unicode="&#xf6;" horiz-adv-x="547" 
d="M30 214q-1 5 -1 16q0 106 68 174t173 68q110 0 179 -69t69 -180q0 -106 -67 -171.5t-175 -65.5q-105 0 -172.5 63t-73.5 165zM129 256q0 -22 3 -44q10 -89 49.5 -138.5t100.5 -49.5q62 0 97.5 47t35.5 128q0 105 -42 168.5t-111 63.5q-61 0 -97 -47t-36 -128zM133 573
q0 24 16 40t39 16t39.5 -16t16.5 -40q0 -23 -16.5 -39t-39.5 -16t-39 16t-16 39zM309 573q0 24 16.5 40t39.5 16t39.5 -16t16.5 -40q0 -23 -16.5 -39t-39.5 -16t-39.5 16t-16.5 39z" />
    <glyph glyph-name="divide" unicode="&#xf7;" horiz-adv-x="594" 
d="M234 141q20 17 41 17q24 0 40 -16t16 -41q0 -23 -17 -40q-15 -17 -39 -17t-41 17q-16 17 -16 40q0 24 16 40zM43 270h463v-68h-463v68zM234 410q17 16 41 17q24 0 39 -17q17 -17 17 -40t-17 -40q-15 -17 -39 -17t-41 17q-16 16 -16 40t16 40z" />
    <glyph glyph-name="oslash" unicode="&#xf8;" horiz-adv-x="551" 
d="M419 424l64 68l38 -38l-59 -65q33 -50 44.5 -83t11.5 -81q0 -105 -68.5 -172t-175.5 -67q-43 0 -72 9t-72 36l-58 -63l-41 35l60 60q-37 47 -49.5 80.5t-12.5 86.5q0 105 68 172.5t173 67.5q44 0 73 -9t76 -37zM395 320l-213 -239q29 -31 50 -42.5t49 -11.5q61 0 97.5 47
t36.5 126q0 56 -20 120zM152 132l218 241q-26 27 -43.5 37.5t-44.5 15.5q-14 2 -24 2q-57 0 -91.5 -46t-34.5 -123q0 -59 20 -127z" />
    <glyph glyph-name="ugrave" unicode="&#xf9;" horiz-adv-x="582" 
d="M415 30v77q-34 -44 -61 -65q-67 -56 -135 -56q-77 0 -117 56q-16 25 -22 50.5t-6 73.5v148q0 32 -5.5 46t-19.5 18l-19 5q-18 6 -18 16q0 9 5.5 13.5t21.5 9.5q36 10 78 39q13 9 22 9q10 0 17 -6t7 -15v-271q0 -123 96 -123q31 0 56 13q27 13 47 31q29 24 53 65v150
q0 32 -5 45.5t-20 18.5l-18 5q-18 5 -18 16q0 9 5.5 13.5t21.5 9.5q37 11 77 39q14 9 23 9q11 0 18.5 -6.5t7.5 -14.5v-303q0 -42 9 -58t35 -21q12 -2 15 -4.5t3 -10.5q0 -15 -25 -22q-34 -10 -80 -38q-15 -9 -26 -9q-14 0 -20 8q-3 7 -3 39zM304 514l-119 60
q-22 12 -29.5 20t-7.5 22q0 16 10 26.5t26 10.5q17 0 41 -18l105 -76q21 -15 21 -26q0 -10 -7 -18t-17 -8t-23 7z" />
    <glyph glyph-name="uacute" unicode="&#xfa;" horiz-adv-x="582" 
d="M415 30v77q-34 -44 -61 -65q-67 -56 -135 -56q-77 0 -117 56q-16 25 -22 50.5t-6 73.5v148q0 32 -5.5 46t-19.5 18l-19 5q-18 6 -18 16q0 9 5.5 13.5t21.5 9.5q36 10 78 39q13 9 22 9q10 0 17 -6t7 -15v-271q0 -123 96 -123q31 0 56 13q27 13 47 31q29 24 53 65v150
q0 32 -5 45.5t-20 18.5l-18 5q-18 5 -18 16q0 9 5.5 13.5t21.5 9.5q37 11 77 39q14 9 23 9q11 0 18.5 -6.5t7.5 -14.5v-303q0 -42 9 -58t35 -21q12 -2 15 -4.5t3 -10.5q0 -15 -25 -22q-34 -10 -80 -38q-15 -9 -26 -9q-14 0 -20 8q-3 7 -3 39zM423 572l-124 -61
q-10 -6 -22 -6q-9 0 -15.5 7.5t-6.5 17.5q0 15 18 27l113 80q20 14 33 14q17 0 28 -10.5t11 -27.5q0 -24 -35 -41z" />
    <glyph glyph-name="ucircumflex" unicode="&#xfb;" horiz-adv-x="582" 
d="M415 30v77q-34 -44 -61 -65q-67 -56 -135 -56q-77 0 -117 56q-16 25 -22 50.5t-6 73.5v148q0 32 -5.5 46t-19.5 18l-19 5q-18 6 -18 16q0 9 5.5 13.5t21.5 9.5q36 10 78 39q13 9 22 9q10 0 17 -6t7 -15v-271q0 -123 96 -123q31 0 56 13q27 13 47 31q29 24 53 65v150
q0 32 -5 45.5t-20 18.5l-18 5q-18 5 -18 16q0 9 5.5 13.5t21.5 9.5q37 11 77 39q14 9 23 9q11 0 18.5 -6.5t7.5 -14.5v-303q0 -42 9 -58t35 -21q12 -2 15 -4.5t3 -10.5q0 -15 -25 -22q-34 -10 -80 -38q-15 -9 -26 -9q-14 0 -20 8q-3 7 -3 39zM425 511l-126 61l-124 -61
q-13 -5 -20 -5q-9 0 -15.5 7.5t-6.5 18.5q0 13 18 25l114 82q23 17 36 17q8 0 34 -17l114 -82q18 -12 18 -25q0 -11 -6.5 -18.5t-15.5 -7.5q-3 0 -20 5z" />
    <glyph glyph-name="udieresis" unicode="&#xfc;" horiz-adv-x="582" 
d="M415 30v77q-34 -44 -61 -65q-67 -56 -135 -56q-77 0 -117 56q-16 25 -22 50.5t-6 73.5v148q0 32 -5.5 46t-19.5 18l-19 5q-18 6 -18 16q0 9 5.5 13.5t21.5 9.5q36 10 78 39q13 9 22 9q10 0 17 -6t7 -15v-271q0 -123 96 -123q31 0 56 13q27 13 47 31q29 24 53 65v150
q0 32 -5 45.5t-20 18.5l-18 5q-18 5 -18 16q0 9 5.5 13.5t21.5 9.5q37 11 77 39q14 9 23 9q11 0 18.5 -6.5t7.5 -14.5v-303q0 -42 9 -58t35 -21q12 -2 15 -4.5t3 -10.5q0 -15 -25 -22q-34 -10 -80 -38q-15 -9 -26 -9q-14 0 -20 8q-3 7 -3 39zM149 573q0 24 16 40t39 16
t39.5 -16t16.5 -40q0 -23 -16.5 -39t-39.5 -16t-39 16t-16 39zM325 573q0 24 16.5 40t39.5 16t39.5 -16t16.5 -40q0 -23 -16.5 -39t-39.5 -16t-39.5 16t-16.5 39z" />
    <glyph glyph-name="ydieresis" unicode="&#xff;" horiz-adv-x="491" 
d="M218 -104l34 103l-175 340q-2 3 -12.5 22.5t-13.5 25.5q-20 32 -46 35l-9 1q-14 2 -14 17q0 10 5 13.5t19 3.5h182q25 0 25 -17q0 -15 -14 -17l-10 -1q-30 -4 -30 -22q0 -15 22 -61l113 -227l84 227q17 42 17 59q0 20 -31 24l-8 1q-15 1 -15 16q0 11 5 14.5t20 3.5h118
q25 0 25 -17q0 -15 -14 -17l-10 -1q-26 -3 -37 -17q-16 -13 -35 -66l-167 -460q-34 -97 -124 -97q-41 0 -72 22t-31 52q0 16 11 26.5t27 10.5q23 0 35 -19l6 -17q15 -33 45 -33q23 0 43.5 19.5t31.5 52.5zM121 562q0 24 16 40t39 16t39.5 -16t16.5 -40q0 -23 -16.5 -39
t-39.5 -16t-39 16t-16 39zM297 562q0 24 16.5 40t39.5 16t39.5 -16t16.5 -40q0 -23 -16.5 -39t-39.5 -16t-39.5 16t-16.5 39z" />
    <glyph glyph-name="dotlessi" unicode="&#x131;" horiz-adv-x="255" 
d="M215 0h-174q-26 0 -26 18q0 16 15 17l9 2q25 3 33 15q1 2 2 4.5t2.5 7l2.5 7.5q4 20 4 47v196q0 32 -5.5 45.5t-20.5 18.5l-18 5q-18 5 -18 16q0 9 5.5 13.5t21.5 9.5q37 11 77 39q13 9 23 9q11 0 18.5 -6t7.5 -15v-331q0 -38 2 -47q3 -17 11.5 -24.5t28.5 -9.5l10 -2
q14 -3 14 -17q0 -18 -25 -18z" />
    <glyph glyph-name="OE" unicode="&#x152;" horiz-adv-x="1253" 
d="M636 622v69q0 18 6 24t23 6h480q27 0 32 -20l22 -78q0 -2 1 -5q1 -2 1 -4v-1q0 -13 -15 -13q-8 0 -16 12q-21 24 -66 44q-61 27 -198 27q-114 0 -140.5 -11.5t-26.5 -62.5v-215h207q47 0 67.5 12t28.5 43q6 19 9 23.5t14 4.5q20 0 20 -21q0 -5 -2 -19q-3 -18 -3 -61
q0 -48 3 -68q3 -15 3 -23q0 -20 -23 -20q-14 0 -21 25q-11 37 -35.5 51.5t-77.5 14.5h-190v-251q0 -33 19 -49q24 -19 151 -19q129 0 198 24q34 11 67 34t51 49q14 19 25 19q12 0 12 -11q0 -17 -26 -66q-8 -18 -28 -46q-30 -40 -89 -40h-450q-23 0 -28.5 4.5t-5.5 22.5v69
l-29 -22q-72 -53 -113.5 -70.5t-102.5 -17.5q-160 0 -263 106t-103 269q0 160 103.5 267t259.5 107q72 0 125 -23q39 -17 63.5 -34.5t60.5 -55.5zM137 383q0 -28 4 -53q14 -145 78.5 -224t169.5 -79q114 0 178.5 83.5t64.5 228.5q0 162 -70 258t-188 96q-110 0 -173.5 -83
t-63.5 -227z" />
    <glyph glyph-name="oe" unicode="&#x153;" horiz-adv-x="852" 
d="M464 378q27 33 44.5 48t45.5 27q39 19 90 19q71 0 126 -43.5t55 -100.5q0 -14 -9.5 -22t-32.5 -13l-275 -64q6 -53 17.5 -81.5t36.5 -53.5q42 -42 101 -42q67 0 111 50l23 27q8 8 17 8q15 0 15 -15q0 -20 -25 -53q-61 -83 -167 -83q-56 0 -91.5 18t-86.5 70
q-29 -33 -47.5 -47t-49.5 -26q-41 -16 -90 -16q-105 0 -174 69.5t-69 174.5t68 174t171 69q55 0 103 -22q29 -14 45.5 -27t47.5 -45zM538 373q-17 -28 -23 -50.5t-6 -64.5l189 58q19 6 26.5 13t7.5 20q0 30 -28 56q-29 27 -67 27q-63 0 -99 -59zM129 252q0 -20 1 -29
q6 -89 47.5 -144t103.5 -55q60 0 96.5 49.5t36.5 130.5q0 102 -43.5 164.5t-112.5 62.5q-58 0 -93.5 -49t-35.5 -130z" />
    <glyph glyph-name="Scaron" unicode="&#x160;" horiz-adv-x="564" 
d="M34 29l-36 159q-4 17 -4 23q0 18 16 18q11 0 17 -15q78 -186 254 -186q74 0 122 39.5t48 100.5q0 41 -26 73q-16 21 -40 36q-21 15 -55 31q-3 2 -64 29q-103 47 -145 76q-80 55 -80 146q0 80 62.5 128t164.5 48q49 0 106.5 -13t89.5 -31q26 -14 35 -64q5 -27 5 -29
q2 -10 2 -11q0 -16 -13 -16q-11 0 -24 18q-36 51 -88 78.5t-109 27.5q-58 0 -97 -31t-39 -77q0 -22 15 -49q14 -20 34.5 -33.5t66.5 -34.5q107 -48 127 -58q87 -42 123.5 -87.5t36.5 -111.5q0 -99 -74 -163t-188 -64q-40 0 -67.5 5t-79.5 23q-4 1 -11 3t-11 4q-8 3 -14 3
q-10 0 -22 -14q-8 -13 -18 -13q-8 0 -11.5 5.5t-8.5 26.5zM148 938l125 -60l124 60q14 6 22 6t14 -8t6 -19t-17 -25l-115 -82q-23 -17 -34 -17q-13 0 -36 17l-114 82q-18 14 -18 26q0 10 7 18t15 8q9 0 21 -6z" />
    <glyph glyph-name="scaron" unicode="&#x161;" horiz-adv-x="396" 
d="M182 305l39 -17q69 -31 88 -44q63 -41 63 -109q0 -65 -51 -107t-129 -42q-53 0 -98 15.5t-58 38.5q-10 17 -20 56q-7 27 -7 40q0 16 16 16q10 0 17 -16q30 -58 67.5 -83.5t90.5 -25.5q46 0 75.5 21.5t29.5 56.5q0 19 -16 39q-15 13 -27 20t-41 20q-1 0 -14.5 5.5
t-25.5 10.5q-67 29 -96 49q-50 35 -50 96q0 57 42.5 92t113.5 35q41 0 81.5 -13t58.5 -33q4 -4 12 -20q0 -1 1 -4t2.5 -10t3.5 -13q7 -23 7 -28q0 -16 -15 -16q-5 0 -14 11q-55 85 -139 85q-36 0 -57 -15.5t-21 -42.5q0 -23 14 -36.5t57 -31.5zM69 652l125 -60l124 60
q14 6 22 6t14 -8t6 -19t-17 -25l-115 -82q-23 -17 -34 -17q-13 0 -36 17l-114 82q-18 14 -18 26q0 10 7 18t15 8q9 0 21 -6z" />
    <glyph glyph-name="Ydieresis" unicode="&#x178;" horiz-adv-x="668" 
d="M210 848q0 24 16 40t39 16t39.5 -16t16.5 -40q0 -23 -16.5 -39t-39.5 -16t-39 16t-16 39zM386 848q0 24 16.5 40t39.5 16t39.5 -16t16.5 -40q0 -23 -16.5 -39t-39.5 -16t-39.5 16t-16.5 39zM292 130v227l-188 234q-37 45 -58.5 62t-51.5 23l-5 1q-19 3 -19 22q0 22 29 22
h220q30 0 30 -22q0 -17 -20 -22l-4 -1q-16 -4 -21.5 -7.5t-5.5 -11.5q0 -21 37 -66l151 -190l142 190q31 40 31 60q0 12 -6 16t-31 9l-5 1q-19 5 -19 22q0 22 30 22h140q29 0 29 -22q0 -17 -18 -22l-5 -1q-42 -10 -80 -60l-18 -25l-179 -243v-218q0 -40 11.5 -58.5
t39.5 -23.5l15 -3l4 -1q18 -4 18 -22q0 -22 -29 -22h-215q-29 0 -29 22q0 17 18 22l5 1q23 4 34 10q23 17 23 75z" />
    <glyph glyph-name="Zcaron" unicode="&#x17d;" horiz-adv-x="615" 
d="M30 44l421 581q-102 6 -189 6q-89 0 -132 -4q-46 -4 -47 -43q-1 -25 -18 -25t-17 20v3q0 15 0.5 34.5t0.5 24.5v29q0 38 7 45q6 6 41 6h425q21 0 29 -3t8 -12q0 -7 -13 -25l-368 -511q-20 -29 -20 -44q0 -18 63 -20l78 -1l12 -1q78 -7 153 17q55 19 83 57l16 21
q9 11 16 11q19 0 19 -16q0 -11 -47 -101q-34 -60 -61 -77q-25 -16 -84 -16h-354q-23 0 -30 2.5t-7 12.5q0 9 15 29zM187 938l125 -60l124 60q14 6 22 6t14 -8t6 -19t-17 -25l-115 -82q-23 -17 -34 -17q-13 0 -36 17l-114 82q-18 14 -18 26q0 10 7 18t15 8q9 0 21 -6z" />
    <glyph glyph-name="zcaron" unicode="&#x17e;" horiz-adv-x="464" 
d="M414 414l-300 -333q49 -3 111 -3q78 0 107 6q44 8 66 34l15 18q7 9 16 9q19 0 19 -19t-21 -59q-20 -36 -56 -53q-25 -14 -92 -14h-229q-20 0 -28.5 4.5t-8.5 16.5q0 10 21 32l262 289q15 16 15 26t-42 11l-60 2h-9q-48 0 -68 -4q-17 -2 -24.5 -10.5t-11.5 -28.5
q-5 -23 -20 -23q-21 0 -21 22v85v19q0 8 6 11q5 5 32 5h305h19q13 -1 13 -16q0 -9 -16 -27zM120 652l125 -60l124 60q13 6 22 6q8 0 14 -8t6 -19t-17 -25l-115 -82q-23 -17 -34 -17q-13 0 -36 17l-114 82q-18 14 -18 26q0 10 7 18t15 8q9 0 21 -6z" />
    <glyph glyph-name="florin" unicode="&#x192;" horiz-adv-x="389" 
d="M89 62l37 355l-38 -1q-24 0 -24 16q0 23 28 23h39q11 114 54 177q33 47 94 85q28 13 56 13q33 0 53 -17.5t20 -46.5q0 -22 -15.5 -39.5t-34.5 -17.5q-15 0 -15 16q0 6 1 9v14q0 38 -32 38q-26 0 -45 -33q-33 -55 -43 -168l-3 -30h75q4 0 7.5 -0.5t5.5 -0.5h2q12 0 12 -12
q0 -6 -5 -14q-7 -10 -10 -11q-1 -1 -17 -1h-75l-38 -353q-12 -118 -70 -198t-133 -80q-31 0 -52 17t-21 42q0 16 8 34q17 30 42 30q16 0 16 -16q0 -1 -1 -5.5t-1 -6.5v-8q0 -44 30 -44q69 0 93 234z" />
    <glyph glyph-name="circumflex" unicode="&#x2c6;" horiz-adv-x="334" 
d="M292 511l-126 61l-124 -61q-13 -5 -20 -5q-9 0 -15.5 7.5t-6.5 18.5q0 13 18 25l114 82q23 17 36 17q8 0 34 -17l114 -82q18 -12 18 -25q0 -11 -6.5 -18.5t-15.5 -7.5q-3 0 -20 5z" />
    <glyph glyph-name="caron" unicode="&#x2c7;" horiz-adv-x="335" 
d="M43 652l125 -60l124 60q14 6 22 6t14 -8t6 -19t-17 -25l-115 -82q-23 -17 -34 -17q-13 0 -36 17l-114 82q-18 14 -18 26q0 10 7 18t15 8q9 0 21 -6z" />
    <glyph glyph-name="breve" unicode="&#x2d8;" horiz-adv-x="478" 
d="M445 632l-208 -142l-208 142q-21 14 -21 29q0 17 17 17q13 0 25 -6l188 -87l187 87q11 6 24 6q18 0 18 -17q0 -14 -22 -29z" />
    <glyph glyph-name="dotaccent" unicode="&#x2d9;" horiz-adv-x="126" 
d="M0 606q0 26 18 45t44 19t45 -19t19 -46q0 -25 -18.5 -43t-44.5 -18t-44.5 18t-18.5 44z" />
    <glyph glyph-name="ring" unicode="&#x2da;" horiz-adv-x="235" 
d="M39 581q0 32 23.5 55t55.5 23t55 -22.5t23 -54.5q0 -34 -23 -57.5t-55 -23.5t-55.5 23.5t-23.5 56.5zM118 617q-16 0 -26.5 -10.5t-10.5 -25.5q0 -16 10.5 -27t26.5 -11q14 0 25 11t11 27q0 15 -11 25.5t-25 10.5z" />
    <glyph glyph-name="ogonek" unicode="&#x2db;" horiz-adv-x="177" 
d="M25 49q0 27 17.5 46.5t43.5 19.5q28 0 48 -19.5t20 -46.5q0 -26 -19.5 -44.5t-45.5 -18.5q-27 0 -45.5 18.5t-18.5 44.5z" />
    <glyph glyph-name="tilde" unicode="&#x2dc;" horiz-adv-x="326" 
d="M3 537q-1 3 -1 9q0 19 19 33q32 29 68 29q23 0 57 -13q62 -21 82 -21q27 0 56 20q14 6 18 6q9 0 15.5 -9.5t6.5 -21.5q0 -18 -13 -31q-30 -32 -74 -32q-15 0 -68 15q-49 16 -71 16q-26 0 -47 -13q-13 -9 -16 -9q-4 -4 -10 -4q-20 0 -22 26z" />
    <glyph glyph-name="hungarumlaut" unicode="&#x2dd;" horiz-adv-x="226" 
d="M205 572l-124 -61q-11 -6 -22 -6q-9 0 -15.5 7.5t-6.5 17.5q0 15 18 27l113 80q20 14 33 14q17 0 28 -10.5t11 -27.5q0 -24 -35 -41z" />
    <glyph glyph-name="pi" unicode="&#x3c0;" horiz-adv-x="594" 
d="M428 372h-14q-7 0 -10 1q0 -2 -0.5 -10t-0.5 -14q-3 -72 -3 -150v-40q0 -83 8 -104q9 -22 31 -22q26 -2 41 29q14 30 17 89h25v-5q0 -80 -26 -118t-80 -38q-57 -2 -80 39q-23 40 -23 165q0 35 1 78l3 104q-27 0 -50 1q-15 0 -77 2q0 -234 -23 -310q-22 -78 -80 -79
q-35 0 -53 29q-17 29 -17 86v19h24q2 -29 10 -40q9 -12 27 -12q41 0 58 62q17 65 20 245h-22q-38 0 -60 -13q-21 -13 -27 -40h-23q3 67 38 96q34 27 121 27q17 0 102 -3q84 -3 152 -3q35 0 49 7q15 7 17 21v1h23v-3q0 -50 -24 -74q-21 -21 -74 -23z" />
    <glyph glyph-name="endash" unicode="&#x2013;" 
d="M474 332h-453v84h453v-84z" />
    <glyph glyph-name="emdash" unicode="&#x2014;" horiz-adv-x="996" 
d="M966 331h-936v74h936v-74z" />
    <glyph glyph-name="quoteleft" unicode="&#x2018;" horiz-adv-x="181" 
d="M26 559q-2 5 -2 20q0 53 27 91q18 26 41.5 44.5t39.5 18.5q18 0 18 -17q0 -6 -12 -14q-41 -29 -41 -60q0 -10 3.5 -14.5t18.5 -12.5t26 -23.5t11 -30.5q0 -24 -19 -42t-44 -18q-24 0 -42.5 15.5t-24.5 42.5z" />
    <glyph glyph-name="quoteright" unicode="&#x2019;" horiz-adv-x="181" 
d="M26 670q0 26 18 44t44 18q31 0 50.5 -23t19.5 -59q0 -45 -28 -89q-15 -24 -40.5 -43t-40.5 -19q-19 0 -19 18q0 3 12 14q42 25 42 59q0 9 -4 13.5t-18 12.5q-36 21 -36 54z" />
    <glyph glyph-name="quotesinglbase" unicode="&#x201a;" horiz-adv-x="181" 
d="M26 58q0 26 18 44t44 18q31 0 50.5 -23t19.5 -59q0 -49 -28 -89q-16 -24 -41 -42.5t-40 -18.5q-19 0 -19 17q0 5 12 14q42 26 42 59q0 10 -4 14.5t-18 12.5q-16 8 -26 23.5t-10 29.5z" />
    <glyph glyph-name="quotedblleft" unicode="&#x201c;" horiz-adv-x="342" 
d="M92 501q-31 0 -50 23t-19 61q0 45 28 85q18 25 42 44t39 19q17 0 17 -17q0 -6 -11 -14q-42 -28 -42 -60q0 -10 3.5 -14t19.5 -13q15 -8 25.5 -23.5t10.5 -31.5q0 -23 -19 -41t-44 -18zM187 612q13 59 65 100q26 21 41 21q18 0 18 -17q0 -6 -12 -14q-41 -29 -41 -60
q0 -10 4 -14.5t18 -12.5q16 -8 26.5 -23.5t10.5 -30.5q0 -24 -18.5 -42t-44.5 -18q-32 0 -50.5 23t-18.5 61q0 9 2 27z" />
    <glyph glyph-name="quotedblright" unicode="&#x201d;" horiz-adv-x="342" 
d="M26 669q0 26 18.5 44t44.5 18q31 0 49.5 -23.5t18.5 -61.5q0 -46 -27 -86q-15 -24 -40.5 -43t-40.5 -19q-19 0 -19 18q0 4 12 14q42 26 42 59q0 9 -4 13.5t-18 12.5q-36 21 -36 54zM187 669q0 26 18.5 44t44.5 18q31 0 50 -23.5t19 -61.5q0 -47 -27 -86
q-16 -24 -41.5 -43t-40.5 -19q-18 0 -18 18q0 5 12 14q41 27 41 59q0 9 -3.5 13.5t-17.5 12.5q-16 9 -26.5 24.5t-10.5 29.5z" />
    <glyph glyph-name="quotedblbase" unicode="&#x201e;" horiz-adv-x="342" 
d="M26 58q0 26 18.5 44t44.5 18q31 0 49.5 -23.5t18.5 -60.5q0 -49 -27 -87q-16 -24 -41 -42.5t-40 -18.5q-19 0 -19 17q0 5 12 14q42 26 42 59q0 10 -4 14.5t-18 12.5q-16 8 -26 23.5t-10 29.5zM187 58q0 26 18.5 44t45.5 18q30 0 49 -23.5t19 -60.5q0 -51 -27 -87
q-15 -23 -40.5 -42t-40.5 -19q-19 0 -19 17q0 7 12 14q41 27 41 59q0 10 -3.5 14.5t-17.5 12.5q-16 8 -26.5 23.5t-10.5 29.5z" />
    <glyph glyph-name="dagger" unicode="&#x2020;" horiz-adv-x="658" 
d="M359 719l40 3l19 3h8q19 0 19 -19q0 -10 -17 -16l-23 -7q-30 -9 -30 -42v-113q0 -26 11 -37.5t36 -11.5h121q39 0 48 50q2 13 5 17t10 4q17 0 17 -17q0 -13 -5 -38q-4 -25 -4 -63q0 -28 3 -59q4 -25 4 -42q0 -19 -15 -19q-11 0 -14 3.5t-6 16.5q-6 28 -18.5 39.5
t-36.5 11.5l-102 -1q-23 0 -30 -2t-14 -11q-9 -12 -9 -54l-3 -473q0 -35 -9.5 -47.5t-35.5 -12.5q-24 0 -33.5 13t-9.5 47l-3 473q0 41 -8 54q-9 13 -45 13l-103 1q-23 0 -35.5 -11.5t-18.5 -39.5q-4 -21 -16 -21q-19 0 -19 20q0 1 1 7.5t2 16.5t1 18q2 14 2 59q0 38 -4 63
q-4 20 -4 37q0 18 14 18q10 0 13 -3.5t5 -17.5q8 -50 49 -50h120q24 0 35 11.5t11 37.5v113q0 17 -6 26q-13 13 -24 16l-22 7q-18 6 -18 16q0 19 19 19h9l18 -3l41 -3l30 -3z" />
    <glyph glyph-name="daggerdbl" unicode="&#x2021;" horiz-adv-x="667" 
d="M265 716l40 -4l29 -2q5 -1 30 2q7 2 42 4q9 0 19 2q2 0 6.5 0.5t6.5 0.5q12 0 12 -22q0 -11 -18 -15l-20 -7q-29 -11 -29 -40l-1 -114q0 -26 10 -36.5t35 -10.5h122q20 0 28 7q5 5 14 22q6 9 7 19q2 15 4 18.5t9 3.5q11 0 14.5 -3.5t3.5 -14.5q0 -9 -4 -37q-4 -31 -4 -64
q0 -38 2 -56t2 -43q0 -17 -13 -17t-14 1q-2 2 -7 19q-5 25 -17.5 36t-38.5 11l-103 1q-32 0 -41.5 -12.5t-9.5 -53.5l-2 -114q-1 -37 10 -55q6 -9 12 -10.5t31 -1.5l104 -1q25 0 36.5 10.5t17.5 39.5q5 20 16 20q18 0 18 -17q0 -32 -2 -45q-4 -31 -4 -60q0 -34 4 -61
q4 -36 4 -37q0 -14 -12 -14h-3l-11 3q-4 0 -5 16q-2 21 -15.5 35.5t-32.5 14.5h-121q-47 0 -47 -49v-111q0 -23 9 -32t42 -18q18 -6 18 -15q0 -19 -20 -19q-5 0 -7 1q-3 0 -9 0.5t-9 0.5q-7 1 -14.5 2t-12 1.5t-8 1t-5.5 0.5h-3q-22 3 -28 3q-9 0 -30 -4q-13 0 -40 -4
l-21 -2h-7q-19 0 -19 21q0 8 17 13q33 8 43.5 18t10.5 32v112q0 26 -10.5 37t-37.5 11h-119q-18 0 -32 -14t-19 -36q-2 -15 -3.5 -17.5t-8.5 -2.5q-11 0 -14 3t-3 12q0 12 3 37q3 33 3 64q0 3 -2 57q-2 38 -2 42q-1 1 -1 5q0 9 3.5 12t13.5 3q8 0 11.5 -3.5t6.5 -16.5
q6 -28 18 -38.5t38 -10.5h101q36 0 45 11t9 55l2 115q0 44 -9 55t-47 11h-100q-25 0 -37.5 -10.5t-18.5 -36.5q-6 -21 -15 -21q-20 0 -20 17q0 4 1 5l3 39q4 36 4 60q0 31 -5 60q-3 25 -3 39q0 16 12 16q10 0 13 -3.5t5 -17.5q8 -49 50 -49l119 -1q30 0 39.5 9t9.5 38v115
q0 30 -31 39l-23 6q-18 5 -18 17q0 21 20 21h7z" />
    <glyph glyph-name="bullet" unicode="&#x2022;" horiz-adv-x="206" 
d="M39 230q0 27 18 46.5t44 19.5q27 0 47 -19.5t20 -47.5q0 -26 -19 -44.5t-45 -18.5q-27 0 -46 19t-19 45z" />
    <glyph glyph-name="ellipsis" unicode="&#x2026;" horiz-adv-x="996" 
d="M104 53q0 26 18.5 44.5t44.5 18.5t44.5 -18.5t18.5 -44.5t-18.5 -44.5t-44.5 -18.5t-44.5 18.5t-18.5 44.5zM437 53q0 26 18.5 44.5t44.5 18.5t44.5 -18.5t18.5 -44.5t-18.5 -44.5t-44.5 -18.5t-44.5 18.5t-18.5 44.5zM770 53q0 26 18.5 44.5t44.5 18.5t44.5 -18.5
t18.5 -44.5t-18.5 -44.5t-44.5 -18.5t-44.5 18.5t-18.5 44.5z" />
    <glyph glyph-name="perthousand" unicode="&#x2030;" horiz-adv-x="966" 
d="M39 552q0 79 38.5 128.5t100.5 49.5q63 0 102 -49.5t39 -128.5q0 -78 -38.5 -128t-101.5 -50t-101.5 49t-38.5 129zM170 0h-46l358 721h48zM329 163q0 79 38.5 128.5t101.5 49.5q62 0 101 -49.5t39 -128.5t-39 -128t-101 -49q-63 0 -101.5 49t-38.5 128zM648 163
q0 79 38 128.5t101 49.5q62 0 101.5 -49.5t39.5 -128.5t-39.5 -128t-101.5 -49t-100 49t-39 128zM469 304q-34 0 -54 -38t-20 -103q0 -64 20 -102t54 -38t54 38t20 102q0 65 -20 103t-54 38zM178 693q-33 0 -53 -38.5t-20 -102.5t20 -102.5t53 -38.5q35 0 55 38.5t20 102.5
q0 65 -20 103t-55 38zM787 304q-33 0 -53 -38t-20 -103q0 -64 20 -102t53 -38t54 38.5t21 101.5q0 64 -21 102.5t-54 38.5z" />
    <glyph glyph-name="guilsinglleft" unicode="&#x2039;" horiz-adv-x="265" 
d="M181 22l-142 208l142 208q13 21 29 21q17 0 17 -17q0 -13 -6 -25l-88 -187l88 -188q6 -14 6 -24q0 -17 -18 -17q-14 0 -28 21z" />
    <glyph glyph-name="guilsinglright" unicode="&#x203a;" horiz-adv-x="265" 
d="M84 438l142 -208l-142 -208q-14 -21 -28 -21q-17 0 -17 17q0 12 5 24l88 188l-88 187q-5 10 -5 24q0 18 17 18q13 0 28 -21z" />
    <glyph glyph-name="Euro" unicode="&#x20ac;" horiz-adv-x="803" 
d="M594 342l-19 -46h-358q16 -122 88.5 -194.5t180.5 -72.5q80 0 153.5 40.5t105.5 100.5q10 20 21 20q4 0 8 -4t4 -9q0 -1 -0.5 -5.5t-0.5 -9.5l-16 -110q-3 -18 -5.5 -22t-10.5 -4q-4 0 -13 6q-12 12 -19 12q-11 0 -32 -10l-45 -19q-80 -30 -158 -30q-157 0 -258.5 84.5
t-117.5 226.5h-77l20 46h54v8v28h-74l20 46h60q24 139 129 225t254 86q133 0 231 -53q31 -16 38 -76l4 -36v-8q0 -18 -14 -18q-10 0 -22 21q-13 23 -58 64q-74 65 -175 65q-110 0 -184.5 -73.5t-90.5 -196.5h412l-20 -46h-396v-20v-16h381z" />
    <glyph glyph-name="trademark" unicode="&#x2122;" horiz-adv-x="788" 
d="M127 670h-80v50h217v-50h-81v-310h-56v310zM308 360h-56l69 369h30l100 -228q15 -36 16 -63q1 32 16 63l100 228h30l69 -369h-56l-36 210l-2 11l-1 9q-2 21 1 35l-10 -35l-5 -13l-1 -5l-95 -220h-20l-95 220l-2 7l-4 12l-10 34q3 -14 1 -35l-1 -9l-2 -11z" />
    <glyph glyph-name="Omega" unicode="&#x2126;" horiz-adv-x="830" 
d="M470 149v-59h123q47 0 67 17q18 18 21 69h23v-176h-272v180q77 15 123 76q45 62 45 152q0 107 -58 168q-60 63 -158 63t-157 -63q-59 -62 -59 -168q0 -91 44 -152q44 -60 124 -76v-180h-272v176h23q3 -51 20 -68q18 -18 68 -18h123v59q-118 21 -183 89t-65 170
q0 120 92 194q92 73 242 73t242 -73q91 -74 92 -194q0 -99 -65 -170q-64 -67 -183 -89z" />
    <glyph glyph-name="partialdiff" unicode="&#x2202;" horiz-adv-x="534" 
d="M313 357q29 -21 45 -70q6 23 9 59t3 89q0 87 -16 126q-15 41 -47 41q-18 0 -50 -35q-31 -34 -56 -35q-17 0 -27 9q-8 6 -10 23q0 30 29 50q30 21 73 21q77 2 124 -72q46 -73 46 -196q0 -163 -64 -272q-64 -108 -158 -108q-68 0 -110 51q-40 51 -42 137q0 82 53 144
q52 60 125 61q44 0 73 -23zM319 317q-21 32 -63 32q-52 0 -87 -60q-31 -55 -33 -161q0 -57 22 -88q21 -31 62 -31q53 0 87 61q33 64 34 154q0 59 -22 93z" />
    <glyph glyph-name="increment" unicode="&#x2206;" horiz-adv-x="662" 
d="M297 672h22l276 -672h-574zM465 45l-186 459l-187 -459h373z" />
    <glyph glyph-name="product" unicode="&#x220f;" horiz-adv-x="890" 
d="M30 -216v40h88v880h-88v40h767v-40h-88v-880h88v-40h-264v40h84v880h-407v-880h84v-40h-264z" />
    <glyph glyph-name="summation" unicode="&#x2211;" horiz-adv-x="771" 
d="M592 729q17 -14 26 -86l15 -129h-44q-31 104 -85 144q-52 39 -169 39h-132l315 -431l-344 -394h187q123 0 172 31q52 32 83 117h45l-30 -130l-2 -7q-15 -50 -41 -74.5t-70 -24.5h-482l389 446l-375 514h460q66 0 82 -15z" />
    <glyph glyph-name="slashmath" unicode="&#x2215;" horiz-adv-x="245" 
d="M-63 0h-47l418 721h48z" />
    <glyph glyph-name="radical" unicode="&#x221a;" horiz-adv-x="594" 
d="M501 811h93v-47h-57l-290 -784h-32l-156 431l-61 -22l-12 39l138 48l125 -346z" />
    <glyph glyph-name="infinity" unicode="&#x221e;" horiz-adv-x="771" 
d="M430 144q-33 27 -64 94q-34 -63 -72 -94q-38 -30 -85 -30q-63 0 -110 53q-46 53 -46 131q0 82 41 134q41 51 105 52q47 0 83 -30q35 -29 65 -94q32 62 70 93q37 31 87 31q63 0 110 -53q45 -53 45 -131q0 -83 -40 -135q-41 -51 -105 -51q-48 0 -84 30zM257 205
q29 29 73 122q-25 46 -59 69q-33 24 -76 24q-51 0 -84 -35q-31 -33 -33 -90q0 -55 30 -89q28 -34 76 -34q40 0 73 33zM453 390q-32 -34 -70 -119q25 -48 58 -70q34 -23 77 -23q51 -1 84 35q32 33 33 90q0 56 -30 89q-30 34 -80 34q-37 0 -72 -36z" />
    <glyph glyph-name="integral" unicode="&#x222b;" horiz-adv-x="296" 
d="M200 726q37 31 83 31q36 0 58 -19q22 -17 23 -48q0 -21 -13 -35q-13 -13 -36 -13q-29 -2 -44 32q-15 32 -29 32q-50 0 -57 -310l-3 -98q-5 -143 -16 -229q-12 -87 -31 -133q-23 -53 -62 -86q-38 -31 -82 -31q-36 0 -58 19q-22 17 -23 48q0 22 13 35q12 12 36 12
q29 0 44 -31q15 -30 30 -32q47 0 57 324q0 14 0.5 43.5t1.5 40.5q5 140 15 227q12 87 32 135q24 55 61 86z" />
    <glyph glyph-name="approxequal" unicode="&#x2248;" horiz-adv-x="594" 
d="M102 153q-31 -13 -87 -53v77q47 30 86 44q40 14 75 14q41 1 115 -24q65 -22 99 -24q28 0 61 15q34 15 83 52v-78q-42 -28 -78 -42q-29 -11 -71 -13q-32 0 -104 24q-74 23 -116 23q-29 0 -63 -15zM104 273q-29 -12 -89 -54v77q54 33 84 43q42 14 76 14q47 0 116 -23
q75 -24 99 -24q25 0 61 14q35 17 83 52v-77q-39 -28 -79 -42q-32 -13 -70 -13q-33 0 -104 24q-74 23 -111 23q-33 0 -66 -14z" />
    <glyph glyph-name="notequal" unicode="&#x2260;" horiz-adv-x="594" 
d="M444 454l44 -44l-75 -74h91v-64h-149l-73 -72h222v-64h-281l-118 -118l-43 44l74 74h-91v64h150l73 72h-223v64h281z" />
    <glyph glyph-name="lessequal" unicode="&#x2264;" horiz-adv-x="594" 
d="M43 86h463v-68h-463v68zM506 458v-70l-344 -108l344 -107v-70l-462 145v65z" />
    <glyph glyph-name="greaterequal" unicode="&#x2265;" horiz-adv-x="594" 
d="M43 86h463v-68h-463v68zM43 458l463 -145v-65l-463 -145v70l344 107l-344 108v70z" />
    <glyph glyph-name="lozenge" unicode="&#x25ca;" horiz-adv-x="534" 
d="M247 -233l-244 522l244 518l244 -518zM247 -114l188 403l-188 399l-188 -399z" />
    <glyph glyph-name="dieresisnarrow" unicode="&#xec00;" horiz-adv-x="256" 
d="M-16 562q0 24 16 40t39 16t39.5 -16t16.5 -40q0 -23 -16.5 -39t-39.5 -16t-39 16t-16 39zM160 562q0 24 16.5 40t39.5 16t39.5 -16t16.5 -40q0 -23 -16.5 -39t-39.5 -16t-39.5 16t-16.5 39z" />
    <glyph glyph-name="Dieresisnarrow" unicode="&#xec01;" horiz-adv-x="256" 
d="M-16 848q0 24 16 40t39 16t39.5 -16t16.5 -40q0 -23 -16.5 -39t-39.5 -16t-39 16t-16 39zM160 848q0 24 16.5 40t39.5 16t39.5 -16t16.5 -40q0 -23 -16.5 -39t-39.5 -16t-39.5 16t-16.5 39z" />
    <glyph glyph-name="Euro_master1" unicode="&#xec04;" horiz-adv-x="803" 
d="M757 606l4 -36v-8q0 -18 -14 -18q-10 0 -22 21q-13 23 -58 64q-74 65 -175 65q-124 0 -201.5 -93.5t-77.5 -242.5q0 -146 76 -237.5t197 -91.5q80 0 153.5 40.5t105.5 100.5q10 20 21 20q4 0 8 -4t4 -9q0 -1 -0.5 -5.5t-0.5 -9.5l-16 -110q-3 -18 -5.5 -22t-10.5 -4
q-4 0 -13 6q-12 12 -19 12q-11 0 -32 -10l-45 -19q-80 -30 -158 -30q-172 0 -275.5 100t-103.5 265q0 167 110 276t279 109q133 0 231 -53q31 -16 38 -76zM629 424l-20 -46h-584l20 46h584zM594 342l-19 -46h-550l20 46h549z" />
    <glyph glyph-name="Dotaccent" unicode="&#xefed;" horiz-adv-x="126" 
d="M0 826q0 26 18 45t44 19t45 -19t19 -46q0 -25 -18.5 -43t-44.5 -18t-44.5 18t-18.5 44z" />
    <glyph glyph-name="Breve" unicode="&#xefee;" horiz-adv-x="478" 
d="M445 852l-208 -142l-208 142q-21 13 -21 29q0 17 17 17q13 0 25 -6l188 -87l187 87q11 6 24 6q18 0 18 -17q0 -14 -22 -29z" />
    <glyph glyph-name="Ring" unicode="&#xeff3;" horiz-adv-x="235" 
d="M39 801q0 32 23.5 55t55.5 23t55 -22.5t23 -54.5q0 -34 -23 -57.5t-55 -23.5t-55.5 23.5t-23.5 56.5zM118 837q-16 0 -26.5 -10.5t-10.5 -25.5q0 -16 10.5 -27t26.5 -11q14 0 25 11t11 27q0 15 -11 25.5t-25 10.5z" />
    <glyph glyph-name="Tilde" unicode="&#xeff5;" horiz-adv-x="326" 
d="M3 823q-1 3 -1 9q0 19 19 33q32 29 68 29q23 0 57 -13q62 -21 82 -21q27 0 56 20q14 6 18 6q9 0 15.5 -9.5t6.5 -21.5q0 -18 -13 -31q-30 -32 -74 -32q-15 0 -68 15q-49 16 -71 16q-26 0 -47 -13q-13 -9 -16 -9q-4 -4 -10 -4q-20 0 -22 26z" />
    <glyph glyph-name="Circumflex" unicode="&#xeff7;" horiz-adv-x="334" 
d="M292 797l-126 61l-124 -61q-13 -5 -20 -5q-9 0 -15.5 7.5t-6.5 18.5q0 13 18 25l114 82q23 17 36 17q8 0 34 -17l114 -82q18 -12 18 -25q0 -11 -6.5 -18.5t-15.5 -7.5q-3 0 -20 5z" />
    <glyph glyph-name="Acute" unicode="&#xf6c9;" horiz-adv-x="226" 
d="M205 858l-124 -61q-10 -6 -22 -6q-9 0 -15.5 7.5t-6.5 17.5q0 15 18 27l113 80q20 14 33 14q17 0 28 -10.5t11 -27.5q0 -24 -35 -41z" />
    <glyph glyph-name="Caron" unicode="&#xf6ca;" horiz-adv-x="335" 
d="M43 938l125 -60l124 60q14 6 22 6t14 -8t6 -19t-17 -25l-115 -82q-23 -17 -34 -17q-13 0 -36 17l-114 82q-18 14 -18 26q0 10 7 18t15 8q9 0 21 -6z" />
    <glyph glyph-name="Dieresis" unicode="&#xf6cb;" horiz-adv-x="326" 
d="M-16 785q0 27 19 45.5t46 18.5q28 0 47.5 -18.5t19.5 -44.5t-19 -44.5t-46 -18.5t-47 18t-20 44zM210 786q0 26 19 44.5t47 18.5q27 0 46.5 -18.5t19.5 -45.5q0 -26 -20 -44t-48 -18q-27 0 -45.5 18.5t-18.5 44.5z" />
    <glyph glyph-name="Grave" unicode="&#xf6ce;" horiz-adv-x="242" 
d="M158 800l-119 60q-22 12 -29.5 20t-7.5 22q0 16 10 26.5t26 10.5q17 0 41 -18l105 -76q21 -15 21 -26q0 -10 -7 -18t-17 -8t-23 7z" />
    <glyph glyph-name="Dblacute" unicode="&#xf6cf;" horiz-adv-x="226" 
d="M205 792l-124 -61q-10 -6 -22 -6q-9 0 -15.5 7.5t-6.5 17.5q0 15 18 27l113 80q20 14 33 14q17 0 28 -10.5t11 -27.5q0 -24 -35 -41z" />
    <glyph glyph-name="Macron" unicode="&#xf6d0;" horiz-adv-x="330" 
d="M321 736h-311v71h311v-71z" />
    <glyph glyph-name="onefitted" unicode="&#xf6dc;" horiz-adv-x="318" 
d="M112 130v21v403q0 59 -26 64l-29 6q-8 3 -11 5q-6 6 -6 10q0 9 5 14t21 10q26 7 50 18q10 5 21 10t16 7.5l7 3.5q9 4 26 4q9 0 15 -3q5 -1 9 -7q5 -5 5 -7v-559q0 -82 47 -85l13 -1q7 -1 13 -7.5t6 -14.5q0 -22 -30 -22h-206q-29 0 -29 22q0 17 20 22l4 1l13 3
q25 6 35.5 23t10.5 55v4z" />
    <glyph glyph-name="apple" unicode="&#xf8ff;" horiz-adv-x="854" 
d="M416 593h-3q-4 0 -5 1q0 5 -1 7v11q0 60 47 112q45 51 115 64v-12q0 -9 1 -18q0 -64 -51 -115q-50 -50 -99 -50h-4zM650 264q28 -42 85 -67q-57 -124 -100 -168q-46 -46 -100 -46q-26 0 -64 16t-60 16q-25 0 -64 -16t-62 -16q-34 0 -63 21q-26 19 -63 65q-47 65 -77 144
q-27 77 -27 147q-1 104 61 174q62 68 158 68q34 0 76 -17q45 -17 60 -17q17 0 59 17q45 17 75 17q56 0 97 -19q42 -19 78 -61q-49 -31 -74 -71q-24 -39 -24 -89q-1 -54 29 -98z" />
    <glyph glyph-name="CR" horiz-adv-x="290" 
 />
    <glyph glyph-name="Euro.alt" horiz-adv-x="749" 
d="M724 581l-29 -61q-38 47 -97.5 74.5t-132.5 27.5q-92 0 -161.5 -53.5t-94.5 -136.5h445l-30 -63h-429q-2 -26 -2 -33q0 -8 2 -30h400l-30 -63h-356q27 -90 97.5 -141t168.5 -51q136 0 220 99v-85q-98 -77 -225 -77q-121 0 -212.5 69t-119.5 186h-113l30 63h71
q-1 13 -1 31q0 19 1 32h-101l30 63h83q27 117 119.5 185t217.5 68q71 0 140.5 -28.5t108.5 -75.5z" />
    <glyph glyph-name="char998" horiz-adv-x="785" 
 />
    <glyph glyph-name="char999" horiz-adv-x="290" 
 />
    <glyph glyph-name="bp1" horiz-adv-x="253" 
d="M165 770l-125 62q-22 11 -30 20.5t-8 24.5q0 17 10.5 28t27.5 11q12 0 43 -20l111 -78q22 -15 22 -28q0 -11 -8 -19.5t-19 -8.5q-6 0 -24 8z" />
    </font>
</defs>
</svg>
